<?xml version="1.0" encoding="utf-8"?>
<!-- Generator: Adobe Illustrator 29.8.2, SVG Export Plug-In . SVG Version: 9.03 Build 0)  -->
<svg version="1.1" id="レイヤー_1" xmlns="http://www.w3.org/2000/svg" xmlns:xlink="http://www.w3.org/1999/xlink" x="0px"
	 y="0px" viewBox="0 0 350 99.19" style="enable-background:new 0 0 350 99.19;" xml:space="preserve">
<style type="text/css">
	.st0{fill:#F0E8BD;stroke:#C06D1A;stroke-width:4.4795;stroke-linecap:round;stroke-linejoin:round;stroke-miterlimit:10;}
	.st1{fill:#C06D1A;}
</style>
<g>
	<path class="st0" d="M313.78,95.4H36.22c-17.78,0-32.33-14.55-32.33-32.33V36.11c0-17.78,14.55-32.33,32.33-32.33h277.56
		c17.78,0,32.33,14.55,32.33,32.33v26.96C346.11,80.86,331.56,95.4,313.78,95.4z"/>
	<g>
		<g>
			<path class="st1" d="M77.11,61.54c-2.61,1.56-4.74-1.44-2.01-2.82c4.44-2.22,6.48-5.64,7.14-9.36c0.15-0.9,0.15-1.98,0-2.73
				c-0.36-1.86,3.03-2.52,3.45-0.3c0.06,0.3,0.06,0.75,0.06,1.23c1.8-0.87,4.02-2.46,5.13-3.99c0.51-0.69,0.6-1.05-0.54-0.99
				c-3.78,0.15-8.61,0.81-9.96,0.99c-1.62,0.21-2.43,0.45-4.11,0.39c-1.95-0.06-2.31-3.18,0.21-3.12c1.29,0.03,2.7-0.15,3.96-0.24
				c1.32-0.09,6.33-0.57,11.16-0.84c3.36-0.18,4.65,2.34,2.52,4.83c-1.92,2.25-4.47,4.62-7.53,5.76c-0.45,0.18-0.9,0.18-1.26,0.03
				C84.19,55.03,81.88,58.66,77.11,61.54z"/>
			<path class="st1" d="M116.65,47.74c-1.53,5.25-4.71,10.5-10.44,13.47c-1.98,1.02-3.96-1.47-1.5-2.73
				c4.32-2.19,7.17-6.15,8.73-10.32l-2.13,0.3c-1.44,0.18-2.64,0.39-3.78,0.39c-2.52,0-2.25-2.97-0.3-2.88
				c1.14,0.06,2.43-0.12,3.78-0.24c1.14-0.09,2.22-0.24,3.27-0.36c0.15-0.69,0.27-1.35,0.36-2.01c0.21-1.47,0-2.4,0.03-3.15
				c0.09-1.95,3.06-1.71,3.15,0.06c0.03,0.72-0.06,1.62-0.21,2.88c-0.09,0.6-0.18,1.23-0.3,1.86c0.9-0.12,1.8-0.24,2.7-0.33
				c2.28-0.24,4.08,1.23,3.81,3.66c-0.33,2.97-1.02,7.29-2.46,9.51c-2.1,3.24-5.67,4.26-8.28,1.56c-1.41-1.44,0.54-4.17,2.13-2.43
				c1.14,1.23,2.28,0.75,3.42-0.72c1.29-1.65,1.92-5.97,2.1-7.5c0.09-0.72-0.09-1.56-1.44-1.38L116.65,47.74z"/>
			<path class="st1" d="M141.94,50.92c0.21,1.14-0.42,1.95-1.2,2.16s-1.65-0.18-1.86-1.38c-0.18-0.93-0.27-1.65-0.36-2.13
				s-0.3-1.08-0.63-2.04c-0.42-1.23-0.87-1.89-1.95-2.82c-1.53-1.29,0.63-3.33,2.34-2.01c0.78,0.6,1.26,1.23,1.65,1.95
				c0.78-0.12,1.56-0.21,2.31-0.33c0.45-0.06,1.17-0.18,2.04-0.33c0.06-1.11,0.06-2.46-0.09-3.24c-0.09-0.39-0.09-0.57-0.27-0.9
				c-1.26-2.43,3.09-3.75,3.36-0.6c0.03,0.45,0.03,0.96,0.03,1.53c0,0.78-0.06,1.8-0.06,2.76c1.53-0.21,3.21-0.42,4.77-0.54
				c2.16-0.18,3.6,1.53,2.64,3.6c-2.97,6.48-6,11.61-14.13,15.15c-2.28,0.99-3.96-1.71-1.29-2.73c6.3-2.4,9.93-7.56,11.64-11.94
				c0.3-0.78,0.18-1.26-0.48-1.2c-2.34,0.18-7.77,1.05-9.48,1.38C141.28,48.37,141.67,49.57,141.94,50.92z"/>
			<path class="st1" d="M170.71,48.1c-1.26-0.9-2.85-1.74-4.26-2.04c-1.8-0.39-1.05-3.39,1.23-2.82c1.59,0.42,3.48,1.08,4.95,2.01
				c0.96,0.6,0.96,1.71,0.51,2.43S171.7,48.82,170.71,48.1z M172,59.41c-1.02,0.54-1.68,0.87-2.88,0.96
				c-2.49,0.21-2.85-2.94-0.93-3.15c0.6-0.06,1.68-0.48,2.31-0.75c5.43-2.46,10.29-7.35,13.32-13.2c0.99-1.89,4.02-0.63,2.7,1.77
				C182.8,51.79,178.15,56.17,172,59.41z"/>
			<path class="st1" d="M204.55,60.13c0.03,1.41-0.78,2.19-1.62,2.28s-1.71-0.48-1.65-1.83c0.18-4.89,0.24-14.34,0.12-18.69
				c-0.03-0.96-0.12-1.92-0.27-2.52c-0.54-2.13,2.91-2.55,3.18-0.48c0.12,0.9,0.15,0.6,0.12,2.67c-0.03,1.2-0.03,2.94-0.03,4.95
				c0.15-0.03,0.33-0.03,0.51,0c1.5,0.15,5.46,0.99,7.08,2.73c1.41,1.53-0.66,3.93-2.22,2.46c-1.17-1.11-3.84-2.04-5.37-2.25
				C204.43,53.32,204.49,57.46,204.55,60.13z"/>
			<path class="st1" d="M226.12,61.42l0.3-14.34c-2.37,3-3.27,3.45-3.96,3.45c-0.78,0-1.41-0.63-1.41-1.35
				c0-0.36,0.18-0.75,0.54-1.08c2.94-2.61,5.7-6.48,7.23-10.59c0.24-0.66,0.75-0.9,1.29-0.9c0.81,0,1.65,0.63,1.65,1.47
				c0,0.63-1.35,3.12-2.4,4.8L229,61.42c0,0.93-0.75,1.38-1.44,1.38c-0.72,0-1.44-0.45-1.44-1.35V61.42z M239.59,56.05v5.19
				c0,0.99-0.72,1.47-1.44,1.47s-1.44-0.48-1.44-1.47V44.26h-1.11c-0.9,1.74-1.95,3.39-3.24,5.07c-0.42,0.54-0.93,0.78-1.35,0.78
				c-0.75,0-1.35-0.6-1.35-1.32c0-0.3,0.12-0.63,0.39-0.96c1.95-2.37,3.96-5.79,5.07-10.17c0.18-0.78,0.78-1.11,1.38-1.11
				c0.78,0,1.56,0.54,1.56,1.35c0,0.48-0.9,2.88-1.26,3.75h10.35c0.84,0,1.29,0.66,1.29,1.32s-0.42,1.29-1.29,1.29h-7.56v3.24h6.18
				c0.84,0,1.29,0.66,1.29,1.32s-0.42,1.29-1.29,1.29h-6.18v3.33h6.48c0.84,0,1.29,0.66,1.29,1.32s-0.42,1.29-1.29,1.29
				C246.07,56.05,239.59,56.05,239.59,56.05z"/>
			<path class="st1" d="M275.98,43.63c-2.46-0.03-4.95-0.06-7.44-0.06c0.21,2.79,0.57,5.7,1.35,8.34c0.96-1.68,1.74-3.54,2.4-5.49
				c0.21-0.57,0.66-0.81,1.17-0.81c0.81,0,1.74,0.63,1.74,1.53c0,0.96-2.31,5.64-4.05,8.07c1.77,3.57,2.88,3.81,3,3.81
				c0.51,0,0.93-0.72,1.5-2.34c0.24-0.69,0.72-0.96,1.23-0.96c0.81,0,1.62,0.66,1.62,1.47c0,0.51-1.38,5.04-4.38,5.04
				c-0.9,0-2.88-0.42-4.98-4.62c-4.14,4.38-8.07,5.13-8.34,5.13c-0.93,0-1.47-0.72-1.47-1.44c0-0.6,0.36-1.17,1.14-1.41
				c3.09-0.93,5.52-2.73,7.44-5.1c-1.23-3.39-1.89-7.26-2.25-11.19c-2.49,0-4.95,0.03-7.29,0.03c-0.75,0-1.23,0.48-1.23,1.23v1.8
				c0.72-0.03,1.5-0.03,2.28-0.03c0.75,0,1.5,0,2.07,0.03c1.53,0.03,2.76,0.99,2.91,2.55c0.03,0.36,0.06,1.02,0.06,1.77
				c0,1.14-0.06,2.49-0.3,3.24c-0.78,2.46-2.97,3.3-4.89,3.3c-1.47,0-2.34-0.27-2.34-1.62c0-0.72,0.39-1.41,1.11-1.41
				c0.12,0,0.21,0,0.33,0.03c0.33,0.06,0.69,0.12,1.05,0.12c1.62,0,2.25-0.75,2.25-3.54c0-1.89,0-1.92-2.58-1.92
				c-0.63,0-1.29,0-1.95,0.03c-0.06,3.96-0.42,8.25-2.73,12c-0.45,0.69-1.08,0.99-1.65,0.99c-0.78,0-1.47-0.51-1.47-1.26
				c0-0.27,0.09-0.57,0.3-0.9c2.22-3.45,2.61-7.74,2.61-11.7c0-1.59-0.06-3.15-0.09-4.56c0-0.03,0-0.06,0-0.06
				c0-1.59,0.96-2.82,3.03-2.82c2.64,0,5.46-0.03,8.28-0.03c-0.06-0.93-0.15-3.48-0.15-3.63c0-0.81,0.78-1.26,1.56-1.26
				c0.72,0,1.47,0.42,1.47,1.35c0.03,1.14,0.03,2.31,0.09,3.54c2.61,0,5.16,0.03,7.56,0.03c0.81,0,1.2,0.69,1.2,1.38
				c0,0.69-0.39,1.35-1.14,1.35H275.98z M272.32,40.18c-0.9-0.81-1.98-1.35-2.55-1.62c-0.51-0.24-0.72-0.63-0.72-1.05
				c0-0.57,0.45-1.14,1.2-1.14c0.72,0,2.82,1.05,3.72,1.77c0.39,0.33,0.57,0.72,0.57,1.08c0,0.69-0.6,1.35-1.29,1.35
				C272.95,40.57,272.62,40.45,272.32,40.18z"/>
		</g>
	</g>
</g>
</svg>
