<?xml version="1.0" encoding="utf-8"?>
<!-- Generator: Adobe Illustrator 29.8.1, SVG Export Plug-In . SVG Version: 9.03 Build 0)  -->
<svg version="1.1" id="レイヤー_1" xmlns="http://www.w3.org/2000/svg" xmlns:xlink="http://www.w3.org/1999/xlink" x="0px"
	 y="0px" viewBox="0 0 47.08 41.48" style="enable-background:new 0 0 47.08 41.48;" xml:space="preserve">
<style type="text/css">
	.st0{fill:none;stroke:#C86F00;stroke-width:3.0797;stroke-linecap:round;stroke-linejoin:round;stroke-miterlimit:10;}
	.st1{fill:#C86F00;}
	.st2{clip-path:url(#SVGID_00000041269982885334656500000011820879015059803031_);}
	.st3{fill:none;stroke:#F0E8BD;stroke-width:0.8472;stroke-linecap:round;stroke-linejoin:round;stroke-miterlimit:10;}
	.st4{fill:none;stroke:#F0E8BD;stroke-width:0.8472;stroke-linecap:round;stroke-linejoin:round;}
	.st5{fill:none;stroke:#F0E8BD;stroke-width:0.8472;stroke-linecap:round;stroke-linejoin:round;stroke-dasharray:0.7837,1.5674;}
</style>
<g>
	<g>
		<path class="st0" d="M1.91,1.88h5.93c1.38,0,2.6,0.92,2.97,2.26L17.1,26.9l-1.62,2.6c-0.4,1.01,0.35,2.1,1.43,2.1h25.34"/>
		<circle class="st1" cx="20.73" cy="37.79" r="3.36"/>
		<circle class="st1" cx="38.89" cy="37.79" r="3.36"/>
	</g>
	<g>
		<defs>
			<path id="SVGID_1_" d="M45.17,6.49H30.79h-0.31H16.11c-1.01,0-1.75,0.96-1.49,1.93l4.55,17.26c0.18,0.68,0.79,1.15,1.49,1.15
				h9.83h0.31h9.83c0.7,0,1.31-0.47,1.49-1.15l4.55-17.26C46.92,7.44,46.18,6.49,45.17,6.49z"/>
		</defs>
		<use xlink:href="#SVGID_1_"  style="overflow:visible;fill:#C86F00;"/>
		<clipPath id="SVGID_00000069368186361872226630000001585897591693128357_">
			<use xlink:href="#SVGID_1_"  style="overflow:visible;"/>
		</clipPath>
		<g style="clip-path:url(#SVGID_00000069368186361872226630000001585897591693128357_);">
			<path class="st3" d="M30.14,15.81c-0.54-0.72-0.83-1.78-1.31-2.59c-1.02-1.72-3.26-2.43-5.23-2.09s-3.68,1.54-5.14,2.91
				c-1.48,1.39-2.82,3.18-2.81,5.21c0.01,0.7,0.17,1.44-0.11,2.08c-0.3,0.7-1.04,1.09-1.63,1.58"/>
			<path class="st3" d="M41.18,31.06c1.81-1.52,2.65-4.09,2.11-6.39c-0.55-2.3-2.46-4.21-4.76-4.76"/>
			<path class="st4" d="M37,19.4c-0.09-0.07-0.17-0.15-0.25-0.23"/>
			<path class="st5" d="M35.85,17.88c-0.77-0.91-1.98-1.45-3.17-1.38c-0.11,0.01-0.23,0.02-0.34,0.03"/>
			<path class="st4" d="M31.56,16.59c-0.11,0-0.22-0.02-0.34-0.04"/>
			<path class="st3" d="M37.33,14.93c0.06-0.01,0.11-0.03,0.17-0.04c0.95-0.27,1.89-1.04,1.97-1.92c0.11-1.14-0.8-2.28-1.93-2.43
				c-1.13-0.15-2.31,0.71-2.51,1.83c-0.17,0.94,0.07,1.94,0.81,2.39"/>
		</g>
	</g>
</g>
<g>
</g>
<g>
</g>
<g>
</g>
<g>
</g>
<g>
</g>
<g>
</g>
<g>
</g>
<g>
</g>
<g>
</g>
<g>
</g>
<g>
</g>
<g>
</g>
<g>
</g>
<g>
</g>
<g>
</g>
</svg>
