<?xml version="1.0" encoding="utf-8"?>
<!-- Generator: Adobe Illustrator 29.8.1, SVG Export Plug-In . SVG Version: 9.03 Build 0)  -->
<svg version="1.1" id="レイヤー_1" xmlns="http://www.w3.org/2000/svg" xmlns:xlink="http://www.w3.org/1999/xlink" x="0px"
	 y="0px" viewBox="0 0 34.75 42.78" style="enable-background:new 0 0 34.75 42.78;" xml:space="preserve">
<style type="text/css">
	.st0{fill:#C86F00;}
	.st1{fill:none;stroke:#F0E8BD;stroke-width:0.6859;stroke-linecap:round;stroke-linejoin:round;stroke-dasharray:0.6346,1.2691;}
</style>
<g>
	<g>
		<circle class="st0" cx="17.25" cy="12.62" r="12.07"/>
		<path class="st0" d="M17.29,27.77c-0.01,0-0.03,0-0.04,0c-0.01,0-0.03,0-0.04,0c-7.94,0-17.89,9.64-16.76,11.81
			c1,1.91,6.69,2.5,12.25,2.64c0.03,0,0.06,0.01,0.09,0.01h0.3c0,0,0,0,0,0h4.15h4.15c0,0,0,0,0,0h0.3c0.03,0,0.06-0.01,0.09-0.01
			c5.56-0.15,11.25-0.74,12.25-2.64C35.18,37.42,25.23,27.77,17.29,27.77z"/>
	</g>
	<path class="st1" d="M0.87,39.51c0,0,10.25-1.65,16.38-1.65c5.56,0,16.8,1.71,16.8,1.71"/>
</g>
<g>
</g>
<g>
</g>
<g>
</g>
<g>
</g>
<g>
</g>
<g>
</g>
<g>
</g>
<g>
</g>
<g>
</g>
<g>
</g>
<g>
</g>
<g>
</g>
<g>
</g>
<g>
</g>
<g>
</g>
</svg>
