<?xml version="1.0" encoding="utf-8"?>
<!-- Generator: Adobe Illustrator 29.8.1, SVG Export Plug-In . SVG Version: 9.03 Build 0)  -->
<svg version="1.1" id="レイヤー_1" xmlns="http://www.w3.org/2000/svg" xmlns:xlink="http://www.w3.org/1999/xlink" x="0px"
	 y="0px" viewBox="0 0 61.94 42.69" style="enable-background:new 0 0 61.94 42.69;" xml:space="preserve">
<style type="text/css">
	.st0{fill:#C86F00;}
</style>
<g>
	<path class="st0" d="M58.87,23.54c-1.74-2.29-4.25-4.01-7.06-4.68l-1.66-0.39c-0.47-0.11-0.92-0.32-1.31-0.61l0,0
		c-0.56-0.42-1.02-0.96-1.34-1.59c-1.28-2.58-4.18-4.18-7.04-4.02c-0.86,0.05-1.73,0.25-2.57,0.13c-2.92-0.42-3.46-4.07-4.91-6.52
		c-1.98-3.33-6.33-4.71-10.15-4.05s-7.15,2.99-9.97,5.65c-2.86,2.7-5.48,6.16-5.45,10.1c0.01,1.36,0.33,2.79-0.21,4.05
		c-0.59,1.36-1.86,1.69-3.16,3.06c0,0-0.05,0.04-0.13,0.12c-2.81,2.7-4.02,6.73-3,10.48c0.21,0.77,0.4,1.11,0.4,1.11
		c1.79,3.92,5.74,5.71,9.54,5.71h39.22h0c5.16,0,9.85-3.45,10.97-8.49c0.4-1.81,0.42-3.7-0.01-5.51
		C60.66,26.44,59.9,24.89,58.87,23.54z"/>
	<path class="st0" d="M50.27,0.71c-0.13-0.03-0.25-0.05-0.38-0.07c-2.2-0.3-4.48,1.37-4.87,3.56c-0.42,2.37,0.47,4.93,3.09,5.09
		c0.53,0.05,1.12-0.02,1.7-0.19c1.84-0.53,3.66-2.02,3.82-3.73C53.83,3.28,52.28,1.2,50.27,0.71z"/>
</g>
<g>
</g>
<g>
</g>
<g>
</g>
<g>
</g>
<g>
</g>
<g>
</g>
<g>
</g>
<g>
</g>
<g>
</g>
<g>
</g>
<g>
</g>
<g>
</g>
<g>
</g>
<g>
</g>
<g>
</g>
</svg>
