<?xml version="1.0" encoding="utf-8"?>
<!-- Generator: Adobe Illustrator 29.8.2, SVG Export Plug-In . SVG Version: 9.03 Build 0)  -->
<svg version="1.1" id="レイヤー_1" xmlns="http://www.w3.org/2000/svg" xmlns:xlink="http://www.w3.org/1999/xlink" x="0px"
	 y="0px" viewBox="0 0 244.84 99.19" style="enable-background:new 0 0 244.84 99.19;" xml:space="preserve">
<style type="text/css">
	.st0{fill:#F0E8BD;stroke:#C06D1A;stroke-width:3.7351;stroke-linecap:round;stroke-linejoin:round;stroke-miterlimit:10;}
	.st1{fill:#C06D1A;}
</style>
<g>
	<path class="st0" d="M208.33,95.4H36.51c-18.18,0-33.05-14.87-33.05-33.05V36.84c0-18.18,14.87-33.05,33.05-33.05h171.82
		c18.18,0,33.05,14.87,33.05,33.05v25.51C241.39,80.53,226.51,95.4,208.33,95.4z"/>
	<g>
		<g>
			<path class="st1" d="M82.22,55.46c2.07,0.18,3,2.94-0.18,3.12c-0.78,0.03-1.38,0.06-2.16,0.09c-1.38,0.09-4.23,0.3-5.28,0.42
				c-0.9,0.09-1.5,0.21-2.31,0.18c-0.66,1.47-2.64,1.56-2.91-0.57c-0.24-2.04-0.03-5.34-0.81-8.25c-0.42-1.53-1.2-2.43-1.77-3.06
				c-1.35-1.47,0.99-3.24,2.43-1.95c0.39,0.33,0.69,0.75,0.99,1.17c0.27-0.21,0.63-0.33,1.11-0.39c1.08-0.09,2.16-0.18,3.27-0.36
				c1.11-0.18,2.67-0.51,3.78-0.69c1.02-0.15,1.77-0.48,2.79-0.51c2.88-0.06,3.48,2.43,3.03,3.48c-0.9,2.1-1.41,4.83-2.28,7.32
				C82.01,55.46,82.13,55.46,82.22,55.46z M71.33,49.28c0.45,2.1,0.84,4.86,1.05,7.05c0.6,0.03,1.2,0,1.8-0.06
				c0.87-0.06,3-0.3,4.56-0.45c0.84-2.55,1.38-5.46,1.65-7.2c0.12-0.75-0.27-1.05-0.84-0.96c-1.47,0.21-3.18,0.75-4.35,0.96
				c-1.38,0.24-2.49,0.57-3.78,0.66C71.42,49.28,71.33,49.28,71.33,49.28z"/>
			<path class="st1" d="M98.21,53.42c-2.07,1.38-3.84-1.35-1.74-2.61c2.91-1.77,5.1-4.77,6.51-6.96c0.51-0.78,0.96-1.71,1.17-2.46
				c0.54-2.01,3.54-1.47,3.21,0.51c-0.06,0.42-0.24,0.87-0.45,1.32c1.44-0.24,3-0.6,4.35-0.69c2.1-0.12,3.96,1.35,2.82,3.3
				c-4.83,8.28-9.21,14.07-17.31,17.22c-2.58,0.99-3.75-2.07-1.2-2.91c6.33-2.13,11.25-7.53,14.7-14.04c0.3-0.6,0.03-0.72-0.42-0.72
				c-1.2,0.03-3.6,0.54-4.8,0.75C103.25,48.62,100.85,51.62,98.21,53.42z M113.36,41.69c-1.5-0.63-0.33-2.43,1.05-1.92
				c0.78,0.3,2.28,1.11,2.94,1.8c1.17,1.23-0.57,3.06-1.56,1.89C115.4,43.01,113.96,41.93,113.36,41.69z M116.06,39.14
				c-1.53-0.6-0.45-2.4,0.96-1.95c0.81,0.27,2.31,1.02,3,1.71c1.2,1.2-0.48,3.03-1.5,1.92C118.1,40.37,116.66,39.38,116.06,39.14z"
				/>
			<path class="st1" d="M127.94,57.38c-2.79,1.71-4.35-1.38-2.28-2.4c4.83-2.37,9.63-7.02,12.6-11.67c0.3-0.48,0.87-1.8,1.08-2.37
				c0.63-1.77,4.14-0.87,3.09,1.35c-0.39,0.81-0.54,1.35-1.47,2.61c-0.84,1.11-1.65,2.16-2.46,3.15c0.12,0.12,0.21,0.27,0.27,0.45
				c0.24,0.66,0.24,0.93,0.15,2.97c-0.12,2.34-0.09,6.9,0,10.14c0.03,1.41-0.81,1.92-1.59,2.01s-1.62-0.48-1.59-1.8
				c0.03-3.21,0.36-7.17,0.24-10.02c0-0.3-0.03-0.57-0.06-0.84C133.58,53.42,131.09,55.46,127.94,57.38z"/>
			<path class="st1" d="M161.54,49.61c-1.26-0.9-2.85-1.74-4.26-2.04c-1.8-0.39-1.05-3.39,1.23-2.82c1.59,0.42,3.48,1.08,4.95,2.01
				c0.96,0.6,0.96,1.71,0.51,2.43S162.53,50.33,161.54,49.61z M162.83,60.92c-1.02,0.54-1.68,0.87-2.88,0.96
				c-2.49,0.21-2.85-2.94-0.93-3.15c0.6-0.06,1.68-0.48,2.31-0.75c5.43-2.46,10.29-7.35,13.32-13.2c0.99-1.89,4.02-0.63,2.7,1.77
				C173.63,53.3,168.98,57.68,162.83,60.92z"/>
		</g>
	</g>
</g>
</svg>
