<?xml version="1.0" encoding="utf-8"?>
<!-- Generator: Adobe Illustrator 29.8.2, SVG Export Plug-In . SVG Version: 9.03 Build 0)  -->
<svg version="1.1" id="レイヤー_1" xmlns="http://www.w3.org/2000/svg" xmlns:xlink="http://www.w3.org/1999/xlink" x="0px"
	 y="0px" viewBox="0 0 519.52 273.47" style="enable-background:new 0 0 519.52 273.47;" xml:space="preserve">
<style type="text/css">
	
		.st0{opacity:0.4;fill:none;stroke:#DCC224;stroke-width:2;stroke-linecap:round;stroke-linejoin:round;stroke-miterlimit:10;stroke-dasharray:20,13,5,13;}
	.st1{fill:url(#SVGID_1_);}
	.st2{opacity:0.5;fill:#E6D89B;}
</style>
<g>
	<g>
		<circle class="st0" cx="133.29" cy="62.88" r="60.49"/>
		<circle class="st0" cx="62.48" cy="161.15" r="60.49"/>
		<circle class="st0" cx="251.57" cy="210.59" r="60.49"/>
		<circle class="st0" cx="457.03" cy="134.6" r="60.49"/>
		<circle class="st0" cx="407.51" cy="167.36" r="60.49"/>
	</g>
	<g>
		
			<radialGradient id="SVGID_1_" cx="268.8099" cy="138.9884" r="186.2639" gradientTransform="matrix(1 0 0 0.6 0 55.5954)" gradientUnits="userSpaceOnUse">
			<stop  offset="0.72" style="stop-color:#E6D89B"/>
			<stop  offset="1" style="stop-color:#E6D89B;stop-opacity:0.5"/>
		</radialGradient>
		<path class="st1" d="M441.98,26.66c-15.98,0-30.51,6.21-41.33,16.34c-19.49-16-44.44-25.61-71.63-25.61
			c-29.66,0-56.64,11.43-76.79,30.13c-15.64-8.18-33.42-12.82-52.3-12.82c-36.06,0-68.17,16.9-88.85,43.21
			c-4.93-1.3-10.11-2-15.45-2c-33.41,0-60.49,27.08-60.49,60.49s27.08,60.49,60.49,60.49c0.87,0,1.73-0.03,2.59-0.07
			c18.28,37.75,56.96,63.78,101.71,63.78c29.66,0,56.64-11.43,76.79-30.13c15.64,8.18,33.42,12.82,52.3,12.82
			c56.51,0,103.32-41.5,111.64-95.68c0.44,0.01,0.87,0.03,1.31,0.03c33.41,0,60.49-27.08,60.49-60.49
			C502.48,53.74,475.39,26.66,441.98,26.66z"/>
	</g>
	<circle class="st2" cx="441.98" cy="230.35" r="30.25"/>
	<circle class="st2" cx="72.8" cy="25.01" r="22.62"/>
</g>
<g>
</g>
<g>
</g>
<g>
</g>
<g>
</g>
<g>
</g>
<g>
</g>
</svg>
