<?xml version="1.0" encoding="utf-8"?>
<!-- Generator: Adobe Illustrator 29.8.1, SVG Export Plug-In . SVG Version: 9.03 Build 0)  -->
<svg version="1.1" id="レイヤー_1" xmlns="http://www.w3.org/2000/svg" xmlns:xlink="http://www.w3.org/1999/xlink" x="0px"
	 y="0px" viewBox="0 0 389.51 101.19" style="enable-background:new 0 0 389.51 101.19;" xml:space="preserve">
<style type="text/css">
	.st0{fill:#C06D1A;stroke:#C06D1A;stroke-width:5;stroke-linecap:round;stroke-linejoin:round;stroke-miterlimit:10;}
	.st1{fill:#EDE5BB;}
</style>
<g>
	<path class="st0" d="M349.82,96.41H39.7c-19.25,0-35-15.75-35-35V39.79c0-19.25,15.75-35,35-35h310.12c19.25,0,35,15.75,35,35
		v21.62C384.82,80.66,369.07,96.41,349.82,96.41z"/>
	<g>
		<g>
			<path class="st1" d="M81.36,60.27c0,0.84-0.72,1.26-1.47,1.26c-0.75,0-1.47-0.42-1.47-1.26v-0.03l0.12-9.78
				c-1.08,1.71-2.31,3.3-3.45,4.53c-0.36,0.36-0.75,0.54-1.14,0.54c-0.81,0-1.53-0.69-1.53-1.41c0-0.36,0.15-0.69,0.51-1.02
				c1.68-1.5,4.23-4.56,5.64-7.41l-0.03-0.36l-3.81,0.09H74.7c-0.9,0-1.32-0.63-1.32-1.29s0.45-1.32,1.35-1.32h3.78l-0.06-2.85
				c-2.22,0.42-2.85,0.45-2.97,0.45c-0.9,0-1.38-0.69-1.38-1.35c0-0.6,0.39-1.2,1.2-1.29c2.82-0.27,4.86-0.75,7.44-1.77
				c0.18-0.06,0.33-0.09,0.48-0.09c0.78,0,1.35,0.66,1.35,1.38c0,1.08-1.2,1.44-3.24,2.01c-0.03,0.66-0.03,1.98-0.06,3.51h3.3
				c0.9,0,1.35,0.66,1.35,1.32s-0.45,1.29-1.32,1.29h-0.03l-3.36-0.06v1.77c0.12-0.03,0.21-0.03,0.3-0.03
				c1.11,0,3.57,2.16,3.72,2.34c0.3,0.33,0.42,0.66,0.42,1.02c0,0.75-0.63,1.44-1.32,1.44c-0.33,0-0.66-0.15-0.96-0.51
				c-0.51-0.66-1.41-1.41-2.16-1.95c0.03,4.5,0.15,10.8,0.15,10.8V60.27z M84.27,60.27c-0.84,0-1.29-0.78-1.29-1.56
				c0-0.66,0.36-1.32,1.11-1.35c0.57-0.03,1.17-0.06,1.74-0.12c1.5-4.95,3.81-16.68,4.08-19.86c0.09-0.9,0.78-1.32,1.5-1.32
				c0.84,0,1.77,0.57,1.77,1.59c0,1.05-2.76,13.77-4.5,19.26c2.1-0.27,4.17-0.63,6.15-1.05c-0.54-1.08-1.17-2.1-1.83-3.12
				c-0.18-0.3-0.27-0.57-0.27-0.84c0-0.72,0.66-1.23,1.41-1.23c0.45,0,0.96,0.21,1.32,0.72c3.06,4.26,3.87,7.2,3.87,7.86
				c0,1.05-0.87,1.74-1.71,1.74c-0.66,0-1.29-0.42-1.47-1.32c-0.09-0.48-0.21-0.93-0.36-1.41C90.96,59.61,84.87,60.27,84.27,60.27z"
				/>
			<path class="st1" d="M122.36,43.17c-2.79,7.68-4.98,11.58-6.96,15.75c-0.27,0.57-0.84,0.84-1.44,0.84
				c-0.78,0-1.56-0.48-1.56-1.29c0-0.24,0.06-0.54,0.24-0.84c1.59-2.85,4.08-7.14,6.51-13.56l-0.33,0.09
				c-0.93,0.27-1.8,0.39-2.55,0.39c-0.3,0-2.64,0-2.64-1.62c0-0.75,0.48-1.53,1.32-1.53c0.27,0,0.57,0.06,0.9,0.24
				c0.24,0.12,0.48,0.18,0.78,0.18c0.99,0,2.79-0.57,3.51-0.84c0.15-0.75,0.21-1.41,0.21-2.4c0-0.93,0.84-1.41,1.65-1.41
				c0.69,0,1.32,0.33,1.41,1.08c0.03,0.15,0.03,0.33,0.03,0.51c0,0.18,0,0.36-0.03,0.57c0.12-0.03,0.24-0.06,0.39-0.06
				c0.81,0,1.41,0.69,1.41,1.38c0,0.78-0.54,1.32-2.76,2.31L122.36,43.17z M131.51,60.06c-4.92,0-8.16-2.61-8.16-4.14
				c0-0.84,0.69-1.59,1.47-1.59c0.39,0,0.81,0.18,1.17,0.66c1.14,1.53,2.1,1.74,6.03,2.01c1.05,0.06,1.53,0.78,1.53,1.5
				C133.55,60.06,131.99,60.06,131.51,60.06z M133.25,48.78c-1.41-0.54-3.6-1.38-5.31-1.38c-0.36,0-0.72,0.03-1.02,0.12
				c-0.12,0.03-0.24,0.06-0.33,0.06c-0.69,0-1.14-0.6-1.14-1.23c0-0.48,0.15-1.59,2.82-1.59c1.68,0,3.87,0.45,6.09,1.35
				c0.69,0.27,0.96,0.81,0.96,1.32c0,0.75-0.6,1.47-1.44,1.47C133.67,48.9,133.46,48.87,133.25,48.78z"/>
			<path class="st1" d="M160.04,39.78c0.54-0.42,1.05-0.6,1.47-0.6c0.75,0,1.29,0.51,1.29,1.23c0,0.93-0.93,1.89-3.66,3.36
				c-0.39,2.7-1.02,6.24-1.05,8.04c1.89-2.1,4.86-4.02,7.62-4.02c2.1,0,5.49,1.2,5.49,4.35c0,1.65-0.84,3.39-2.13,4.74
				c-3.18,3.36-8.22,4.26-8.91,4.26c-1.11,0-1.68-0.72-1.68-1.44c0-0.63,0.45-1.26,1.38-1.41c6.18-0.9,8.31-4.5,8.31-5.94
				c0-1.44-1.59-1.98-2.73-1.98c-2.4,0-5.43,2.43-6.9,4.71c-0.39,0.63-0.33,1.02-1.14,1.35c-0.18,0.06-0.39,0.12-0.63,0.12
				c-0.72,0-1.53-0.42-1.53-1.53c0-0.84,0.27-3.72,1.11-10.17c-0.63,0.15-1.23,0.24-1.8,0.24c-0.87,0-3-0.18-3-1.65
				c0-0.72,0.54-1.41,1.41-1.41c0.24,0,0.51,0.03,0.78,0.15c0.27,0.09,0.54,0.15,0.9,0.15c0.57,0,1.26-0.15,2.07-0.51
				c0.54-4.47,0.72-5.49,2.19-5.49c0.72,0,1.41,0.45,1.41,1.26c0,0.45-0.48,2.22-0.54,2.43L160.04,39.78z"/>
			<path class="st1" d="M189.51,58.92c-0.57-1.83-0.78-3.78-0.78-5.73c0-5.28,1.53-10.44,1.68-12.51c0.09-1.02,0.75-1.44,1.44-1.44
				c0.75,0,1.5,0.51,1.5,1.32c0,0.06,0,0.15-0.03,0.24c-0.42,2.19-1.95,7.74-1.95,10.71c0,1.11,0.21,1.23,0.3,1.23
				c0.06,0,0.15-0.06,0.21-0.21c0.93-1.77,1.14-2.13,1.77-2.13s1.23,0.6,1.23,1.26c0,0.18-0.03,0.36-0.15,0.54
				c-1.44,2.49-2.25,4.74-2.25,5.64c0,0.27,0.03,0.54,0.03,0.81c0,1.47-1.17,1.56-1.5,1.56C190.4,60.21,189.77,59.82,189.51,58.92z
				 M206.18,58.74c-5.19,0-9.15-3.09-9.15-4.56c0-0.78,0.72-1.41,1.56-1.41c0.45,0,0.93,0.18,1.35,0.66
				c1.26,1.41,3.39,2.01,5.82,2.01c0.84,0,1.68-0.06,2.55-0.18c0.12-0.03,0.24-0.03,0.36-0.03c1.02,0,1.5,0.69,1.5,1.44
				C210.17,58.23,208.85,58.74,206.18,58.74z M202.79,45.57c-1.32,0-2.73-0.12-4.05-0.45c-0.9-0.21-1.26-0.78-1.26-1.35
				c0-0.72,0.57-1.41,1.38-1.41c0.09,0,0.18,0,0.3,0.03c0.99,0.21,1.98,0.3,2.91,0.3c1.29,0,2.52-0.15,3.69-0.3
				c0.09,0,0.18-0.03,0.27-0.03c0.93,0,1.44,0.69,1.44,1.41C207.47,44.97,206.63,45.57,202.79,45.57z"/>
			<path class="st1" d="M232.68,59.01c-1.14,0-1.8-0.81-1.8-1.62c0-0.66,0.48-1.32,1.5-1.47c5.67-0.81,12.27-3.81,12.27-7.83
				c0-2.22-2.07-3.78-4.38-3.78c-1.08,0-2.34,0.3-3.78,0.81c-2.85,0.99-6.45,3.15-9.51,4.56c-0.36,0.18-0.69,0.24-0.99,0.24
				c-1.02,0-1.68-0.78-1.68-1.59c0-0.6,0.36-1.2,1.17-1.53c2.88-1.14,7.62-3.57,10.62-4.41c1.59-0.45,3.09-0.75,4.53-0.75
				c4.89,0,7.32,3.69,7.32,6.6c0,2.22-1.35,4.35-3.99,6.42C240.23,57.57,233.48,59.01,232.68,59.01z"/>
			<path class="st1" d="M270.74,57.57c-1.05,0-2.34-0.48-3.57-1.56c-3.03-2.61-3.9-6.69-4.38-9.03c-0.24-1.14-0.57-2.97-0.57-3.21
				c0-0.87,0.75-1.44,1.5-1.44c0.63,0,1.29,0.42,1.5,1.41c0.18,0.96,0.24,1.98,0.42,2.94c1.23,6.99,4.05,7.26,4.23,7.26
				c0.3,0,0.57-0.24,0.84-0.96c0.27-0.72,0.48-1.59,0.84-2.55c0.24-0.6,0.66-0.84,1.11-0.84c0.78,0,1.59,0.69,1.59,1.5
				c0,0.09-0.03,0.15-0.03,0.24c-0.18,0.99-0.78,2.94-0.87,3.87C273.2,56.7,272.15,57.57,270.74,57.57z M282.26,50.76
				c-0.27-2.01-1.92-4.47-3.93-6.06c-0.36-0.27-0.51-0.63-0.51-0.96c0-0.63,0.57-1.23,1.35-1.23c0.39,0,0.84,0.15,1.26,0.51
				c1.26,1.08,4.98,4.38,4.98,7.41c0,1.11-0.84,1.71-1.65,1.71C283.07,52.14,282.38,51.69,282.26,50.76z"/>
			<path class="st1" d="M317.25,59.88c-0.09,0-0.18,0-0.3,0c-6.51-0.6-10.62-5.1-10.62-9.72c0-1.17,0.27-3.21,2.16-5.49
				c0.09-0.12,0.15-0.21,0.15-0.27c0-0.03-0.03-0.06-0.06-0.06c-0.06,0-0.18,0.06-0.3,0.12c-4.71,2.43-5.28,2.61-5.94,2.61
				c-1.11,0-1.83-0.78-1.83-1.62c0-0.6,0.42-1.26,1.38-1.56c0.63-0.21,2.34-0.72,3.24-1.05c1.41-0.51,3.9-1.29,6.87-2.46
				c2.22-0.87,5.16-1.86,7.95-1.86c1.5,0,2.04,0.69,2.04,1.47c0,1.53-1.26,1.86-2.4,1.86c-0.21,0-0.45,0-0.69-0.03
				c-0.24-0.03-0.48-0.03-0.72-0.03c-4.65,0-9.21,3.96-9.21,7.98c0,3.6,3.42,6.66,8.13,6.66c1.5,0,2.22,0.87,2.22,1.77
				C319.31,59.04,318.62,59.88,317.25,59.88z"/>
		</g>
	</g>
</g>
<g>
</g>
<g>
</g>
<g>
</g>
<g>
</g>
<g>
</g>
<g>
</g>
</svg>
