<?xml version="1.0" encoding="utf-8"?>
<!-- Generator: Adobe Illustrator 29.8.1, SVG Export Plug-In . SVG Version: 9.03 Build 0)  -->
<svg version="1.1" id="レイヤー_1" xmlns="http://www.w3.org/2000/svg" xmlns:xlink="http://www.w3.org/1999/xlink" x="0px"
	 y="0px" viewBox="0 0 328.51 153.91" style="enable-background:new 0 0 328.51 153.91;" xml:space="preserve">
<style type="text/css">
	
		.st0{fill:none;stroke:#DCC224;stroke-width:1.9678;stroke-linecap:round;stroke-linejoin:round;stroke-miterlimit:10;stroke-dasharray:49.2086,12.3022,4.9209,12.3022;}
</style>
<g>
	<path class="st0" d="M278.04,2.29c26.63,0,48.21,21.59,48.21,48.21s-21.59,48.21-48.21,48.21s-48.21-21.59-48.21-48.21
		S251.41,2.29,278.04,2.29z"/>
	<path class="st0" d="M197.24,151.61c20.46,0,37.05-16.59,37.05-37.05s-16.59-37.05-37.05-37.05s-37.05,16.59-37.05,37.05
		S176.78,151.61,197.24,151.61z"/>
	<path class="st0" d="M92.39,108.82c15.51,0,28.08-12.57,28.08-28.08S107.9,52.66,92.39,52.66S64.31,65.23,64.31,80.74
		S76.88,108.82,92.39,108.82z"/>
	<path class="st0" d="M158.41,114.57c10.23,0,18.52-8.29,18.52-18.52s-8.29-18.52-18.52-18.52c-10.23,0-18.52,8.29-18.52,18.52
		S148.18,114.57,158.41,114.57z"/>
	<circle class="st0" cx="20.79" cy="121.5" r="18.52"/>
</g>
<g>
</g>
<g>
</g>
<g>
</g>
<g>
</g>
<g>
</g>
<g>
</g>
</svg>
