<?xml version="1.0" encoding="utf-8"?>
<!-- Generator: Adobe Illustrator 29.8.1, SVG Export Plug-In . SVG Version: 9.03 Build 0)  -->
<svg version="1.1" id="レイヤー_1" xmlns="http://www.w3.org/2000/svg" xmlns:xlink="http://www.w3.org/1999/xlink" x="0px"
	 y="0px" viewBox="0 0 379.93 98.75" style="enable-background:new 0 0 379.93 98.75;" xml:space="preserve">
<style type="text/css">
	.st0{fill:#C06D1A;stroke:#C06D1A;stroke-width:4.6764;stroke-linecap:round;stroke-linejoin:round;stroke-miterlimit:10;}
	.st1{fill:#F0E8BD;}
</style>
<g>
	<path class="st0" d="M341.44,95.19H38.48c-19.25,0-35-15.75-35-35V38.57c0-19.25,15.75-35,35-35h302.96c19.25,0,35,15.75,35,35
		v21.62C376.44,79.44,360.69,95.19,341.44,95.19z"/>
	<g>
		<g>
			<path class="st1" d="M73.67,38.62c-0.81,0-1.23-0.63-1.23-1.26s0.42-1.26,1.23-1.26h9.93v-1.41c0-0.9,0.75-1.35,1.5-1.35
				c0.78,0,1.53,0.45,1.53,1.35v1.41h9.99c0.78,0,1.17,0.63,1.17,1.26s-0.39,1.26-1.17,1.26H73.67z M96.62,56.35
				c0,0.03,0,0.03,0,0.06c0,1.71-1.2,3.75-5.13,3.75c-1.86,0-3.3-0.15-3.3-1.62c0-0.69,0.42-1.38,1.23-1.38
				c0.06,0,0.15,0.03,0.24,0.03c0.63,0.12,1.29,0.21,1.86,0.21c1.17,0,2.07-0.39,2.1-1.71c0-0.6,0-1.38,0-2.25
				c0-2.58-0.03-5.97-0.09-7.71c-0.06-1.47-0.63-1.74-2.07-1.77c-1.17,0-2.31-0.03-3.48-0.03c-0.03,0.6-0.06,1.26-0.06,1.41
				c0,0.63,0.69,0.69,1.26,0.69c0.78,0,1.17-0.27,1.17-0.45c0-0.66,0.6-0.96,1.23-0.96c0.66,0,1.38,0.36,1.38,1.02
				c0,1.68-1.11,2.55-3.99,2.55c-2.79,0-3.54-0.75-3.54-2.4c0-0.06,0-0.09,0-0.12c0-0.15,0-1.02,0.03-1.77H83.9
				c-0.75,3.63-3.93,5.1-5.01,5.1c-0.84,0-1.35-0.66-1.35-1.26c0-0.42,0.24-0.81,0.81-0.96c1.5-0.36,2.67-1.26,3.06-2.85
				c-0.84,0-1.68,0.03-2.52,0.03c-1.68,0.03-2.1,0.45-2.16,1.77c-0.09,2.91-0.09,9.24-0.09,13.56c0,0.87-0.72,1.29-1.44,1.29
				c-0.72,0-1.47-0.45-1.47-1.29c0-3.96,0.06-10.74,0.15-14.67c0.03-1.65,1.47-2.79,3.69-2.82c0.93-0.03,1.92-0.06,2.88-0.06
				c-0.33-0.51-0.69-0.93-1.08-1.41c-0.15-0.18-0.21-0.36-0.21-0.54c0-0.6,0.78-1.05,1.53-1.05c0.3,0,0.6,0.06,0.84,0.24
				c0.6,0.45,1.59,1.77,2.01,2.76c1.05,0,2.07-0.03,3.12-0.03c0.39-0.75,0.72-1.53,0.96-2.16c0.21-0.6,0.72-0.87,1.26-0.87
				c0.84,0,1.74,0.6,1.74,1.38c0,0.36-0.15,0.63-0.84,1.68c1.02,0,2.07,0.03,3.09,0.06c1.8,0.03,3.57,1.17,3.6,3.03
				c0.03,2.01,0.06,6.57,0.09,7.65L96.62,56.35z M84.77,56.47c-4.95,0-5.46-0.39-5.46-3.75c0-0.57,0.03-1.14,0.03-1.44
				c0.06-1.2,0.96-1.92,2.37-1.98c0.96-0.06,2.13-0.06,3.27-0.06c5.16,0,5.88,0.03,5.88,3.39C90.86,56.11,90.38,56.47,84.77,56.47z
				 M85.01,54.31c2.61,0,3,0,3.06-0.69c0.03-0.15,0.03-0.48,0.03-0.84c0-0.33,0-0.69-0.03-0.84c-0.06-0.63-0.21-0.66-3-0.66
				c-0.84,0-1.68,0.03-2.31,0.06c-0.69,0.03-0.78,0.3-0.78,1.47c0,0.36,0.03,0.69,0.03,0.84C82.1,54.28,82.31,54.31,85.01,54.31z"/>
			<path class="st1" d="M108.56,59.71c-3.3,0-5.58-0.03-5.7-2.97c-0.03-0.51-0.03-1.14-0.03-1.8c0-1.62,0.06-3.51,0.09-4.56
				c0.06-1.62,1.17-2.73,2.82-2.82c0.84-0.03,1.65-0.06,2.43-0.06c0.93,0,1.83,0.03,2.76,0.06c1.53,0.06,2.91,1.14,2.97,2.7
				c0.06,1.23,0.12,3.48,0.12,5.13C114.02,58.39,113.84,59.71,108.56,59.71z M111.14,50.95c-0.06-0.99-0.6-1.02-2.79-1.02
				c-2.13,0-2.67,0.03-2.73,1.02c-0.03,0.66-0.06,2.04-0.06,3.24c0,0.75,0,1.44,0.03,1.86c0.06,0.99,0.78,1.11,2.82,1.11
				c2.43,0,2.79-0.06,2.79-2.1C111.2,53.8,111.17,51.82,111.14,50.95z M119.3,45.64c-1.29,0.06-2.61,0.09-3.93,0.09
				c-1.5,0-3.03-0.03-4.53-0.09c-2.16-0.06-3.24-1.29-3.33-2.88c-0.03-0.84-0.06-1.74-0.06-2.58s0.03-1.68,0.06-2.37
				c0.09-1.32,0.9-2.85,3.27-2.91c1.11-0.03,2.43-0.06,3.78-0.06c1.62,0,3.33,0.03,4.89,0.06c1.8,0.03,3.03,1.47,3.12,2.7
				c0.06,0.75,0.09,1.59,0.09,2.43c0,0.96-0.03,1.89-0.09,2.67C122.45,44.2,121.28,45.55,119.3,45.64z M119.81,40.27
				c0-0.54-0.03-1.08-0.06-1.59c-0.06-1.29-0.75-1.32-4.38-1.32c-1.17,0-2.37,0.03-3.54,0.06c-1.5,0.06-1.53,1.08-1.53,2.85
				c0,2.1,0.09,2.85,1.56,2.91c1.05,0.03,2.16,0.03,3.24,0.03c1.08,0,2.19,0,3.21-0.03C119.75,43.12,119.81,42.31,119.81,40.27z
				 M121.91,59.71c-3.36,0-5.64-0.03-5.76-2.97c-0.03-0.51-0.03-1.14-0.03-1.8c0-1.62,0.06-3.51,0.09-4.56
				c0.06-1.62,1.17-2.73,2.88-2.82c0.87-0.03,1.68-0.06,2.46-0.06c0.93,0,1.83,0.03,2.76,0.06c1.53,0.06,2.94,1.14,3,2.7
				c0.03,1.11,0.09,3.12,0.09,4.71C127.4,58.39,127.31,59.71,121.91,59.71z M124.52,50.95c-0.06-0.99-0.54-1.02-2.79-1.02
				c-2.04,0-2.73,0-2.79,1.02c-0.03,0.66-0.06,2.04-0.06,3.24c0,0.75,0,1.44,0.03,1.86c0.06,1.11,0.93,1.11,2.85,1.11
				c2.76,0,2.82-0.33,2.82-2.1C124.58,53.8,124.55,51.82,124.52,50.95z"/>
			<path class="st1" d="M133.7,48.82c-1.11,0-1.68-0.81-1.68-1.62s0.57-1.62,1.68-1.62h22.77c1.08,0,1.59,0.81,1.59,1.59
				c0,0.84-0.54,1.65-1.59,1.65H133.7z"/>
			<path class="st1" d="M175.43,55.69c-0.78,0-1.53-0.03-2.28-0.03c0.36,0.24,0.6,0.6,0.6,1.02c0,1.59-4.92,4.11-10.05,4.14
				c-1.02,0-1.53-0.66-1.53-1.32c0-0.63,0.45-1.23,1.41-1.23h0.03c0.03,0,0.09,0,0.12,0c2.97,0,6.03-1.08,7.32-2.31
				c0.15-0.15,0.3-0.24,0.45-0.33c-0.6,0-1.14-0.03-1.71-0.03c-2.04-0.03-3.12-1.02-3.21-2.34c-0.03-0.84-0.06-1.8-0.06-2.7
				c0-0.93,0.03-1.86,0.06-2.61c0.06-1.08,0.9-2.22,3.12-2.25c1.5-0.03,3.09-0.03,4.68-0.03c1.98,0,3.99,0,6.06,0.06
				c1.71,0.03,2.91,1.05,3,2.07c0.09,0.81,0.12,1.77,0.12,2.73c0,0.93-0.03,1.89-0.12,2.73c-0.09,1.23-1.29,2.34-3.15,2.37
				c-0.66,0-1.32,0.03-2.01,0.03c-0.03,0.39-0.03,0.78-0.03,1.2c0.06,1.02,0.99,1.14,2.94,1.14c2.94,0,3.87-0.57,3.87-2.13
				c0-0.9,0.69-1.32,1.41-1.32c0.69,0,1.59,0.39,1.59,1.47c0,3.78-3.15,4.26-6.87,4.26c-2.82,0-5.76,0-5.76-2.79V55.69z
				 M174.5,42.97c0.63,0,0.96,0.48,0.96,0.93c0,0.48-0.33,0.93-0.99,0.96c-0.72,0.03-2.34,0.06-3.99,0.06
				c-2.04,0-4.11-0.03-4.71-0.06c-1.44-0.09-2.46-0.75-2.52-2.25c-0.06-1.11-0.09-2.1-0.09-3.06s0.03-1.92,0.09-2.97
				c0.06-1.26,1.14-2.1,2.49-2.1c1.05,0,3.93,0,6.12,0c1.11,0,2.04,0,2.49,0c0.66,0,0.99,0.48,0.99,0.93c0,0.48-0.33,0.93-1.02,0.96
				h-3.45v1.08c0.72,0,1.29,0.03,1.65,0.03c1.89,0.09,1.95,0.93,1.95,2.37c0,1.44-0.39,1.95-3.6,1.95v1.23
				c1.56,0,3.03-0.03,3.6-0.06H174.5z M172.25,39.37c-0.03-0.3-0.18-0.42-0.6-0.45c0,0,0,0-6,0v1.32c1.59,0,4.8,0,5.88-0.03
				c0.54-0.03,0.69-0.12,0.72-0.45V39.37z M168.56,36.37h-2.04c-0.48,0.03-0.78,0.12-0.81,0.66l-0.03,0.42h2.88V36.37z
				 M168.56,41.83c-1.05,0-2.1,0-2.88-0.03l0.03,0.57c0.03,0.66,0.3,0.66,2.85,0.66V41.83z M180.83,50.08H169.1v1.14h11.73V50.08z
				 M180.77,48.55c-0.03-0.63-0.3-0.93-1.26-0.96c-1.68-0.03-3.69-0.06-5.64-0.06c-1.2,0-2.4,0-3.45,0.03
				c-0.9,0.03-1.23,0.48-1.26,0.99v0.09h11.61V48.55z M180.8,52.66h-11.64v0.15c0.03,1.02,0.27,1.05,6.51,1.05
				c4.5,0,5.01,0,5.1-1.05L180.8,52.66z M178.67,39.01c-1.17,1.59-1.62,2.13-2.37,2.13c-0.69,0-1.38-0.48-1.38-1.11
				c0-0.24,0.12-0.48,0.33-0.72c1.32-1.41,2.28-2.88,3.03-4.71c0.18-0.48,0.63-0.66,1.08-0.66c0.72,0,1.53,0.51,1.53,1.23
				c0,0.12-0.03,0.27-0.09,0.42c-0.18,0.39-0.39,0.78-0.63,1.17l6.33-0.03c0.81,0,1.2,0.57,1.2,1.14c0,0.6-0.39,1.17-1.2,1.17
				L178.67,39.01z M177.53,44.08c-0.84,0-1.26-0.6-1.26-1.17c0-0.57,0.42-1.14,1.26-1.14h8.46c0.81,0,1.2,0.57,1.2,1.14
				c0,0.6-0.39,1.17-1.2,1.17H177.53z"/>
			<path class="st1" d="M197.15,58.87c-0.57,0-1.17-0.36-1.47-1.29c-0.66-2.1-0.9-4.35-0.9-6.54c0-1.32,0.06-2.64,0.21-3.9
				c0.36-3.36,1.05-6.33,1.26-8.19c0.09-0.99,0.72-1.41,1.38-1.41c0.75,0,1.56,0.57,1.56,1.47c0,0.06-0.03,0.15-0.03,0.24
				c-0.21,1.29-0.75,3.39-1.17,5.58c-0.36,1.83-0.66,3.72-0.66,5.16c0,1.11,0.18,1.35,0.24,1.35c0.09,0,0.24-0.18,0.42-0.54
				c0.84-1.83,1.32-2.16,1.8-2.16c0.66,0,1.26,0.6,1.26,1.26c0,0.21-0.06,0.39-0.15,0.57c-1.59,2.85-2.37,5.22-2.37,5.91
				c0,0.36,0.09,0.72,0.09,1.08C198.62,58.24,197.93,58.87,197.15,58.87z M206.9,58.81c-2.46,0-4.65-1.8-4.65-3.75
				c0-2.28,2.79-3.21,5.55-3.21c0.9,0,1.86,0.12,2.79,0.3c0.03-0.27,0.03-0.54,0.03-0.84c0-0.51-0.03-1.05-0.09-1.68
				c-0.12-1.29-0.27-3.51-0.36-5.85c-3.12,0.66-4.56,1.41-5.4,2.19c-0.33,0.3-0.66,0.42-0.96,0.42c-0.72,0-1.38-0.66-1.38-1.44
				c0-0.66,0.42-2.19,7.68-3.81c0-1.26,0.03-2.46,0.09-3.42c0.06-0.87,0.72-1.23,1.38-1.23c0.69,0,1.41,0.42,1.41,1.17
				c0,0.06,0,0.09,0,0.15c-0.09,0.84-0.18,1.8-0.21,2.79c0.51-0.09,1.05-0.18,1.62-0.27c0.15-0.03,0.27-0.03,0.39-0.03
				c0.99,0,1.53,0.63,1.53,1.29c0,0.63-0.51,1.29-1.62,1.44c-0.69,0.09-1.35,0.18-1.95,0.27c0.03,2.22,0.12,4.41,0.27,6
				c0.12,1.11,0.24,2.22,0.24,3.33c0,0.12,0,0.21,0,0.33c1.32,0.54,2.52,1.26,3.45,2.1c0.39,0.36,0.57,0.81,0.57,1.23
				c0,0.78-0.54,1.68-1.53,1.68c-0.36,0-0.72-0.15-1.08-0.54c-0.63-0.66-1.35-1.26-2.16-1.74C211.37,57.49,209.12,58.81,206.9,58.81
				z M207.32,54.16c-2.34,0-2.46,0.75-2.46,1.02c0,0.36,0.39,1.11,1.71,1.11c1.17,0,2.58-0.69,3.33-1.74
				C209.03,54.31,208.16,54.16,207.32,54.16z"/>
			<path class="st1" d="M236.81,58.72c-6.21,0-9.54-2.88-9.54-4.59c0-0.87,0.72-1.62,1.56-1.62c0.45,0,0.93,0.24,1.35,0.75
				c1.44,1.74,3.57,2.28,5.7,2.28c1.86,0,3.72-0.39,5.1-0.75c0.24-0.06,0.48-0.09,0.69-0.09c1.05,0,1.62,0.72,1.62,1.53
				c0,0.78-0.54,1.59-1.68,1.89C240.11,58.51,238.46,58.72,236.81,58.72z M239,43.12c-4.08,0-7.35-1.53-8.13-1.92
				c-0.69-0.33-0.99-0.96-0.99-1.53c0-0.72,0.48-1.38,1.35-1.38c0.27,0,0.54,0.06,0.87,0.18c2.13,0.9,4.02,1.38,7.23,1.56
				c1.02,0.06,1.56,0.78,1.56,1.53C240.89,42.34,240.29,43.12,239,43.12z"/>
			<path class="st1" d="M264.11,38.56c0.54-0.42,1.05-0.6,1.47-0.6c0.75,0,1.29,0.51,1.29,1.23c0,0.93-0.93,1.89-3.66,3.36
				c-0.39,2.7-1.02,6.24-1.05,8.04c1.89-2.1,4.86-4.02,7.62-4.02c2.1,0,5.49,1.2,5.49,4.35c0,1.65-0.84,3.39-2.13,4.74
				c-3.18,3.36-8.22,4.26-8.91,4.26c-1.11,0-1.68-0.72-1.68-1.44c0-0.63,0.45-1.26,1.38-1.41c6.18-0.9,8.31-4.5,8.31-5.94
				c0-1.44-1.59-1.98-2.73-1.98c-2.4,0-5.43,2.43-6.9,4.71c-0.39,0.63-0.33,1.02-1.14,1.35c-0.18,0.06-0.39,0.12-0.63,0.12
				c-0.72,0-1.53-0.42-1.53-1.53c0-0.84,0.27-3.72,1.11-10.17c-0.63,0.15-1.23,0.24-1.8,0.24c-0.87,0-3-0.18-3-1.65
				c0-0.72,0.54-1.41,1.41-1.41c0.24,0,0.51,0.03,0.78,0.15c0.27,0.09,0.54,0.15,0.9,0.15c0.57,0,1.26-0.15,2.07-0.51
				c0.54-4.47,0.72-5.49,2.19-5.49c0.72,0,1.41,0.45,1.41,1.26c0,0.45-0.48,2.22-0.54,2.43L264.11,38.56z"/>
			<path class="st1" d="M292.37,60.16c-1.14,0-1.65-0.66-1.65-1.35c0-0.66,0.51-1.35,1.38-1.41c5.31-0.42,9.63-3.54,9.63-5.94
				c0-1.26-1.2-1.92-2.31-1.92c-2.31,0-6.57,3.78-7.02,4.32c-0.63,0.78-1.17,1.05-1.65,1.05c-0.66,0-2.49-0.66-2.49-4.92
				c0-1.32,0-1.41,0.54-3.9c0.15-0.75,0.3-1.62,0.3-2.52c0-0.06,0-0.15,0-0.24s0-0.18,0-0.27c0-1.95,0.9-2.94,2.97-4.08
				c0.72-0.39,1.59-0.75,1.59-1.11c0-0.24-0.33-0.48-1.14-0.75c-0.78-0.24-1.11-0.75-1.11-1.23c0-0.69,0.66-1.35,1.62-1.35
				c1.08,0,4.83,1.77,4.83,3.84c0,1.41-1.11,1.62-2.61,1.86c-0.48,0.09-1.02,0.39-1.44,0.6c-1.89,0.87-2.22,1.65-2.22,2.58
				c0,0.15,0.03,0.33,0.03,0.51c0,0.09,0,0.21,0,0.33c0,0.36-0.03,0.75-0.09,1.2c-0.51,3.36-0.51,3.54-0.51,3.96
				c0,0.09,0,1.29,0.36,1.29c0.06,0,0.15-0.03,0.27-0.09c0.6-0.36,1.74-1.14,3.06-1.89c1.83-1.02,3.33-1.62,4.83-1.62
				c2.61,0,5.19,1.68,5.19,4.38c0,1.92-1.32,4.23-4.5,6.3C297.2,59.77,292.49,60.16,292.37,60.16z"/>
		</g>
	</g>
</g>
<g>
</g>
<g>
</g>
<g>
</g>
<g>
</g>
<g>
</g>
<g>
</g>
</svg>
