<?xml version="1.0" encoding="utf-8"?>
<!-- Generator: Adobe Illustrator 29.8.2, SVG Export Plug-In . SVG Version: 9.03 Build 0)  -->
<svg version="1.1" id="レイヤー_1" xmlns="http://www.w3.org/2000/svg" xmlns:xlink="http://www.w3.org/1999/xlink" x="0px"
	 y="0px" viewBox="0 0 222.33 51.52" style="enable-background:new 0 0 222.33 51.52;" xml:space="preserve">
<style type="text/css">
	.st0{fill:#C06D1A;stroke:#C06D1A;stroke-width:2.7209;stroke-linecap:round;stroke-linejoin:round;stroke-miterlimit:10;}
	.st1{fill:#F0E8BD;}
</style>
<g>
	<path class="st0" d="M202.48,49.36H19.85c-9.9,0-18-8.1-18-18V20.19c0-9.9,8.1-18,18-18h182.64c9.9,0,18,8.1,18,18v11.17
		C220.48,41.26,212.38,49.36,202.48,49.36z"/>
	<g>
		<g>
			<path class="st1" d="M39.35,26.83c-0.12-1.21-0.19-2.24-0.2-3.18c-0.4,0.11-0.73,0.15-1,0.15c-0.91,0-1.54-0.37-1.54-0.93
				c0-0.36,0.26-0.68,0.71-0.68c0.14,0,0.31,0.03,0.48,0.11c0.12,0.05,0.25,0.08,0.4,0.08c0.32,0,0.82-0.12,0.97-0.19
				c0.03-0.63,0.09-1.27,0.19-1.92c0.08-0.51,0.45-0.74,0.82-0.74c0.39,0,0.77,0.25,0.77,0.7c0,0.08-0.02,0.15-0.03,0.23
				c-0.09,0.37-0.17,0.73-0.23,1.08c0.22-0.11,0.4-0.23,0.52-0.32c0.17-0.14,0.34-0.19,0.51-0.19c0.37,0,0.69,0.29,0.69,0.66
				c0,0.45-0.39,0.8-1.9,1.44c-0.02,0.28-0.02,0.56-0.02,0.83c0,0.6,0.03,1.25,0.08,1.98c1.47-0.99,2.7-1.48,4.01-1.48
				c1.62,0,2.32,0.97,2.32,2.07c0,1.73-1.73,3.55-3.61,3.55c-0.93,0-1.68-0.48-1.68-1.47c0-0.05,0.03-1.59,0.99-1.59
				c0.35,0,0.69,0.23,0.69,0.63c0,0.12-0.05,0.26-0.12,0.43c-0.06,0.12-0.09,0.23-0.09,0.31c0,0.2,0.14,0.29,0.35,0.29
				c0.74,0,1.96-1.05,1.96-2.07c0-0.46-0.32-0.87-1.24-0.87c-0.88,0-1.61,0.26-3.46,1.62c0.03,0.25,0.14,1.41,0.14,1.59
				c0,1.05-0.65,1.51-1.36,1.51c-0.74,0-1.37-0.51-1.37-0.91c0-0.05,0-0.08,0.02-0.12c-0.88,0.74-1.2,0.97-1.65,0.97
				c-0.51,0-0.82-0.42-0.82-0.82c0-0.23,0.11-0.46,0.36-0.59c0.91-0.48,1.91-1.14,2.9-1.87L39.35,26.83z M39.51,28.25
				c-0.26,0.22-0.65,0.56-1.05,0.91c0.05-0.02,0.09-0.02,0.14-0.02c0.11,0,0.23,0.03,0.39,0.08c0.09,0.03,0.19,0.05,0.28,0.05
				c0.19,0,0.31-0.11,0.31-0.34c0-0.03,0-0.06,0-0.09L39.51,28.25z M47.2,23.13c-0.23-0.28-0.69-0.57-1.22-0.57
				c-0.4,0-0.83,0.17-1.25,0.66c-0.12,0.14-0.31,0.22-0.49,0.22c-0.32,0-0.66-0.22-0.66-0.59c0-0.63,1.1-1.59,2.62-1.59
				c1.28,0,2.27,0.71,2.27,1.41c0,0.4-0.34,0.74-0.71,0.74C47.57,23.41,47.37,23.33,47.2,23.13z"/>
			<path class="st1" d="M51.59,31.47c-0.37,0-0.74-0.22-0.74-0.63c0-0.02,0-0.02,0-0.03c0.11-2.83,0.08-7.71,0.11-11.06
				c0-1.51,1.05-1.51,2.66-1.51c0.59,0,1.22,0,1.51,0.02c0.79,0.03,1.34,0.52,1.37,1.22c0.02,0.54,0.03,1.13,0.03,1.7
				c0,1.98-0.02,2.36-3.07,2.36c-0.4,0-0.79-0.02-1.07-0.03c0,0.4,0,0.87,0,1.37c0,1.65-0.02,3.75-0.06,5.93
				C52.33,31.25,51.96,31.47,51.59,31.47z M55.17,20.38c0-0.19-0.02-0.37-0.02-0.53c-0.03-0.43-0.11-0.48-1.34-0.48
				c-1.27,0-1.37,0.05-1.4,0.6c0,0.12-0.02,0.26-0.02,0.4H55.17z M52.39,21.4v0.99c0.22,0.01,0.68,0.01,1.14,0.01
				c1.5,0,1.61-0.06,1.62-0.49c0-0.15,0.02-0.32,0.02-0.51H52.39z M58.46,29.34c-0.35,0.03-0.85,0.05-1.36,0.05
				c-2.56,0-3.01-0.03-3.01-2.27c0-0.45,0.02-0.88,0.03-1.3c0.05-0.8,0.59-1.36,1.42-1.39c0.37-0.02,0.94-0.03,1.5-0.03
				c0.57,0,1.13,0.02,1.45,0.03c0.76,0.03,1.41,0.6,1.44,1.37c0.02,0.4,0.03,0.83,0.03,1.27c0,0.26,0,0.54-0.02,0.8
				C59.91,28.67,59.4,29.26,58.46,29.34z M58.55,26.56c0-0.97-0.09-0.99-1.54-0.99c-1.48,0-1.51,0.05-1.51,1.17
				c0,0.31,0,0.63,0.02,0.88c0.03,0.48,0.42,0.49,1.51,0.49c0.36,0,0.71,0,0.91-0.02C58.55,28.05,58.55,27.82,58.55,26.56z
				 M60.76,23.53c-1.82,0-3.1,0-3.15-1.36c-0.02-0.31-0.02-0.65-0.02-1c0-0.57,0.02-1.16,0.03-1.7c0.03-0.7,0.56-1.19,1.34-1.22
				c0.29-0.02,0.94-0.02,1.58-0.02c0.45,0,0.88,0,1.14,0.02c1.14,0.06,1.62,0.68,1.62,1.37c0,0.39,0,0.77,0,1.16
				c0,2.32,0.03,4.71,0.03,6.67c0,0.73,0.02,1.37,0.02,1.92c0,1.1-0.54,2.05-2.3,2.05c-1.08,0-1.64-0.14-1.64-0.82
				c0-0.36,0.22-0.68,0.6-0.68c0.05,0,0.08,0.02,0.12,0.02c0.29,0.05,0.57,0.09,0.82,0.09c0.51,0,0.9-0.19,0.91-0.94
				c0.02-0.62,0.03-1.28,0.03-1.95c0-1.02-0.02-2.05-0.02-3.01c0-0.22,0-0.43,0-0.63C61.61,23.51,61.21,23.53,60.76,23.53z
				 M61.85,20.38c0-0.99-0.03-1-1.45-1c-1.24,0-1.41,0-1.44,0.49c0,0.15-0.02,0.32-0.02,0.51H61.85z M61.89,21.4h-2.93
				c0,0.18,0.02,0.35,0.02,0.51c0.02,0.43,0.06,0.49,1.7,0.49c0.51,0,1,0,1.22-0.01V21.4z"/>
			<path class="st1" d="M71.12,29.41c-0.54,0-1.2-0.25-1.84-0.8c-1.56-1.34-2.01-3.44-2.25-4.65c-0.12-0.59-0.29-1.53-0.29-1.65
				c0-0.45,0.39-0.74,0.77-0.74c0.32,0,0.66,0.22,0.77,0.73c0.09,0.49,0.12,1.02,0.22,1.51c0.63,3.6,2.08,3.74,2.18,3.74
				c0.15,0,0.29-0.12,0.43-0.49c0.14-0.37,0.25-0.82,0.43-1.31c0.12-0.31,0.34-0.43,0.57-0.43c0.4,0,0.82,0.36,0.82,0.77
				c0,0.05-0.02,0.08-0.02,0.12c-0.09,0.51-0.4,1.51-0.45,1.99C72.39,28.97,71.85,29.41,71.12,29.41z M77.05,25.91
				c-0.14-1.04-0.99-2.3-2.02-3.12c-0.19-0.14-0.26-0.32-0.26-0.49c0-0.32,0.29-0.63,0.69-0.63c0.2,0,0.43,0.08,0.65,0.26
				c0.65,0.56,2.56,2.25,2.56,3.81c0,0.57-0.43,0.88-0.85,0.88C77.47,26.62,77.12,26.39,77.05,25.91z"/>
			<path class="st1" d="M93.69,24.41c-0.15,0-0.34-0.06-0.51-0.17c-1.39-0.91-3.38-2.78-4.73-4.29c-0.17-0.2-0.31-0.31-0.45-0.31
				s-0.26,0.11-0.42,0.31c-1.2,1.54-3.29,3.57-4.73,4.65c-0.25,0.18-0.48,0.26-0.69,0.26c-0.49,0-0.85-0.39-0.85-0.79
				c0-0.25,0.12-0.48,0.42-0.66c1.67-0.97,3.68-3.03,4.79-4.49c0.37-0.49,0.86-0.73,1.37-0.73c0.52,0,1.05,0.25,1.48,0.71
				c1.44,1.54,3.13,2.98,4.93,4.03c0.25,0.14,0.34,0.34,0.34,0.56C94.65,23.93,94.21,24.41,93.69,24.41z M90.69,30.93
				c-0.9,0.03-1.79,0.05-2.67,0.05c-0.86,0-1.73-0.02-2.59-0.05c-1.13-0.05-1.7-0.68-1.75-1.58c-0.02-0.28-0.02-0.6-0.02-0.93
				c0-0.43,0-0.88,0.02-1.24c0.03-0.73,0.48-1.48,1.71-1.53c0.65-0.02,1.44-0.03,2.27-0.03c1.02,0,2.12,0.02,3.1,0.03
				c0.94,0.02,1.59,0.69,1.64,1.39c0.02,0.32,0.03,0.71,0.03,1.11c0,0.39-0.02,0.79-0.03,1.17C92.36,30.17,91.73,30.9,90.69,30.93z
				 M85.54,23.96c-0.48,0-0.71-0.34-0.71-0.68c0-0.34,0.23-0.68,0.71-0.68h5.19c0.48,0,0.71,0.34,0.71,0.68
				c0,0.34-0.23,0.68-0.71,0.68H85.54z M90.93,28.38c0-1.16-0.03-1.44-0.74-1.45c-0.57-0.01-1.24-0.03-1.93-0.03
				c-0.83,0-1.68,0.02-2.41,0.03c-0.71,0.02-0.73,0.49-0.73,1.36c0,1.14,0.14,1.3,0.74,1.31c0.66,0.02,1.39,0.03,2.13,0.03
				c0.76,0,1.51-0.02,2.22-0.03C90.93,29.57,90.93,29.07,90.93,28.38z"/>
			<path class="st1" d="M101.75,24.24c0.53-0.39,2.47-1.78,4.48-1.78c1.73,0,3.6,1.28,3.6,3.01c0,2.93-4.9,4.93-5.68,4.93
				c-0.43,0-0.66-0.31-0.66-0.66c0-0.31,0.2-0.66,0.6-0.8c2.98-1.05,4.14-2.42,4.14-3.4c0-0.93-0.97-1.81-2.21-1.81
				c-0.8,0-2.79,0.46-4.48,2.3c-0.03,0.6-0.05,1.22-0.05,1.79c0,0.82,0.03,1.59,0.12,2.24c0,0.05,0.02,0.09,0.02,0.14
				c0,0.49-0.39,0.79-0.77,0.79c-0.35,0-0.71-0.26-0.76-0.85c-0.03-0.4-0.03-0.85-0.03-1.33c0-0.4,0-0.82,0.02-1.24
				c-0.42,0.57-0.83,1.21-1.25,1.88c-0.26,0.43-0.62,0.62-0.91,0.62c-0.4,0-0.73-0.29-0.73-0.68c0-0.31,0.2-0.57,0.63-1
				c0.42-0.59,0.96-1.31,1.51-2.07c0.29-0.4,0.59-0.82,0.86-1.24l0.05-0.53l0.03-0.32c-1.64,1.3-1.85,1.34-2.05,1.34
				c-0.51,0-0.74-0.36-0.74-0.73c0-0.34,0.22-0.7,0.59-0.77c0.31-0.06,1.79-1.11,2.35-1.53c0.11-1.19,0.2-2.22,0.23-2.89
				c0.02-0.49,0.37-0.71,0.73-0.71c0.37,0,0.74,0.25,0.74,0.66c0,0-0.08,0.96-0.2,2.02c0.05,0,0.11-0.01,0.15-0.01
				c0.37,0,0.7,0.18,0.7,0.6c0,0.22-0.09,0.53-0.34,0.91L101.75,24.24z"/>
			<path class="st1" d="M115.93,25.77c-0.28,0.14-0.51,0.25-0.71,0.36c-1.27,0.65-1.81,1-2.25,1.21c-0.12,0.06-0.25,0.08-0.35,0.08
				c-0.46,0-0.79-0.4-0.79-0.82c0-0.31,0.19-0.63,0.63-0.8c0.54-0.2,2.27-0.93,3.33-1.39c-0.25-1.95-0.29-2.32-0.34-2.64
				c0-0.05-0.02-0.09-0.02-0.12c0-0.46,0.37-0.73,0.76-0.73c0.36,0,0.74,0.25,0.82,0.76c0.08,0.48,0.09,1.07,0.12,1.76
				c0,0.12,0,0.25,0.02,0.39c1-0.42,2.21-0.86,3.38-1.22c0.08-0.46,0.12-0.9,0.19-1.24c0.11-0.63,0.09-0.57,0.22-1.22
				c0.08-0.4,0.43-0.6,0.77-0.6c0.39,0,0.76,0.23,0.76,0.66c0,0.08-0.09,0.51-0.34,1.48c-0.05,0.17-0.08,0.34-0.12,0.53
				c1.36-0.23,1.95-0.29,2.5-0.29c0.68,0,1.44,0.11,1.44,0.87c0,0.39-0.29,0.76-0.83,0.76c-0.06,0-0.12,0-0.2-0.02
				c-0.4-0.06-0.74-0.08-1.1-0.08c-0.39,0-1.25,0.03-2.08,0.2c-0.37,1.84-0.82,3.66-2.05,3.66c-0.83,0-1.36-1.02-1.36-1.33
				c0-0.36,0.31-0.7,0.63-0.7c0.19,0,0.37,0.09,0.52,0.34c0.06,0.11,0.12,0.15,0.19,0.15c0.17,0,0.42-0.56,0.63-1.78
				c-1.07,0.32-2.12,0.76-3.03,1.16c0.05,0.56,0.11,1.11,0.14,1.54c0.14,1.78,0.51,2.27,1.99,2.27c0.94,0,1.51-0.23,2.19-0.39
				c0.09-0.02,0.18-0.03,0.28-0.03c0.51,0,0.82,0.39,0.82,0.77c0,0.29-0.18,0.6-0.62,0.73c-0.74,0.22-1.58,0.31-2.32,0.31
				c-3.04,0-3.47-1.39-3.69-3.46L115.93,25.77z"/>
			<path class="st1" d="M130.25,30.71c-0.29,0-0.6-0.18-0.76-0.66c-0.34-1.08-0.46-2.24-0.46-3.37c0-0.68,0.03-1.36,0.11-2.01
				c0.18-1.73,0.54-3.26,0.65-4.22c0.05-0.51,0.37-0.73,0.71-0.73c0.39,0,0.8,0.29,0.8,0.76c0,0.03-0.02,0.08-0.02,0.12
				c-0.11,0.66-0.39,1.75-0.6,2.87c-0.19,0.94-0.34,1.92-0.34,2.66c0,0.57,0.09,0.7,0.12,0.7c0.05,0,0.12-0.09,0.22-0.28
				c0.43-0.94,0.68-1.11,0.93-1.11c0.34,0,0.65,0.31,0.65,0.65c0,0.11-0.03,0.2-0.08,0.29c-0.82,1.47-1.22,2.69-1.22,3.04
				c0,0.19,0.05,0.37,0.05,0.56C131.01,30.39,130.66,30.71,130.25,30.71z M135.27,30.68c-1.27,0-2.39-0.93-2.39-1.93
				c0-1.17,1.44-1.65,2.86-1.65c0.46,0,0.96,0.06,1.44,0.15c0.02-0.14,0.02-0.28,0.02-0.43c0-0.26-0.02-0.54-0.05-0.87
				c-0.06-0.66-0.14-1.81-0.18-3.01c-1.61,0.34-2.35,0.73-2.78,1.13c-0.17,0.15-0.34,0.22-0.49,0.22c-0.37,0-0.71-0.34-0.71-0.74
				c0-0.34,0.22-1.13,3.95-1.96c0-0.65,0.02-1.27,0.05-1.76c0.03-0.45,0.37-0.63,0.71-0.63c0.36,0,0.73,0.22,0.73,0.6
				c0,0.03,0,0.05,0,0.08c-0.05,0.43-0.09,0.93-0.11,1.44c0.26-0.05,0.54-0.09,0.83-0.14c0.08-0.02,0.14-0.02,0.2-0.02
				c0.51,0,0.79,0.33,0.79,0.66c0,0.32-0.26,0.66-0.83,0.74c-0.35,0.05-0.69,0.09-1,0.14c0.01,1.14,0.06,2.27,0.14,3.09
				c0.06,0.57,0.12,1.14,0.12,1.71c0,0.06,0,0.11,0,0.17c0.68,0.28,1.3,0.65,1.78,1.08c0.2,0.19,0.29,0.42,0.29,0.63
				c0,0.4-0.28,0.86-0.79,0.86c-0.19,0-0.37-0.08-0.56-0.28c-0.33-0.34-0.7-0.65-1.11-0.9C137.57,30,136.42,30.68,135.27,30.68z
				 M135.49,28.29c-1.2,0-1.27,0.39-1.27,0.53c0,0.18,0.2,0.57,0.88,0.57c0.6,0,1.33-0.36,1.71-0.9
				C136.37,28.36,135.92,28.29,135.49,28.29z"/>
			<path class="st1" d="M150.67,30.63c-3.2,0-4.91-1.48-4.91-2.36c0-0.45,0.37-0.83,0.8-0.83c0.23,0,0.48,0.12,0.69,0.39
				c0.74,0.9,1.84,1.17,2.93,1.17c0.96,0,1.92-0.2,2.63-0.39c0.12-0.03,0.25-0.05,0.35-0.05c0.54,0,0.83,0.37,0.83,0.79
				c0,0.4-0.28,0.82-0.86,0.97C152.37,30.53,151.52,30.63,150.67,30.63z M151.8,22.6c-2.1,0-3.78-0.79-4.18-0.99
				c-0.36-0.17-0.51-0.49-0.51-0.79c0-0.37,0.25-0.71,0.7-0.71c0.14,0,0.28,0.03,0.45,0.09c1.1,0.46,2.07,0.71,3.72,0.8
				c0.53,0.03,0.8,0.4,0.8,0.79C152.77,22.2,152.46,22.6,151.8,22.6z"/>
			<path class="st1" d="M164.73,20.26c0.28-0.22,0.54-0.31,0.76-0.31c0.39,0,0.66,0.26,0.66,0.63c0,0.48-0.48,0.97-1.88,1.73
				c-0.2,1.39-0.52,3.21-0.54,4.14c0.97-1.08,2.5-2.07,3.92-2.07c1.08,0,2.83,0.62,2.83,2.24c0,0.85-0.43,1.75-1.1,2.44
				c-1.64,1.73-4.23,2.19-4.59,2.19c-0.57,0-0.87-0.37-0.87-0.74c0-0.32,0.23-0.65,0.71-0.73c3.18-0.46,4.28-2.32,4.28-3.06
				s-0.82-1.02-1.41-1.02c-1.24,0-2.79,1.25-3.55,2.42c-0.2,0.32-0.17,0.52-0.59,0.69c-0.09,0.03-0.2,0.06-0.32,0.06
				c-0.37,0-0.79-0.22-0.79-0.79c0-0.43,0.14-1.92,0.57-5.23c-0.32,0.08-0.63,0.12-0.93,0.12c-0.45,0-1.54-0.09-1.54-0.85
				c0-0.37,0.28-0.73,0.73-0.73c0.12,0,0.26,0.02,0.4,0.08c0.14,0.05,0.28,0.08,0.46,0.08c0.29,0,0.65-0.08,1.07-0.26
				c0.28-2.3,0.37-2.83,1.13-2.83c0.37,0,0.73,0.23,0.73,0.65c0,0.23-0.25,1.14-0.28,1.25L164.73,20.26z"/>
			<path class="st1" d="M179.28,31.37c-0.59,0-0.85-0.34-0.85-0.69c0-0.34,0.26-0.7,0.71-0.73c2.73-0.22,4.96-1.82,4.96-3.06
				c0-0.65-0.62-0.99-1.19-0.99c-1.19,0-3.38,1.95-3.61,2.22c-0.32,0.4-0.6,0.54-0.85,0.54c-0.34,0-1.28-0.34-1.28-2.53
				c0-0.68,0-0.73,0.28-2.01c0.08-0.39,0.15-0.83,0.15-1.3c0-0.03,0-0.08,0-0.12c0-0.05,0-0.09,0-0.14c0-1,0.46-1.51,1.53-2.1
				c0.37-0.2,0.82-0.39,0.82-0.57c0-0.12-0.17-0.25-0.59-0.39c-0.4-0.12-0.57-0.39-0.57-0.63c0-0.36,0.34-0.7,0.83-0.7
				c0.56,0,2.49,0.91,2.49,1.98c0,0.73-0.57,0.83-1.34,0.96c-0.25,0.05-0.52,0.2-0.74,0.31c-0.97,0.45-1.14,0.85-1.14,1.33
				c0,0.08,0.02,0.17,0.02,0.26c0,0.05,0,0.11,0,0.17c0,0.19-0.02,0.39-0.05,0.62c-0.26,1.73-0.26,1.82-0.26,2.04
				c0,0.05,0,0.66,0.19,0.66c0.03,0,0.08-0.01,0.14-0.05c0.31-0.19,0.9-0.59,1.58-0.97c0.94-0.53,1.71-0.83,2.49-0.83
				c1.34,0,2.67,0.86,2.67,2.25c0,0.99-0.68,2.18-2.32,3.24C181.77,31.17,179.34,31.37,179.28,31.37z"/>
		</g>
	</g>
</g>
<g>
</g>
<g>
</g>
<g>
</g>
<g>
</g>
<g>
</g>
<g>
</g>
<g>
</g>
<g>
</g>
<g>
</g>
<g>
</g>
<g>
</g>
<g>
</g>
<g>
</g>
<g>
</g>
<g>
</g>
</svg>
