<?xml version="1.0" encoding="utf-8"?>
<!-- Generator: Adobe Illustrator 29.8.2, SVG Export Plug-In . SVG Version: 9.03 Build 0)  -->
<svg version="1.1" id="レイヤー_1" xmlns="http://www.w3.org/2000/svg" xmlns:xlink="http://www.w3.org/1999/xlink" x="0px"
	 y="0px" viewBox="0 0 1228.62 435.28" style="enable-background:new 0 0 1228.62 435.28;" xml:space="preserve">
<style type="text/css">
	.st0{clip-path:url(#SVGID_00000033335241474865584870000012363444046164630965_);}
	
		.st1{opacity:0.4;fill:none;stroke:#DCC224;stroke-width:3;stroke-linecap:round;stroke-linejoin:round;stroke-miterlimit:10;stroke-dasharray:25,15,5,15;enable-background:new    ;}
	.st2{clip-path:url(#SVGID_00000126291463821803042480000015742433235818507424_);}
	
		.st3{clip-path:url(#SVGID_00000066475634811979852610000000363203924989729950_);fill:url(#SVGID_00000120552717253811480930000002552404928034853567_);}
	
		.st4{clip-path:url(#SVGID_00000106122735400931617720000008920079762284494520_);fill:url(#SVGID_00000137122366997340316100000004732538811117984189_);}
	.st5{opacity:0.5;fill:#E6D89B;enable-background:new    ;}
	
		.st6{opacity:0.4;fill:none;stroke:#DCC224;stroke-width:2;stroke-linecap:round;stroke-linejoin:round;stroke-miterlimit:10;stroke-dasharray:20,13,5,13;enable-background:new    ;}
</style>
<g>
	<g>
		<g>
			<defs>
				<rect id="SVGID_1_" x="-21.27" y="0" width="1271.17" height="253.31"/>
			</defs>
			<clipPath id="SVGID_00000145756135127937717720000003477431607384580021_">
				<use xlink:href="#SVGID_1_"  style="overflow:visible;"/>
			</clipPath>
			<g style="clip-path:url(#SVGID_00000145756135127937717720000003477431607384580021_);">
				<circle class="st1" cx="776.33" cy="-25.39" r="86.41"/>
				<circle class="st1" cx="904.57" cy="86.34" r="86.41"/>
				<circle class="st1" cx="1057.68" cy="151.97" r="86.41"/>
				<circle class="st1" cx="1106.31" cy="81.32" r="86.41"/>
			</g>
		</g>
		<g>
			<defs>
				<rect id="SVGID_00000116225701963495573470000011518104204822327221_" x="-21.27" y="0" width="1271.17" height="253.31"/>
			</defs>
			<clipPath id="SVGID_00000119828626288160380400000014386107081741105339_">
				<use xlink:href="#SVGID_00000116225701963495573470000011518104204822327221_"  style="overflow:visible;"/>
			</clipPath>
			<g style="clip-path:url(#SVGID_00000119828626288160380400000014386107081741105339_);">
				<circle class="st1" cx="463.97" cy="-24.03" r="86.41"/>
				<circle class="st1" cx="362.23" cy="35.53" r="86.41"/>
				<circle class="st1" cx="176.59" cy="121.94" r="86.41"/>
				<circle class="st1" cx="90.18" cy="86.34" r="86.41"/>
			</g>
		</g>
		<g>
			<defs>
				<rect id="SVGID_00000047055201005304612770000009194087174261117363_" x="-21.27" y="0" width="1271.17" height="253.31"/>
			</defs>
			<clipPath id="SVGID_00000093872181981726812270000005289498044274804915_">
				<use xlink:href="#SVGID_00000047055201005304612770000009194087174261117363_"  style="overflow:visible;"/>
			</clipPath>
			
				<linearGradient id="SVGID_00000089576510412350206900000002923510911678305716_" gradientUnits="userSpaceOnUse" x1="448.63" y1="393.2249" x2="4.34" y2="393.2249" gradientTransform="matrix(1 0 0 -1 0 435.8898)">
				<stop  offset="0.6068" style="stop-color:#E6D89B;stop-opacity:0.8"/>
				<stop  offset="1" style="stop-color:#EDE5BB;stop-opacity:0.5"/>
			</linearGradient>
			
				<path style="clip-path:url(#SVGID_00000093872181981726812270000005289498044274804915_);fill:url(#SVGID_00000089576510412350206900000002923510911678305716_);" d="
				M362.23-97.39c-41.4,0-75.98,29.12-84.42,67.99c-7.37-1.6-15.01-2.45-22.86-2.45c-17.47,0-33.96,4.18-48.53,11.58
				c-18.02-33.91-53.71-57.01-94.79-57.01C52.37-77.27,4.34-29.24,4.34,30.01s48.03,107.28,107.28,107.28
				c17.47,0,33.96-4.18,48.53-11.58c18.02,33.91,53.71,57.01,94.79,57.01c59.25,0,107.28-48.03,107.28-107.28
				c47.72,0,86.41-38.69,86.41-86.41C448.64-58.7,409.96-97.39,362.23-97.39z"/>
		</g>
		<g>
			<defs>
				<rect id="SVGID_00000101817320528660604990000014583117853528327863_" x="-21.27" y="0" width="1271.17" height="253.31"/>
			</defs>
			<clipPath id="SVGID_00000181048825227148744890000006364414592021655945_">
				<use xlink:href="#SVGID_00000101817320528660604990000014583117853528327863_"  style="overflow:visible;"/>
			</clipPath>
			
				<linearGradient id="SVGID_00000040537397078837693360000007494471158256083390_" gradientUnits="userSpaceOnUse" x1="802.6571" y1="327.7416" x2="1167.2163" y2="538.22" gradientTransform="matrix(1 0 0 -1 0 435.8898)">
				<stop  offset="0.6068" style="stop-color:#E6D89B;stop-opacity:0.8"/>
				<stop  offset="1" style="stop-color:#EDE5BB;stop-opacity:0.5"/>
			</linearGradient>
			
				<path style="clip-path:url(#SVGID_00000181048825227148744890000006364414592021655945_);fill:url(#SVGID_00000040537397078837693360000007494471158256083390_);" d="
				M1117.45-81.09c-31.45,0-59.74,13.52-79.38,35.05c-13.17-16.57-33.49-27.2-56.3-27.2c-11.49,0-22.34,2.71-31.97,7.5
				c-16.95-37.02-54.32-62.74-97.7-62.74c-59.32,0-107.41,48.09-107.41,107.41s48.09,107.41,107.4,107.41
				c8.43,0,16.63-0.97,24.5-2.81c-1.46,7.06-2.23,14.38-2.23,21.88c0,59.32,48.09,107.41,107.41,107.41
				c51.14,0,93.93-35.74,104.76-83.61c9.79,2.94,20.17,4.53,30.92,4.53c59.32,0,107.41-48.09,107.41-107.41
				S1176.77-81.09,1117.45-81.09z"/>
		</g>
	</g>
	<g>
		<circle class="st5" cx="127.33" cy="224.41" r="52.24"/>
		<circle class="st5" cx="174.55" cy="318.18" r="26.12"/>
		<circle class="st6" cx="176.59" cy="253.31" r="26.12"/>
		<circle class="st6" cx="127.33" cy="375.17" r="26.12"/>
		<circle class="st6" cx="148.43" cy="405.83" r="26.12"/>
	</g>
	<g>
		<circle class="st6" cx="1083.8" cy="405.83" r="26.12"/>
		<circle class="st6" cx="1126.28" cy="262.33" r="26.12"/>
		<circle class="st6" cx="1075.35" cy="330.06" r="26.12"/>
		<circle class="st5" cx="1081.76" cy="238.36" r="42.04"/>
		<circle class="st5" cx="1056.66" cy="292.05" r="29.73"/>
	</g>
</g>
</svg>
