<?xml version="1.0" encoding="utf-8"?>
<!-- Generator: Adobe Illustrator 29.8.1, SVG Export Plug-In . SVG Version: 9.03 Build 0)  -->
<svg version="1.1" id="レイヤー_1" xmlns="http://www.w3.org/2000/svg" xmlns:xlink="http://www.w3.org/1999/xlink" x="0px"
	 y="0px" viewBox="0 0 60.56 41.78" style="enable-background:new 0 0 60.56 41.78;" xml:space="preserve">
<style type="text/css">
	.st0{fill:#F0E8BD;}
	.st1{fill:none;stroke:#E5C818;stroke-width:0.8218;stroke-linecap:round;stroke-linejoin:round;}
	.st2{fill:none;stroke:#E5C818;stroke-width:0.8218;stroke-linecap:round;stroke-linejoin:round;stroke-dasharray:1.3313,1.997;}
	
		.st3{fill:none;stroke:#E5C818;stroke-width:0.8218;stroke-linecap:round;stroke-linejoin:round;stroke-miterlimit:10;stroke-dasharray:1.3149,2.301;}
</style>
<g>
	<path class="st0" d="M57.83,23.06c-1.72-2.26-4.2-3.96-6.97-4.62l-1.64-0.39c-0.47-0.11-0.91-0.32-1.29-0.61l0,0
		c-0.55-0.42-1.01-0.95-1.32-1.57c-1.27-2.54-4.13-4.13-6.95-3.97c-0.85,0.05-1.71,0.25-2.54,0.13c-2.88-0.42-3.42-4.02-4.85-6.43
		c-1.95-3.29-6.25-4.65-10.02-4s-7.06,2.95-9.84,5.58C9.58,9.85,7,13.27,7.03,17.16c0.01,1.35,0.33,2.76-0.2,3.99
		c-0.58,1.35-1.84,1.67-3.12,3.02c0,0-0.04,0.04-0.13,0.12c-2.77,2.66-3.97,6.64-2.96,10.35c0.21,0.76,0.39,1.09,0.39,1.09
		c1.77,3.87,5.67,5.64,9.42,5.64h38.72l0,0c5.1,0,9.73-3.4,10.83-8.38c0.4-1.79,0.41-3.65-0.01-5.44
		C59.59,25.92,58.84,24.39,57.83,23.06z"/>
	<path class="st0" d="M49.33,0.52c-0.12-0.03-0.25-0.05-0.38-0.07c-2.17-0.29-4.43,1.35-4.81,3.51c-0.41,2.34,0.47,4.87,3.05,5.02
		c0.53,0.05,1.11-0.02,1.68-0.19c1.82-0.53,3.62-2,3.78-3.69C52.85,3.05,51.32,1,49.33,0.52z"/>
	<g>
		<g>
			<path class="st1" d="M47.11,18.83c-0.18-0.13-0.34-0.28-0.48-0.45"/>
			<path class="st2" d="M45.5,16.74c-0.07-0.11-0.14-0.21-0.21-0.32c-1.43-2.04-3.95-3.26-6.44-3.12c-0.38,0.02-0.76,0.07-1.15,0.11
				"/>
			<path class="st1" d="M36.71,13.46c-0.22-0.01-0.44-0.03-0.65-0.08"/>
		</g>
	</g>
	<line class="st3" x1="10.88" y1="39.96" x2="49.56" y2="39.96"/>
</g>
</svg>
