<?xml version="1.0" encoding="utf-8"?>
<!-- Generator: Adobe Illustrator 29.8.1, SVG Export Plug-In . SVG Version: 9.03 Build 0)  -->
<svg version="1.1" id="レイヤー_1" xmlns="http://www.w3.org/2000/svg" xmlns:xlink="http://www.w3.org/1999/xlink" x="0px"
	 y="0px" viewBox="0 0 46.2 41.7" style="enable-background:new 0 0 46.2 41.7;" xml:space="preserve">
<style type="text/css">
	.st0{fill:#C86F00;}
	.st1{fill:#F0E8BD;}
</style>
<g>
	<path class="st0" d="M14.73,38.27c9.26,5.62,21.37,3.06,27.47-6.04c6.27-9.36,3.78-22.02-5.56-28.28c-9.34-6.26-22-3.75-28.27,5.61
		C5.5,13.83,4.55,18.77,5.15,23.5c-1.24,0.66-2.35,1.6-3.19,2.84c-2.73,4.08-1.65,9.59,2.42,12.32
		C7.64,40.84,11.79,40.54,14.73,38.27"/>
	<g>
		<path class="st1" d="M16.51,19.96l2.97-0.32c0.59-0.06,1.04-0.57,1.03-1.16c-0.02-1.37,0.53-3.65,4.26-3.9
			c5.38-0.36,5.33,3.68,3.78,5.97c-1.3,1.93-5.53,0.29-6.68,4.14c-0.66,2.22,0.04,3.63,0.55,4.3c0.22,0.29,0.56,0.46,0.92,0.46h1.46
			c0.42,0,0.7-0.43,0.53-0.81c-0.65-1.43-1.53-4.24,1.84-3.9c3.84,0.38,9.39-2.71,7.53-10.19c-1.86-7.46-19.71-10.3-19.47,4.27
			C15.24,19.5,15.83,20.03,16.51,19.96z"/>
		<path class="st1" d="M23.87,31.16h1.11c0.4,0,0.74,0.31,0.77,0.71l0.1,1.37c0.03,0.45-0.32,0.83-0.77,0.83h-1.42
			c-0.47,0-0.83-0.42-0.76-0.88l0.21-1.37C23.17,31.44,23.49,31.16,23.87,31.16z"/>
	</g>
</g>
<g>
</g>
<g>
</g>
<g>
</g>
<g>
</g>
<g>
</g>
<g>
</g>
<g>
</g>
<g>
</g>
<g>
</g>
<g>
</g>
<g>
</g>
<g>
</g>
<g>
</g>
<g>
</g>
<g>
</g>
</svg>
