<?xml version="1.0" encoding="utf-8"?>
<!-- Generator: Adobe Illustrator 29.8.1, SVG Export Plug-In . SVG Version: 9.03 Build 0)  -->
<svg version="1.1" id="レイヤー_1" xmlns="http://www.w3.org/2000/svg" xmlns:xlink="http://www.w3.org/1999/xlink" x="0px"
	 y="0px" viewBox="0 0 287.73 52.76" style="enable-background:new 0 0 287.73 52.76;" xml:space="preserve">
<style type="text/css">
	.st0{fill:none;stroke:#F0E8BD;stroke-width:1.7363;stroke-linecap:round;stroke-linejoin:round;}
	.st1{fill:none;stroke:#F0E8BD;stroke-width:1.7363;stroke-linecap:round;stroke-linejoin:round;stroke-dasharray:1.6786,4.1964;}
	.st2{fill:none;stroke:#E5C818;stroke-width:1.7363;stroke-linecap:round;stroke-linejoin:round;stroke-miterlimit:10;}
	.st3{fill:none;stroke:#F0E8BD;stroke-width:1.7363;stroke-linecap:round;stroke-linejoin:round;stroke-miterlimit:10;}
	
		.st4{fill:none;stroke:#F0E8BD;stroke-width:1.7363;stroke-linecap:round;stroke-linejoin:round;stroke-miterlimit:10;stroke-dasharray:1.389,3.4726;}
	.st5{fill:none;stroke:#F0E8BD;stroke-width:1.7363;stroke-linecap:round;stroke-linejoin:round;stroke-dasharray:1.606,3.2121;}
	.st6{fill:#E5C818;}
</style>
<g>
	<g>
		<g>
			<g>
				<g>
					<g>
						<g>
							<g>
								<g>
									<path class="st0" d="M87.95,26.8c0.25-0.15,0.51-0.3,0.77-0.43"/>
									<path class="st1" d="M92.71,25.14c0.46-0.05,0.93-0.08,1.4-0.08c6.5,0,11.76,5.27,11.76,11.76c0,0.52-0.03,1.02-0.1,1.52"
										/>
									<path class="st0" d="M105.32,40.39c-0.09,0.28-0.19,0.56-0.3,0.83"/>
								</g>
							</g>
						</g>
						<path class="st2" d="M103.04,44.47c-2.16,2.52-5.36,4.11-8.93,4.11c-6.5,0-11.76-5.27-11.76-11.76c0-2.84,1.01-5.45,2.69-7.48
							"/>
					</g>
					<path class="st3" d="M82.3,20.91c0,0,35.73-12.31,30.94,27.68"/>
				</g>
			</g>
			<g>
				<line class="st3" x1="124.65" y1="18.69" x2="124.65" y2="48.58"/>
				<path class="st3" d="M124.97,22.7c0,0,13.07-5.49,15.29,9.36c1.11,7.46,0.09,16.67,0.09,16.67"/>
				<path class="st3" d="M141.12,22.6c0,0,10.65-5.84,14.36,9.47c2.55,10.52-0.52,16.67-0.52,16.67"/>
			</g>
			<g>
				<g>
					<path class="st3" d="M165.99,20.91c0,0,35.73-12.31,30.94,27.68"/>
					<g>
						<g>
							<g>
								<g>
									<path class="st0" d="M171.76,26.8c0.25-0.15,0.51-0.3,0.77-0.43"/>
									<path class="st1" d="M176.52,25.14c0.46-0.05,0.93-0.08,1.4-0.08c6.5,0,11.76,5.27,11.76,11.76c0,0.52-0.03,1.02-0.1,1.52"
										/>
									<path class="st0" d="M189.13,40.39c-0.09,0.28-0.19,0.56-0.3,0.83"/>
								</g>
							</g>
						</g>
						<path class="st2" d="M186.85,44.47c-2.16,2.52-5.36,4.11-8.93,4.11c-6.5,0-11.76-5.27-11.76-11.76c0-2.84,1.01-5.45,2.69-7.48
							"/>
					</g>
				</g>
			</g>
			<g>
				<g>
					<g>
						<g>
							<g>
								<path class="st0" d="M216.35,26.8c0.25-0.15,0.51-0.3,0.77-0.43"/>
								<path class="st1" d="M221.11,25.14c0.46-0.05,0.93-0.08,1.4-0.08c6.5,0,11.76,5.27,11.76,11.76c0,0.52-0.03,1.02-0.1,1.52"
									/>
								<path class="st0" d="M233.72,40.39c-0.09,0.28-0.19,0.56-0.3,0.83"/>
							</g>
						</g>
					</g>
					<path class="st2" d="M231.44,44.47c-2.16,2.52-5.36,4.11-8.93,4.11c-6.5,0-11.76-5.27-11.76-11.76c0-2.84,1.01-5.45,2.69-7.48"
						/>
				</g>
				<line class="st3" x1="208.22" y1="48.58" x2="208.22" y2="13.42"/>
			</g>
			<line class="st3" x1="244.35" y1="48.58" x2="244.35" y2="13.42"/>
			<path class="st3" d="M279.8,40.99c-2.21,4.5-6.84,7.59-12.18,7.59c-7.49,0-13.81-6.08-13.57-13.57
				c0.25-7.76,6.07-13.57,13.57-13.57c5.62,0,10.87,3.26,12.5,8.29c1.55,4.76-12.34,5.96-21.3,3.38"/>
		</g>
		<g>
			<path class="st3" d="M40.05,15.6c-1.11-1.47-1.7-3.65-2.68-5.31c-2.09-3.52-6.69-4.97-10.72-4.28s-7.55,3.15-10.52,5.96
				c-3.02,2.86-5.78,6.51-5.75,10.67c0.01,1.44,0.35,2.95-0.22,4.27c-0.62,1.44-2.12,2.24-3.34,3.23"/>
			<path class="st3" d="M3.94,42.51c1.89,4.14,6.06,6.03,10.07,6.03"/>
			<line class="st4" x1="14.01" y1="48.54" x2="55.43" y2="48.54"/>
			<path class="st3" d="M62.68,46.86c3.7-3.12,5.44-8.39,4.32-13.1s-5.04-8.63-9.75-9.75"/>
			<g>
				<g>
					<path class="st0" d="M54.11,22.95c-0.19-0.14-0.36-0.3-0.51-0.47"/>
					<path class="st5" d="M51.76,19.85c-1.57-1.87-4.05-2.96-6.49-2.82c-0.23,0.01-0.47,0.04-0.7,0.06"/>
					<path class="st0" d="M42.97,17.21c-0.23-0.01-0.46-0.03-0.69-0.08"/>
				</g>
			</g>
			<path class="st3" d="M54.78,13.79c0.11-0.03,0.23-0.06,0.34-0.09c1.95-0.56,3.87-2.14,4.04-3.94c0.22-2.33-1.64-4.67-3.96-4.99
				c-2.32-0.31-4.73,1.45-5.14,3.75c-0.34,1.93,0.14,3.98,1.65,4.9"/>
		</g>
	</g>
	<g>
		<path class="st6" d="M86.39,5.13c0,0.5-0.16,0.94-0.48,1.34c-0.32,0.4-0.75,0.67-1.28,0.81c-0.23,0.06-0.48,0.1-0.75,0.13
			c-0.27,0.03-0.58,0.04-0.91,0.04l0.01,2.15h-0.84c0-0.2,0.01-0.58,0.02-1.13c0.01-0.55,0.01-1.4,0.01-2.56c0-0.37,0-0.82,0-1.35
			c0-0.53-0.01-1.12-0.02-1.77c0.15,0,0.29-0.01,0.43-0.01c0.14,0,0.26,0,0.34,0c0.59,0,1.08,0.04,1.5,0.11
			c0.41,0.07,0.76,0.2,1.04,0.38c0.31,0.19,0.54,0.44,0.71,0.76C86.31,4.36,86.39,4.72,86.39,5.13z M85.53,5.13
			c0-0.35-0.08-0.65-0.24-0.89c-0.16-0.25-0.4-0.44-0.73-0.58c-0.2-0.09-0.42-0.14-0.66-0.17c-0.24-0.02-0.48-0.03-0.73-0.03
			c-0.03,0-0.06,0-0.09,0c-0.03,0-0.06,0-0.1,0c0,0.04,0,0.29-0.01,0.76c-0.01,0.47-0.01,0.84-0.01,1.12c0,0.25,0,0.55,0,0.89
			c0,0.34,0,0.54,0,0.58c0.03,0,0.07,0,0.11,0c0.04,0,0.07,0,0.1,0c0.23,0,0.47-0.02,0.72-0.05c0.26-0.03,0.48-0.09,0.66-0.17
			c0.32-0.14,0.56-0.32,0.73-0.56C85.45,5.8,85.53,5.5,85.53,5.13z"/>
		<path class="st6" d="M97.58,9.61h-0.78V9.03L96.8,9.02c-0.24,0.16-0.53,0.32-0.89,0.48c-0.35,0.16-0.7,0.25-1.04,0.25
			c-0.47,0-0.83-0.14-1.1-0.42c-0.26-0.28-0.4-0.67-0.4-1.17c0-0.27,0-0.59,0.01-0.97c0.01-0.37,0.01-0.65,0.01-0.82
			c0-0.31,0-0.69-0.01-1.14s-0.01-0.71-0.01-0.77h0.8c0,0.04,0,0.29-0.01,0.73c-0.01,0.44-0.01,0.8-0.01,1.06
			c0,0.23,0,0.53,0.01,0.88c0,0.35,0,0.6,0,0.74c0.01,0.4,0.08,0.69,0.21,0.88s0.35,0.28,0.64,0.28c0.3,0,0.63-0.08,0.99-0.24
			c0.36-0.16,0.63-0.31,0.8-0.43c0-0.04,0-0.23,0-0.56s0.01-0.75,0.01-1.25c0-0.36,0-0.78-0.01-1.28c-0.01-0.5-0.01-0.77-0.01-0.81
			h0.8c0,0.06,0,0.25-0.01,0.57c-0.01,0.32-0.01,0.88-0.01,1.66c0,0.44,0,0.82,0,1.15S97.58,8.77,97.58,9.61z"/>
		<path class="st6" d="M108.05,5.07c-0.19,0.04-0.47,0.14-0.86,0.28c-0.38,0.14-0.83,0.33-1.33,0.57c0,0.04,0,0.21,0,0.51
			c0,0.3-0.01,0.59-0.01,0.85c0,0.4,0,0.88,0.01,1.42c0.01,0.55,0.01,0.85,0.01,0.92h-0.8c0-0.06,0-0.25,0.01-0.57
			s0.01-0.87,0.01-1.65c0-0.31,0-0.76,0-1.32s-0.01-1.1-0.02-1.6h0.79v0.77l0.01,0c0.38-0.22,0.76-0.41,1.13-0.56
			c0.37-0.16,0.67-0.27,0.9-0.33L108.05,5.07z"/>
		<path class="st6" d="M118.67,6.85H115c0,0.36,0.08,0.69,0.23,0.99c0.15,0.3,0.38,0.55,0.69,0.75c0.2,0.13,0.42,0.22,0.67,0.28
			c0.25,0.06,0.55,0.09,0.91,0.09c0.19,0,0.37-0.01,0.53-0.02c0.16-0.01,0.26-0.02,0.3-0.02l-0.09,0.68c-0.03,0-0.12,0.01-0.27,0.02
			c-0.15,0.01-0.33,0.01-0.54,0.01c-0.54,0-1.01-0.07-1.42-0.21c-0.4-0.14-0.73-0.33-0.99-0.58c-0.22-0.21-0.41-0.47-0.56-0.79
			c-0.15-0.32-0.23-0.68-0.23-1.07c0-0.39,0.06-0.74,0.17-1.05c0.12-0.31,0.29-0.6,0.52-0.87c0.2-0.23,0.45-0.41,0.75-0.53
			c0.3-0.13,0.6-0.19,0.92-0.19c0.32,0,0.6,0.05,0.84,0.14c0.24,0.1,0.46,0.24,0.64,0.43c0.2,0.22,0.35,0.48,0.46,0.8
			C118.62,6.03,118.67,6.41,118.67,6.85z M117.89,6.28c-0.05-0.42-0.2-0.75-0.43-0.99c-0.23-0.24-0.54-0.36-0.92-0.36
			s-0.7,0.12-0.95,0.36c-0.25,0.24-0.43,0.57-0.53,0.98H117.89z"/>
		<path class="st6" d="M136.67,8.12c0,0.25-0.06,0.47-0.18,0.67s-0.28,0.36-0.48,0.48c-0.21,0.13-0.45,0.23-0.74,0.29
			s-0.6,0.1-0.94,0.1c-0.17,0-0.34-0.01-0.52-0.02c-0.18-0.02-0.28-0.02-0.3-0.03l-0.03-0.67c0.03,0,0.15,0.01,0.35,0.03
			c0.21,0.02,0.41,0.02,0.61,0.02c0.12,0,0.27-0.01,0.46-0.03s0.34-0.06,0.46-0.11c0.17-0.07,0.29-0.17,0.38-0.27
			c0.08-0.11,0.12-0.24,0.12-0.39c0-0.14-0.04-0.25-0.11-0.34s-0.17-0.17-0.29-0.25c-0.14-0.09-0.32-0.19-0.56-0.29
			c-0.24-0.1-0.43-0.2-0.59-0.3c-0.23-0.14-0.4-0.3-0.52-0.49c-0.12-0.19-0.18-0.41-0.18-0.66s0.07-0.48,0.21-0.68
			s0.32-0.36,0.55-0.48c0.2-0.11,0.42-0.18,0.66-0.22c0.24-0.04,0.48-0.05,0.71-0.05c0.21,0,0.38,0,0.51,0.01
			c0.13,0.01,0.21,0.01,0.23,0.01l0.06,0.68c-0.02,0-0.13-0.01-0.31-0.02c-0.19-0.01-0.39-0.02-0.61-0.02
			c-0.16,0-0.31,0.01-0.45,0.04c-0.14,0.03-0.26,0.07-0.36,0.12c-0.15,0.07-0.25,0.16-0.31,0.27c-0.06,0.1-0.09,0.21-0.09,0.31
			c0,0.14,0.04,0.25,0.13,0.35c0.09,0.1,0.19,0.18,0.31,0.25c0.14,0.08,0.33,0.18,0.57,0.29s0.42,0.2,0.52,0.27
			c0.24,0.15,0.42,0.32,0.54,0.5S136.67,7.87,136.67,8.12z"/>
		<path class="st6" d="M148.26,7.04c0,0.39-0.07,0.77-0.21,1.13c-0.14,0.36-0.34,0.67-0.61,0.92c-0.22,0.21-0.47,0.38-0.75,0.49
			c-0.27,0.11-0.58,0.17-0.93,0.17c-0.33,0-0.63-0.06-0.92-0.17c-0.28-0.11-0.54-0.27-0.76-0.49c-0.26-0.25-0.46-0.55-0.6-0.92
			s-0.21-0.75-0.21-1.15c0-0.39,0.06-0.75,0.18-1.08c0.12-0.33,0.31-0.62,0.56-0.88c0.23-0.24,0.49-0.42,0.79-0.55
			c0.3-0.13,0.62-0.19,0.96-0.19c0.35,0,0.67,0.06,0.96,0.18c0.29,0.12,0.54,0.29,0.77,0.53c0.26,0.27,0.45,0.57,0.57,0.9
			C148.19,6.27,148.26,6.64,148.26,7.04z M147.44,7.08c0-0.32-0.05-0.63-0.16-0.93s-0.26-0.56-0.48-0.76
			c-0.13-0.13-0.29-0.23-0.47-0.3s-0.37-0.1-0.57-0.1c-0.23,0-0.44,0.04-0.61,0.11c-0.17,0.07-0.34,0.19-0.49,0.35
			c-0.18,0.18-0.32,0.42-0.42,0.7c-0.1,0.29-0.16,0.58-0.16,0.89c0,0.35,0.05,0.66,0.16,0.95c0.1,0.29,0.27,0.54,0.51,0.75
			c0.13,0.12,0.29,0.21,0.46,0.27c0.17,0.06,0.36,0.09,0.55,0.09c0.21,0,0.41-0.04,0.6-0.11c0.18-0.07,0.35-0.18,0.49-0.33
			c0.19-0.2,0.34-0.43,0.44-0.71C147.39,7.67,147.44,7.38,147.44,7.08z"/>
		<path class="st6" d="M158.82,6.72c0,0.84,0,1.53-0.01,2.06c0,0.53,0,0.81,0,0.85c-0.03,0-0.19,0.02-0.47,0.04
			s-0.64,0.03-1.09,0.03c-0.28,0-0.56-0.03-0.84-0.08c-0.28-0.05-0.52-0.12-0.73-0.22c-0.27-0.12-0.49-0.3-0.66-0.51
			c-0.17-0.22-0.25-0.48-0.25-0.78c0-0.32,0.1-0.6,0.3-0.84c0.2-0.24,0.47-0.43,0.83-0.57c0.22-0.09,0.51-0.17,0.88-0.25
			s0.79-0.13,1.26-0.17c-0.02-0.26-0.09-0.48-0.2-0.65c-0.11-0.17-0.28-0.3-0.49-0.39c-0.15-0.06-0.32-0.1-0.5-0.13
			c-0.18-0.03-0.4-0.04-0.64-0.04c-0.15,0-0.28,0-0.39,0.01c-0.11,0.01-0.25,0.02-0.44,0.03l0.08-0.68c0.05,0,0.15-0.01,0.3-0.02
			c0.15-0.01,0.36-0.01,0.62-0.01c0.4,0,0.76,0.04,1.07,0.12c0.31,0.08,0.57,0.22,0.78,0.4c0.19,0.18,0.34,0.39,0.44,0.65
			C158.77,5.85,158.82,6.22,158.82,6.72z M158.04,7.94c0-0.12,0-0.26,0-0.44s0-0.38-0.01-0.61c-0.15,0.01-0.41,0.04-0.78,0.09
			s-0.69,0.13-0.94,0.23c-0.19,0.07-0.36,0.18-0.51,0.32c-0.15,0.14-0.22,0.32-0.22,0.53c0,0.23,0.06,0.42,0.19,0.56
			c0.12,0.14,0.3,0.25,0.51,0.32c0.17,0.06,0.35,0.1,0.55,0.12c0.2,0.03,0.41,0.04,0.64,0.04c0.07,0,0.15,0,0.25-0.01
			c0.1,0,0.2-0.01,0.31-0.01c0-0.02,0-0.14,0-0.34S158.04,8.28,158.04,7.94z"/>
		<path class="st6" d="M170.67,6.88c0,0.53-0.12,0.97-0.35,1.34c-0.23,0.37-0.55,0.66-0.95,0.87c-0.35,0.18-0.73,0.31-1.14,0.39
			c-0.41,0.07-0.81,0.11-1.18,0.11l0.02,2.33h-0.81c0-0.06,0.01-0.53,0.01-1.41c0-0.88,0.01-1.76,0.01-2.65c0-0.44,0-0.96,0-1.55
			c0-0.59-0.01-1.22-0.02-1.9c0.11,0,0.22,0,0.32,0c0.11,0,0.19,0,0.25,0c0.71,0,1.27,0.04,1.66,0.11c0.39,0.07,0.75,0.21,1.07,0.4
			c0.34,0.2,0.61,0.47,0.81,0.8C170.57,6.07,170.67,6.45,170.67,6.88z M169.85,6.91c0-0.33-0.08-0.62-0.23-0.87
			s-0.36-0.45-0.61-0.59c-0.23-0.13-0.49-0.22-0.78-0.28c-0.29-0.06-0.6-0.09-0.94-0.09c-0.04,0-0.07,0-0.11,0
			c-0.04,0-0.08,0-0.12,0c0,0.06,0,0.26-0.01,0.6s-0.01,0.94-0.01,1.78c0,0.18,0,0.42,0,0.74c0,0.32,0,0.57,0,0.76
			c0.32,0,0.64-0.03,0.96-0.09c0.32-0.06,0.58-0.14,0.79-0.24c0.35-0.17,0.61-0.39,0.79-0.68C169.76,7.67,169.85,7.32,169.85,6.91z"
			/>
		<path class="st6" d="M188.84,2.81c-0.02,0-0.05,0-0.11,0s-0.1,0-0.14,0c-0.32,0-0.57,0.03-0.75,0.09
			c-0.18,0.06-0.35,0.16-0.49,0.29c-0.11,0.1-0.2,0.25-0.26,0.43S187,4.01,187,4.24v0.23h1.73v0.6H187c0,1.1,0,2.12,0.01,3.06
			c0,0.94,0.01,1.44,0.01,1.49h-0.8c0-0.05,0-0.53,0.01-1.43s0.01-1.94,0.01-3.12h-1v-0.6h1V4.22c0-0.3,0.04-0.56,0.12-0.8
			c0.08-0.24,0.22-0.46,0.41-0.66c0.17-0.18,0.4-0.32,0.68-0.43c0.28-0.11,0.63-0.17,1.04-0.17c0.04,0,0.1,0,0.16,0
			c0.06,0,0.1,0,0.12,0L188.84,2.81z"/>
		<path class="st6" d="M199.87,7.04c0,0.39-0.07,0.77-0.21,1.13c-0.14,0.36-0.34,0.67-0.61,0.92c-0.22,0.21-0.47,0.38-0.75,0.49
			c-0.27,0.11-0.58,0.17-0.93,0.17c-0.33,0-0.63-0.06-0.92-0.17c-0.29-0.11-0.54-0.27-0.76-0.49c-0.26-0.25-0.46-0.55-0.6-0.92
			s-0.21-0.75-0.21-1.15c0-0.39,0.06-0.75,0.18-1.08c0.12-0.33,0.31-0.62,0.56-0.88c0.23-0.24,0.49-0.42,0.79-0.55
			c0.3-0.13,0.62-0.19,0.96-0.19c0.35,0,0.67,0.06,0.96,0.18c0.29,0.12,0.54,0.29,0.77,0.53c0.26,0.27,0.45,0.57,0.58,0.9
			C199.81,6.27,199.87,6.64,199.87,7.04z M199.06,7.08c0-0.32-0.05-0.63-0.16-0.93s-0.26-0.56-0.48-0.76
			c-0.13-0.13-0.29-0.23-0.47-0.3s-0.37-0.1-0.57-0.1c-0.23,0-0.44,0.04-0.61,0.11c-0.17,0.07-0.33,0.19-0.49,0.35
			c-0.18,0.18-0.32,0.42-0.42,0.7c-0.1,0.29-0.15,0.58-0.15,0.89c0,0.35,0.05,0.66,0.16,0.95s0.27,0.54,0.51,0.75
			c0.13,0.12,0.29,0.21,0.46,0.27c0.17,0.06,0.36,0.09,0.55,0.09c0.21,0,0.41-0.04,0.6-0.11c0.19-0.07,0.35-0.18,0.49-0.33
			c0.19-0.2,0.34-0.43,0.44-0.71C199.01,7.67,199.06,7.38,199.06,7.08z"/>
		<path class="st6" d="M209.88,5.07c-0.19,0.04-0.47,0.14-0.86,0.28c-0.38,0.14-0.83,0.33-1.33,0.57c0,0.04,0,0.21,0,0.51
			c0,0.3-0.01,0.59-0.01,0.85c0,0.4,0,0.88,0.01,1.42c0.01,0.55,0.01,0.85,0.01,0.92h-0.8c0-0.06,0-0.25,0.01-0.57
			s0.01-0.87,0.01-1.65c0-0.31,0-0.76,0-1.32c0-0.57-0.01-1.1-0.02-1.6h0.79v0.77l0,0c0.38-0.22,0.76-0.41,1.13-0.56
			c0.37-0.16,0.67-0.27,0.89-0.33L209.88,5.07z"/>
		<path class="st6" d="M229.16,7c0,0.56-0.14,1.03-0.41,1.43c-0.27,0.4-0.64,0.7-1.11,0.89c-0.3,0.13-0.65,0.22-1.03,0.28
			c-0.39,0.06-0.85,0.09-1.39,0.09c-0.07,0-0.15,0-0.23,0s-0.15,0-0.22,0c0-0.26,0.01-0.75,0.01-1.45c0.01-0.71,0.01-1.56,0.01-2.56
			c0-0.61,0-1.2,0-1.77c0-0.57-0.01-1.16-0.02-1.75h0.8l-0.01,2.34c0.7,0.01,1.25,0.07,1.67,0.19c0.42,0.12,0.77,0.28,1.04,0.48
			c0.29,0.21,0.51,0.47,0.66,0.77C229.08,6.25,229.16,6.6,229.16,7z M228.35,7.02c0-0.41-0.12-0.75-0.35-1.03s-0.53-0.48-0.9-0.6
			c-0.19-0.06-0.39-0.11-0.62-0.15s-0.45-0.05-0.68-0.05c-0.04,0-0.09,0-0.13,0s-0.08,0-0.11,0c0,0.07,0,0.34,0,0.81
			c0,0.47,0,0.85,0,1.15c0,0.57,0,0.97,0,1.2c0,0.23,0,0.47,0,0.71c0.37,0,0.71-0.03,1.02-0.08s0.58-0.14,0.8-0.26
			c0.33-0.17,0.57-0.4,0.73-0.68C228.27,7.74,228.35,7.4,228.35,7.02z"/>
		<path class="st6" d="M239.69,6.72c0,0.84,0,1.53,0,2.06c0,0.53,0,0.81,0,0.85c-0.03,0-0.19,0.02-0.47,0.04s-0.64,0.03-1.09,0.03
			c-0.28,0-0.56-0.03-0.84-0.08c-0.28-0.05-0.52-0.12-0.73-0.22c-0.27-0.12-0.49-0.3-0.66-0.51c-0.17-0.22-0.25-0.48-0.25-0.78
			c0-0.32,0.1-0.6,0.3-0.84c0.2-0.24,0.47-0.43,0.83-0.57c0.22-0.09,0.51-0.17,0.88-0.25s0.79-0.13,1.26-0.17
			c-0.02-0.26-0.09-0.48-0.2-0.65c-0.11-0.17-0.28-0.3-0.49-0.39c-0.15-0.06-0.32-0.1-0.5-0.13c-0.18-0.03-0.4-0.04-0.64-0.04
			c-0.15,0-0.28,0-0.39,0.01c-0.11,0.01-0.25,0.02-0.43,0.03l0.08-0.68c0.05,0,0.15-0.01,0.3-0.02c0.15-0.01,0.36-0.01,0.62-0.01
			c0.4,0,0.76,0.04,1.07,0.12c0.31,0.08,0.57,0.22,0.78,0.4c0.19,0.18,0.34,0.39,0.44,0.65C239.64,5.85,239.69,6.22,239.69,6.72z
			 M238.91,7.94c0-0.12,0-0.26,0-0.44s0-0.38,0-0.61c-0.15,0.01-0.41,0.04-0.78,0.09s-0.69,0.13-0.94,0.23
			c-0.19,0.07-0.36,0.18-0.51,0.32c-0.15,0.14-0.22,0.32-0.22,0.53c0,0.23,0.06,0.42,0.19,0.56s0.3,0.25,0.51,0.32
			c0.17,0.06,0.35,0.1,0.55,0.12c0.2,0.03,0.42,0.04,0.64,0.04c0.07,0,0.15,0,0.25-0.01c0.1,0,0.2-0.01,0.31-0.01
			c0-0.02,0-0.14,0-0.34C238.91,8.55,238.91,8.28,238.91,7.94z"/>
		<path class="st6" d="M251.53,7c0,0.56-0.14,1.03-0.41,1.43c-0.27,0.4-0.64,0.7-1.11,0.89c-0.3,0.13-0.65,0.22-1.03,0.28
			c-0.39,0.06-0.85,0.09-1.39,0.09c-0.08,0-0.15,0-0.23,0s-0.15,0-0.22,0c0-0.26,0.01-0.75,0.01-1.45c0-0.71,0.01-1.56,0.01-2.56
			c0-0.61,0-1.2,0-1.77c0-0.57-0.01-1.16-0.02-1.75h0.8l-0.02,2.34c0.7,0.01,1.25,0.07,1.67,0.19c0.42,0.12,0.77,0.28,1.05,0.48
			c0.29,0.21,0.51,0.47,0.66,0.77C251.45,6.25,251.53,6.6,251.53,7z M250.72,7.02c0-0.41-0.12-0.75-0.35-1.03s-0.53-0.48-0.9-0.6
			c-0.19-0.06-0.4-0.11-0.62-0.15c-0.22-0.04-0.45-0.05-0.68-0.05c-0.04,0-0.09,0-0.13,0c-0.05,0-0.08,0-0.12,0
			c0,0.07,0,0.34,0,0.81c0,0.47,0,0.85,0,1.15c0,0.57,0,0.97,0,1.2c0,0.23,0.01,0.47,0.01,0.71c0.37,0,0.71-0.03,1.02-0.08
			c0.31-0.06,0.57-0.14,0.8-0.26c0.33-0.17,0.57-0.4,0.73-0.68S250.72,7.4,250.72,7.02z"/>
		<path class="st6" d="M259.43,3.48h-0.89V2.61h0.89V3.48z M259.39,9.61h-0.8c0-0.05,0.01-0.39,0.01-1c0-0.61,0.01-1.12,0.01-1.52
			c0-0.35,0-0.73,0-1.15c0-0.42-0.01-0.91-0.02-1.47h0.8c-0.01,0.49-0.01,0.95-0.02,1.37s-0.01,0.8-0.01,1.14
			c0,0.79,0,1.42,0.01,1.9C259.38,9.36,259.39,9.6,259.39,9.61z"/>
		<path class="st6" d="M270.89,6.85h-3.68c0,0.36,0.08,0.69,0.23,0.99c0.15,0.3,0.38,0.55,0.69,0.75c0.2,0.13,0.42,0.22,0.67,0.28
			c0.25,0.06,0.55,0.09,0.91,0.09c0.19,0,0.37-0.01,0.53-0.02s0.26-0.02,0.3-0.02l-0.09,0.68c-0.03,0-0.12,0.01-0.27,0.02
			c-0.15,0.01-0.33,0.01-0.54,0.01c-0.54,0-1.02-0.07-1.42-0.21c-0.4-0.14-0.73-0.33-0.99-0.58c-0.22-0.21-0.41-0.47-0.56-0.79
			c-0.15-0.32-0.23-0.68-0.23-1.07c0-0.39,0.06-0.74,0.17-1.05s0.29-0.6,0.52-0.87c0.2-0.23,0.45-0.41,0.75-0.53
			c0.3-0.13,0.6-0.19,0.92-0.19c0.32,0,0.6,0.05,0.84,0.14c0.24,0.1,0.46,0.24,0.64,0.43c0.2,0.22,0.35,0.48,0.46,0.8
			C270.84,6.03,270.89,6.41,270.89,6.85z M270.11,6.28c-0.05-0.42-0.2-0.75-0.43-0.99c-0.23-0.24-0.54-0.36-0.92-0.36
			s-0.7,0.12-0.95,0.36c-0.25,0.24-0.43,0.57-0.53,0.98H270.11z"/>
		<path class="st6" d="M280.66,8.12c0,0.25-0.06,0.47-0.18,0.67c-0.12,0.2-0.28,0.36-0.48,0.48c-0.21,0.13-0.45,0.23-0.74,0.29
			c-0.28,0.07-0.6,0.1-0.94,0.1c-0.17,0-0.34-0.01-0.52-0.02c-0.18-0.02-0.28-0.02-0.3-0.03l-0.03-0.67c0.03,0,0.15,0.01,0.35,0.03
			c0.21,0.02,0.41,0.02,0.61,0.02c0.12,0,0.27-0.01,0.46-0.03s0.34-0.06,0.46-0.11c0.17-0.07,0.29-0.17,0.38-0.27
			c0.08-0.11,0.12-0.24,0.12-0.39c0-0.14-0.04-0.25-0.11-0.34s-0.17-0.17-0.29-0.25c-0.14-0.09-0.32-0.19-0.56-0.29
			c-0.24-0.1-0.43-0.2-0.59-0.3c-0.23-0.14-0.4-0.3-0.52-0.49c-0.12-0.19-0.18-0.41-0.18-0.66s0.07-0.48,0.21-0.68
			s0.32-0.36,0.55-0.48c0.2-0.11,0.42-0.18,0.67-0.22s0.48-0.05,0.71-0.05c0.21,0,0.38,0,0.51,0.01c0.13,0.01,0.21,0.01,0.23,0.01
			l0.06,0.68c-0.02,0-0.13-0.01-0.31-0.02c-0.19-0.01-0.39-0.02-0.61-0.02c-0.16,0-0.31,0.01-0.45,0.04
			c-0.14,0.03-0.26,0.07-0.36,0.12c-0.15,0.07-0.25,0.16-0.31,0.27c-0.06,0.1-0.09,0.21-0.09,0.31c0,0.14,0.04,0.25,0.13,0.35
			c0.09,0.1,0.19,0.18,0.31,0.25c0.14,0.08,0.33,0.18,0.57,0.29s0.42,0.2,0.53,0.27c0.24,0.15,0.42,0.32,0.54,0.5
			S280.66,7.87,280.66,8.12z"/>
	</g>
</g>
<g>
</g>
<g>
</g>
<g>
</g>
<g>
</g>
<g>
</g>
<g>
</g>
</svg>
