<?xml version="1.0" encoding="utf-8"?>
<!-- Generator: Adobe Illustrator 29.8.2, SVG Export Plug-In . SVG Version: 9.03 Build 0)  -->
<svg version="1.1" id="レイヤー_1" xmlns="http://www.w3.org/2000/svg" xmlns:xlink="http://www.w3.org/1999/xlink" x="0px"
	 y="0px" viewBox="0 0 158.64 100.51" style="enable-background:new 0 0 158.64 100.51;" xml:space="preserve">
<style type="text/css">
	.st0{fill:#878C1A;}
	.st1{fill:none;stroke:#C86F00;stroke-width:1.389;stroke-linecap:round;stroke-linejoin:round;}
	.st2{fill:none;stroke:#C86F00;stroke-width:1.389;stroke-linecap:round;stroke-linejoin:round;stroke-dasharray:0.6925,2.7701;}
	.st3{fill:none;stroke:#878C1A;stroke-width:1.389;stroke-linecap:round;stroke-linejoin:round;stroke-miterlimit:10;}
	.st4{fill:none;stroke:#C86F00;stroke-width:1.389;stroke-linecap:round;stroke-linejoin:round;stroke-miterlimit:10;}
	.st5{fill:none;stroke:#C86F00;stroke-width:1.7363;stroke-linecap:round;stroke-linejoin:round;stroke-miterlimit:10;}
	
		.st6{fill:none;stroke:#C86F00;stroke-width:1.7363;stroke-linecap:round;stroke-linejoin:round;stroke-miterlimit:10;stroke-dasharray:2.7781,4.8616;}
	.st7{fill:none;stroke:#C86F00;stroke-width:1.7363;stroke-linecap:round;stroke-linejoin:round;}
	.st8{fill:none;stroke:#C86F00;stroke-width:1.7363;stroke-linecap:round;stroke-linejoin:round;stroke-dasharray:2.8131,4.2197;}
</style>
<g id="サブ_00000037686407275616351640000011077160493668194457_">
	<g>
		<g>
			<path class="st0" d="M7.7,6.04c-0.28,0-0.53-0.09-0.76-0.27C6.71,5.59,6.56,5.35,6.48,5.04C6.44,4.91,6.42,4.77,6.4,4.62
				C6.39,4.46,6.38,4.29,6.38,4.1L5.16,4.11V3.63c0.12,0,0.33,0,0.64,0.01S6.6,3.64,7.25,3.64c0.21,0,0.46,0,0.76,0
				c0.3,0,0.64-0.01,1.01-0.01c0,0.08,0,0.16,0,0.24s0,0.14,0,0.19C9.02,4.4,9,4.68,8.96,4.92C8.92,5.15,8.84,5.35,8.74,5.5
				C8.63,5.68,8.49,5.81,8.31,5.9C8.14,6,7.93,6.04,7.7,6.04z M7.7,5.55c0.2,0,0.37-0.04,0.51-0.14C8.34,5.33,8.45,5.19,8.53,5
				c0.05-0.12,0.08-0.24,0.09-0.37c0.01-0.13,0.02-0.27,0.02-0.42c0-0.02,0-0.03,0-0.05c0-0.02,0-0.04,0-0.05
				c-0.02,0-0.17,0-0.43-0.01c-0.27,0-0.48-0.01-0.63-0.01c-0.14,0-0.31,0-0.5,0s-0.3,0-0.33,0c0,0.02,0,0.04,0,0.06s0,0.04,0,0.05
				c0,0.13,0.01,0.27,0.03,0.41S6.82,4.89,6.87,5c0.08,0.18,0.18,0.32,0.32,0.41S7.49,5.55,7.7,5.55z"/>
			<path class="st0" d="M5.16,11.47v-0.44h0.33l0,0c-0.09-0.13-0.18-0.3-0.27-0.5c-0.09-0.2-0.14-0.4-0.14-0.59
				c0-0.27,0.08-0.47,0.24-0.62C5.48,9.16,5.7,9.08,5.98,9.08c0.15,0,0.34,0,0.55,0c0.21,0,0.37,0,0.46,0c0.17,0,0.39,0,0.65-0.01
				c0.26,0,0.4-0.01,0.43-0.01v0.46c-0.02,0-0.16,0-0.42-0.01s-0.45-0.01-0.6-0.01c-0.13,0-0.3,0-0.5,0c-0.2,0-0.34,0-0.42,0
				c-0.23,0-0.39,0.04-0.5,0.12c-0.11,0.07-0.16,0.2-0.16,0.36c0,0.17,0.05,0.36,0.14,0.56c0.09,0.2,0.17,0.35,0.24,0.45
				c0.02,0,0.13,0,0.32,0c0.19,0,0.43,0,0.71,0c0.2,0,0.44,0,0.72-0.01c0.28,0,0.44-0.01,0.46-0.01v0.46c-0.03,0-0.14,0-0.32-0.01
				s-0.5-0.01-0.94-0.01c-0.25,0-0.46,0-0.65,0S5.64,11.46,5.16,11.47z"/>
			<path class="st0" d="M7.74,16.48C7.71,16.38,7.66,16.22,7.58,16c-0.08-0.22-0.19-0.47-0.32-0.75c-0.02,0-0.12,0-0.29,0
				s-0.33,0-0.48,0c-0.23,0-0.5,0-0.81,0.01c-0.31,0-0.48,0.01-0.52,0.01V14.8c0.03,0,0.14,0,0.32,0.01s0.49,0.01,0.94,0.01
				c0.18,0,0.43,0,0.75,0c0.32,0,0.62,0,0.91-0.01v0.45H7.64l0,0c0.12,0.22,0.23,0.43,0.32,0.64c0.09,0.21,0.15,0.38,0.18,0.51
				L7.74,16.48z"/>
			<path class="st0" d="M6.72,21.59v-2.08c-0.2,0-0.39,0.04-0.56,0.13c-0.17,0.08-0.31,0.21-0.42,0.39
				c-0.07,0.11-0.12,0.24-0.16,0.38c-0.04,0.14-0.05,0.31-0.05,0.51c0,0.11,0,0.21,0.01,0.3s0.01,0.15,0.01,0.17l-0.38-0.05
				c0-0.02-0.01-0.07-0.01-0.15c0-0.09-0.01-0.19-0.01-0.31c0-0.31,0.04-0.58,0.12-0.8c0.08-0.23,0.19-0.41,0.33-0.56
				c0.12-0.12,0.27-0.23,0.45-0.32s0.39-0.13,0.61-0.13c0.22,0,0.42,0.03,0.59,0.1s0.34,0.16,0.49,0.29
				c0.13,0.11,0.23,0.25,0.3,0.42c0.07,0.17,0.11,0.34,0.11,0.52c0,0.18-0.03,0.34-0.08,0.48c-0.05,0.14-0.14,0.26-0.25,0.36
				c-0.12,0.11-0.27,0.2-0.45,0.26S6.98,21.59,6.72,21.59z M7.05,21.14c0.24-0.03,0.43-0.11,0.56-0.24c0.14-0.13,0.2-0.31,0.2-0.52
				c0-0.22-0.07-0.4-0.21-0.54c-0.14-0.14-0.32-0.24-0.56-0.3V21.14z"/>
			<path class="st0" d="M6,29.96c-0.14,0-0.27-0.03-0.38-0.1s-0.2-0.16-0.27-0.27c-0.07-0.12-0.13-0.26-0.17-0.42
				s-0.06-0.34-0.06-0.53c0-0.09,0-0.19,0.01-0.29s0.01-0.16,0.02-0.17l0.38-0.02c0,0.02-0.01,0.08-0.02,0.2
				c-0.01,0.12-0.01,0.23-0.01,0.35c0,0.07,0.01,0.15,0.02,0.26c0.01,0.11,0.03,0.19,0.06,0.26c0.04,0.1,0.09,0.17,0.16,0.21
				c0.06,0.05,0.14,0.07,0.22,0.07c0.08,0,0.14-0.02,0.19-0.06c0.05-0.04,0.1-0.1,0.14-0.17c0.05-0.08,0.11-0.18,0.17-0.32
				c0.06-0.13,0.11-0.25,0.17-0.34c0.08-0.13,0.17-0.23,0.28-0.3c0.11-0.07,0.23-0.1,0.37-0.1c0.14,0,0.27,0.04,0.38,0.12
				c0.11,0.08,0.2,0.18,0.27,0.31c0.06,0.11,0.1,0.24,0.12,0.38c0.02,0.14,0.03,0.27,0.03,0.4c0,0.12,0,0.21-0.01,0.29
				c0,0.08-0.01,0.12-0.01,0.13L7.7,29.89c0-0.01,0-0.07,0.01-0.18s0.01-0.22,0.01-0.35c0-0.09-0.01-0.17-0.02-0.25
				c-0.01-0.08-0.04-0.15-0.07-0.2c-0.04-0.08-0.09-0.14-0.15-0.18s-0.12-0.05-0.17-0.05c-0.08,0-0.14,0.02-0.2,0.08
				s-0.1,0.11-0.14,0.18c-0.05,0.08-0.1,0.19-0.17,0.32s-0.11,0.24-0.15,0.3c-0.08,0.13-0.18,0.24-0.28,0.31
				C6.27,29.92,6.15,29.96,6,29.96z"/>
			<path class="st0" d="M6.62,35.61c-0.22,0-0.44-0.04-0.64-0.12c-0.2-0.08-0.38-0.19-0.52-0.34c-0.12-0.13-0.21-0.27-0.28-0.42
				s-0.1-0.33-0.1-0.53c0-0.18,0.03-0.36,0.09-0.52c0.06-0.16,0.15-0.31,0.28-0.43c0.14-0.15,0.31-0.26,0.52-0.34
				c0.21-0.08,0.42-0.12,0.65-0.12c0.22,0,0.42,0.03,0.61,0.1c0.19,0.07,0.35,0.17,0.5,0.32c0.13,0.13,0.24,0.28,0.31,0.45
				c0.07,0.17,0.11,0.35,0.11,0.54c0,0.2-0.03,0.38-0.1,0.54c-0.07,0.16-0.17,0.31-0.3,0.43c-0.15,0.15-0.32,0.25-0.51,0.33
				C7.05,35.57,6.84,35.61,6.62,35.61z M6.6,35.15c0.18,0,0.36-0.03,0.53-0.09s0.32-0.15,0.43-0.27c0.07-0.08,0.13-0.16,0.17-0.27
				c0.04-0.1,0.06-0.21,0.06-0.32c0-0.13-0.02-0.25-0.06-0.35c-0.04-0.1-0.11-0.19-0.2-0.28c-0.1-0.1-0.24-0.18-0.4-0.24
				s-0.33-0.09-0.5-0.09c-0.2,0-0.38,0.03-0.54,0.09c-0.16,0.06-0.31,0.16-0.42,0.29c-0.07,0.07-0.12,0.16-0.15,0.26
				c-0.04,0.1-0.05,0.2-0.05,0.31c0,0.12,0.02,0.23,0.06,0.34c0.04,0.1,0.1,0.2,0.18,0.28c0.11,0.11,0.25,0.19,0.4,0.25
				C6.26,35.12,6.42,35.15,6.6,35.15z"/>
			<path class="st0" d="M6.8,40.68c-0.48,0-0.86,0-1.16,0s-0.46,0-0.48,0c0-0.02-0.01-0.11-0.02-0.27
				c-0.01-0.16-0.02-0.36-0.02-0.62c0-0.16,0.01-0.32,0.04-0.48c0.03-0.16,0.07-0.3,0.12-0.41c0.07-0.15,0.17-0.28,0.29-0.37
				s0.27-0.14,0.44-0.14c0.18,0,0.34,0.06,0.47,0.17c0.13,0.11,0.24,0.27,0.32,0.47c0.05,0.12,0.1,0.29,0.14,0.5
				c0.04,0.21,0.07,0.45,0.09,0.71c0.15-0.01,0.27-0.05,0.37-0.11c0.1-0.06,0.17-0.16,0.22-0.28c0.04-0.08,0.06-0.18,0.07-0.28
				c0.01-0.1,0.02-0.23,0.02-0.36c0-0.09,0-0.16-0.01-0.22s-0.01-0.14-0.01-0.25l0.38,0.05c0,0.03,0,0.09,0.01,0.17
				s0.01,0.2,0.01,0.35c0,0.23-0.02,0.43-0.07,0.61c-0.05,0.18-0.12,0.33-0.23,0.44c-0.1,0.11-0.22,0.19-0.37,0.25
				C7.29,40.65,7.08,40.68,6.8,40.68z M6.11,40.24c0.07,0,0.15,0,0.25,0s0.21,0,0.35,0c0-0.08-0.02-0.23-0.05-0.44
				c-0.03-0.21-0.07-0.39-0.13-0.53c-0.04-0.11-0.1-0.2-0.18-0.29c-0.08-0.08-0.18-0.12-0.3-0.12c-0.13,0-0.24,0.04-0.32,0.11
				s-0.14,0.17-0.18,0.29c-0.03,0.09-0.06,0.2-0.07,0.31s-0.02,0.23-0.02,0.36c0,0.04,0,0.09,0,0.14s0,0.11,0.01,0.18
				c0.01,0,0.08,0,0.19,0S5.91,40.24,6.11,40.24z"/>
			<path class="st0" d="M6.71,46.48c-0.3,0-0.55-0.07-0.76-0.2c-0.21-0.13-0.37-0.31-0.49-0.54c-0.1-0.2-0.18-0.41-0.22-0.65
				c-0.04-0.23-0.06-0.46-0.06-0.67l-1.32,0.01v-0.46c0.03,0,0.3,0,0.8,0.01s1,0,1.5,0c0.25,0,0.54,0,0.88,0
				c0.33,0,0.69,0,1.08-0.01c0,0.06,0,0.12,0,0.18s0,0.11,0,0.14c0,0.4-0.02,0.72-0.06,0.94C8,45.47,7.92,45.67,7.81,45.85
				c-0.11,0.19-0.27,0.35-0.45,0.46C7.17,46.42,6.95,46.48,6.71,46.48z M6.69,46.02c0.19,0,0.35-0.04,0.5-0.13
				c0.14-0.09,0.25-0.2,0.34-0.35c0.07-0.13,0.13-0.28,0.16-0.44c0.03-0.16,0.05-0.34,0.05-0.53c0-0.02,0-0.04,0-0.06s0-0.04,0-0.07
				c-0.03,0-0.15,0-0.34,0c-0.19,0-0.53,0-1.01,0c-0.1,0-0.24,0-0.42,0s-0.32,0-0.43,0c0,0.18,0.02,0.36,0.05,0.54
				c0.03,0.18,0.08,0.33,0.14,0.45c0.1,0.2,0.22,0.35,0.38,0.45C6.26,45.97,6.46,46.02,6.69,46.02z"/>
			<path class="st0" d="M9.02,54.95c0-0.01,0-0.03,0-0.06c0-0.03,0-0.06,0-0.08c0-0.18-0.02-0.32-0.05-0.43
				c-0.03-0.1-0.09-0.2-0.17-0.28c-0.06-0.06-0.14-0.11-0.25-0.15S8.33,53.9,8.21,53.9H8.08v0.98H7.74V53.9c-0.62,0-1.2,0-1.73,0
				s-0.82,0-0.85,0v-0.46c0.03,0,0.3,0,0.81,0.01c0.51,0,1.1,0.01,1.77,0.01V52.9h0.34v0.57h0.14c0.17,0,0.32,0.02,0.45,0.07
				c0.13,0.04,0.26,0.12,0.38,0.23c0.1,0.1,0.18,0.22,0.24,0.38s0.09,0.36,0.09,0.59c0,0.03,0,0.05,0,0.09c0,0.03,0,0.06,0,0.07
				L9.02,54.95z"/>
			<path class="st0" d="M6.62,60.28c-0.22,0-0.44-0.04-0.64-0.12c-0.2-0.08-0.38-0.19-0.52-0.34c-0.12-0.13-0.21-0.27-0.28-0.42
				s-0.1-0.33-0.1-0.53c0-0.18,0.03-0.36,0.09-0.52c0.06-0.16,0.15-0.31,0.28-0.43c0.14-0.15,0.31-0.26,0.52-0.34
				c0.21-0.08,0.42-0.12,0.65-0.12c0.22,0,0.42,0.03,0.61,0.1c0.19,0.07,0.35,0.17,0.5,0.32c0.13,0.13,0.24,0.28,0.31,0.45
				c0.07,0.17,0.11,0.35,0.11,0.54c0,0.2-0.03,0.38-0.1,0.54c-0.07,0.16-0.17,0.31-0.3,0.43c-0.15,0.15-0.32,0.25-0.51,0.33
				C7.05,60.24,6.84,60.28,6.62,60.28z M6.6,59.82c0.18,0,0.36-0.03,0.53-0.09s0.32-0.15,0.43-0.27c0.07-0.08,0.13-0.16,0.17-0.27
				c0.04-0.1,0.06-0.21,0.06-0.32c0-0.13-0.02-0.25-0.06-0.35c-0.04-0.1-0.11-0.19-0.2-0.28c-0.1-0.1-0.24-0.18-0.4-0.24
				s-0.33-0.09-0.5-0.09c-0.2,0-0.38,0.03-0.54,0.09c-0.16,0.06-0.31,0.16-0.42,0.29c-0.07,0.07-0.12,0.16-0.15,0.26
				c-0.04,0.1-0.05,0.2-0.05,0.31c0,0.12,0.02,0.23,0.06,0.34c0.04,0.1,0.1,0.2,0.18,0.28c0.11,0.11,0.25,0.19,0.4,0.25
				C6.26,59.79,6.42,59.82,6.6,59.82z"/>
			<path class="st0" d="M7.74,65.04c-0.03-0.11-0.08-0.27-0.16-0.49c-0.08-0.22-0.19-0.47-0.32-0.75c-0.02,0-0.12,0-0.29,0
				s-0.33,0-0.48,0c-0.23,0-0.5,0-0.81,0.01c-0.31,0-0.48,0.01-0.52,0.01v-0.46c0.03,0,0.14,0,0.32,0.01s0.49,0.01,0.94,0.01
				c0.18,0,0.43,0,0.75,0c0.32,0,0.62,0,0.91-0.01v0.45H7.64l0,0c0.12,0.22,0.23,0.43,0.32,0.64c0.09,0.21,0.15,0.38,0.18,0.51
				L7.74,65.04z"/>
			<path class="st0" d="M6.64,74.13c-0.32,0-0.59-0.08-0.81-0.23c-0.23-0.16-0.4-0.36-0.51-0.63c-0.07-0.17-0.13-0.37-0.16-0.59
				c-0.03-0.22-0.05-0.48-0.05-0.79c0-0.04,0-0.09,0-0.13c0-0.04,0-0.09,0-0.13c0.15,0,0.42,0,0.82,0.01s0.88,0,1.45,0
				c0.35,0,0.68,0,1.01,0c0.32,0,0.66,0,0.99-0.01v0.46l-1.33-0.01c0,0.39-0.04,0.71-0.1,0.95c-0.07,0.24-0.16,0.43-0.27,0.59
				C7.56,73.79,7.42,73.92,7.24,74C7.07,74.09,6.87,74.13,6.64,74.13z M6.63,73.67c0.23,0,0.43-0.07,0.58-0.2
				c0.16-0.13,0.27-0.3,0.34-0.51c0.04-0.11,0.06-0.22,0.08-0.35c0.02-0.12,0.03-0.25,0.03-0.39c0-0.03,0-0.05,0-0.08
				c0-0.03,0-0.05,0-0.07c-0.04,0-0.2,0-0.46,0c-0.26,0-0.48,0-0.65,0c-0.32,0-0.55,0-0.68,0c-0.13,0-0.27,0-0.4,0
				c0,0.21,0.02,0.41,0.05,0.58c0.03,0.17,0.08,0.33,0.15,0.45c0.1,0.18,0.23,0.32,0.39,0.41C6.22,73.63,6.41,73.67,6.63,73.67z"/>
			<path class="st0" d="M6.8,79.19c-0.48,0-0.86,0-1.16,0s-0.46,0-0.48,0c0-0.02-0.01-0.11-0.02-0.27
				c-0.01-0.16-0.02-0.36-0.02-0.62c0-0.16,0.01-0.32,0.04-0.48c0.03-0.16,0.07-0.3,0.12-0.41c0.07-0.15,0.17-0.28,0.29-0.37
				c0.12-0.09,0.27-0.14,0.44-0.14c0.18,0,0.34,0.06,0.47,0.17s0.24,0.27,0.32,0.47c0.05,0.12,0.1,0.29,0.14,0.5
				c0.04,0.21,0.07,0.45,0.09,0.71c0.15-0.01,0.27-0.05,0.37-0.11c0.1-0.06,0.17-0.16,0.22-0.28c0.04-0.08,0.06-0.18,0.07-0.28
				c0.01-0.1,0.02-0.23,0.02-0.36c0-0.09,0-0.16-0.01-0.22s-0.01-0.14-0.01-0.25l0.38,0.05c0,0.03,0,0.09,0.01,0.17
				c0,0.09,0.01,0.2,0.01,0.35c0,0.23-0.02,0.43-0.07,0.61c-0.05,0.18-0.12,0.33-0.23,0.44c-0.1,0.11-0.22,0.19-0.37,0.25
				C7.29,79.16,7.08,79.19,6.8,79.19z M6.11,78.75c0.07,0,0.15,0,0.25,0s0.21,0,0.35,0c0-0.08-0.02-0.23-0.05-0.44
				c-0.03-0.21-0.07-0.39-0.13-0.53c-0.04-0.11-0.1-0.2-0.18-0.29c-0.08-0.08-0.18-0.12-0.3-0.12c-0.13,0-0.24,0.04-0.32,0.11
				s-0.14,0.17-0.18,0.29c-0.03,0.09-0.06,0.2-0.07,0.31s-0.02,0.24-0.02,0.36c0,0.04,0,0.08,0,0.14s0,0.11,0.01,0.18
				c0.01,0,0.08,0,0.19,0S5.91,78.75,6.11,78.75z"/>
			<path class="st0" d="M6.64,84.98c-0.32,0-0.59-0.08-0.81-0.23c-0.23-0.16-0.4-0.36-0.51-0.63c-0.07-0.17-0.13-0.37-0.16-0.59
				c-0.03-0.22-0.05-0.48-0.05-0.79c0-0.04,0-0.09,0-0.13c0-0.04,0-0.09,0-0.13c0.15,0,0.42,0,0.82,0.01s0.88,0,1.45,0
				c0.35,0,0.68,0,1.01,0c0.32,0,0.66,0,0.99-0.01v0.46l-1.33-0.01c0,0.39-0.04,0.71-0.1,0.95c-0.07,0.24-0.16,0.43-0.27,0.59
				c-0.12,0.16-0.26,0.29-0.44,0.37C7.07,84.94,6.87,84.98,6.64,84.98z M6.63,84.52c0.23,0,0.43-0.07,0.58-0.2
				c0.16-0.13,0.27-0.3,0.34-0.51c0.04-0.11,0.06-0.22,0.08-0.35c0.02-0.12,0.03-0.25,0.03-0.39c0-0.03,0-0.05,0-0.08
				c0-0.03,0-0.05,0-0.07c-0.04,0-0.2,0-0.46,0c-0.26,0-0.48,0-0.65,0c-0.32,0-0.55,0-0.68,0c-0.13,0-0.27,0-0.4,0
				c0,0.21,0.02,0.41,0.05,0.58c0.03,0.17,0.08,0.33,0.15,0.45c0.1,0.18,0.23,0.32,0.39,0.41C6.22,84.47,6.41,84.52,6.63,84.52z"/>
			<path class="st0" d="M5.16,88.52v-0.46c0.03,0,0.22,0,0.57,0.01c0.35,0,0.64,0,0.86,0c0.2,0,0.42,0,0.65,0s0.51,0,0.83-0.01v0.46
				c-0.28,0-0.54-0.01-0.78-0.01s-0.46,0-0.64,0c-0.45,0-0.81,0-1.08,0.01S5.17,88.52,5.16,88.52z M8.64,88.54v-0.51h0.5v0.51H8.64z
				"/>
			<path class="st0" d="M6.72,94.12v-2.08c-0.2,0-0.39,0.04-0.56,0.13c-0.17,0.08-0.31,0.21-0.42,0.39
				c-0.07,0.11-0.12,0.24-0.16,0.38c-0.04,0.14-0.05,0.31-0.05,0.51c0,0.11,0,0.21,0.01,0.3c0.01,0.09,0.01,0.15,0.01,0.17
				l-0.38-0.05c0-0.02-0.01-0.07-0.01-0.15c0-0.09-0.01-0.19-0.01-0.31c0-0.31,0.04-0.58,0.12-0.8c0.08-0.23,0.19-0.42,0.33-0.56
				c0.12-0.12,0.27-0.23,0.45-0.32c0.18-0.09,0.39-0.13,0.61-0.13c0.22,0,0.42,0.03,0.59,0.1s0.34,0.16,0.49,0.29
				c0.13,0.11,0.23,0.25,0.3,0.42c0.07,0.17,0.11,0.34,0.11,0.52c0,0.18-0.03,0.34-0.08,0.48c-0.05,0.14-0.14,0.26-0.25,0.36
				c-0.12,0.11-0.27,0.2-0.45,0.26S6.98,94.12,6.72,94.12z M7.05,93.68c0.24-0.03,0.43-0.11,0.56-0.24c0.14-0.13,0.2-0.31,0.2-0.52
				s-0.07-0.39-0.21-0.54c-0.14-0.14-0.32-0.24-0.56-0.3V93.68z"/>
			<path class="st0" d="M6,98.74c-0.14,0-0.27-0.04-0.38-0.1s-0.2-0.16-0.27-0.27c-0.07-0.12-0.13-0.26-0.17-0.42
				c-0.04-0.16-0.06-0.34-0.06-0.53c0-0.09,0-0.19,0.01-0.29c0.01-0.1,0.01-0.16,0.02-0.17l0.38-0.02c0,0.02-0.01,0.08-0.02,0.2
				c-0.01,0.12-0.01,0.23-0.01,0.35c0,0.07,0.01,0.15,0.02,0.26c0.01,0.11,0.03,0.19,0.06,0.26c0.04,0.1,0.09,0.17,0.16,0.21
				c0.06,0.05,0.14,0.07,0.22,0.07c0.08,0,0.14-0.02,0.19-0.06c0.05-0.04,0.1-0.1,0.14-0.17c0.05-0.08,0.11-0.18,0.17-0.32
				s0.11-0.25,0.17-0.34c0.08-0.13,0.17-0.23,0.28-0.29c0.11-0.07,0.23-0.1,0.37-0.1c0.14,0,0.27,0.04,0.38,0.12
				c0.11,0.08,0.2,0.18,0.27,0.31c0.06,0.11,0.1,0.24,0.12,0.38c0.02,0.14,0.03,0.27,0.03,0.4c0,0.12,0,0.21-0.01,0.29
				c0,0.08-0.01,0.12-0.01,0.13L7.7,98.67c0-0.01,0-0.07,0.01-0.18c0.01-0.1,0.01-0.22,0.01-0.35c0-0.09-0.01-0.17-0.02-0.25
				c-0.01-0.08-0.04-0.15-0.07-0.2c-0.04-0.08-0.09-0.14-0.15-0.18c-0.06-0.04-0.12-0.05-0.17-0.05c-0.08,0-0.14,0.03-0.2,0.08
				c-0.06,0.05-0.1,0.11-0.14,0.18c-0.05,0.08-0.1,0.19-0.17,0.32s-0.11,0.24-0.15,0.3c-0.08,0.13-0.18,0.24-0.28,0.31
				C6.27,98.71,6.15,98.74,6,98.74z"/>
		</g>
	</g>
	<g>
		<g>
			<g>
				<g>
					<g>
						<g>
							<g>
								<g>
									<path class="st1" d="M23.05,6.74c0.06,0.1,0.12,0.2,0.17,0.3"/>
									<path class="st2" d="M23.86,9.71c-0.04,3.02-2.5,5.46-5.54,5.46c-0.13,0-0.26,0-0.39-0.01"/>
									<path class="st1" d="M16.58,14.89c-0.11-0.04-0.22-0.08-0.33-0.12"/>
								</g>
							</g>
						</g>
						<path class="st3" d="M14.73,13.84c-1.18-1.02-1.93-2.52-1.93-4.2c0-3.06,2.48-5.54,5.54-5.54c1.34,0,2.56,0.47,3.52,1.26"/>
					</g>
					<path class="st4" d="M25.82,4.08c0,0,5.8,16.81-13.03,14.56"/>
				</g>
			</g>
			<g>
				<line class="st4" x1="26.86" y1="24.01" x2="12.79" y2="24.01"/>
				<path class="st4" d="M24.97,24.16c0,0,2.58,6.15-4.41,7.2c-3.51,0.52-7.85,0.04-7.85,0.04"/>
				<path class="st4" d="M25.02,31.76c0,0,2.75,5.01-4.46,6.76c-4.95,1.2-7.85-0.25-7.85-0.25"/>
			</g>
			<g>
				<g>
					<path class="st4" d="M25.82,43.46c0,0,5.8,16.81-13.03,14.56"/>
					<g>
						<g>
							<g>
								<g>
									<path class="st1" d="M23.05,46.18c0.06,0.1,0.12,0.2,0.17,0.3"/>
									<path class="st2" d="M23.86,49.15c-0.04,3.02-2.5,5.46-5.54,5.46c-0.13,0-0.26,0-0.39-0.01"/>
									<path class="st1" d="M16.58,54.33c-0.11-0.04-0.22-0.08-0.33-0.12"/>
								</g>
							</g>
						</g>
						<path class="st3" d="M14.73,53.28c-1.18-1.02-1.93-2.52-1.93-4.2c0-3.06,2.48-5.54,5.54-5.54c1.34,0,2.56,0.47,3.52,1.26"/>
					</g>
				</g>
			</g>
			<g>
				<g>
					<g>
						<g>
							<g>
								<path class="st1" d="M23.05,67.17c0.06,0.1,0.12,0.2,0.17,0.3"/>
								<path class="st2" d="M23.86,70.14c-0.04,3.02-2.5,5.46-5.54,5.46c-0.13,0-0.26,0-0.39-0.01"/>
								<path class="st1" d="M16.58,75.32c-0.11-0.04-0.22-0.08-0.33-0.12"/>
							</g>
						</g>
					</g>
					<path class="st3" d="M14.73,74.27c-1.18-1.02-1.93-2.52-1.93-4.2c0-3.06,2.48-5.54,5.54-5.54c1.34,0,2.56,0.47,3.52,1.26"/>
				</g>
				<line class="st4" x1="12.79" y1="63.34" x2="29.34" y2="63.34"/>
			</g>
			<line class="st4" x1="12.79" y1="80.34" x2="29.34" y2="80.34"/>
			<path class="st4" d="M16.37,97.03c-2.12-1.04-3.57-3.22-3.57-5.73c0-3.53,2.86-6.5,6.39-6.39c3.65,0.12,6.39,2.86,6.39,6.39
				c0,2.65-1.53,5.11-3.9,5.88c-2.24,0.73-2.8-5.81-1.59-10.03"/>
		</g>
		<g>
			<path class="st5" d="M101.09,27.32c-2.19-2.89-3.36-7.2-5.3-10.47C91.67,9.9,82.59,7.03,74.64,8.4s-14.9,6.22-20.77,11.77
				c-5.97,5.63-11.41,12.84-11.35,21.05c0.02,2.84,0.69,5.82-0.43,8.43c-1.22,2.84-4.19,4.42-6.58,6.37"/>
			<path class="st5" d="M29.83,80.42c3.73,8.17,11.97,11.9,19.88,11.9"/>
			<line class="st6" x1="49.71" y1="92.32" x2="131.43" y2="92.32"/>
			<path class="st5" d="M145.74,89c7.3-6.15,10.73-16.55,8.52-25.84c-2.21-9.29-9.95-17.03-19.24-19.23"/>
			<g>
				<g>
					<path class="st7" d="M128.84,41.83c-0.37-0.28-0.71-0.6-1.02-0.94"/>
					<path class="st8" d="M125.44,37.41c-0.15-0.23-0.3-0.45-0.45-0.68c-3.01-4.31-8.35-6.89-13.6-6.59
						c-0.8,0.05-1.61,0.16-2.41,0.24"/>
					<path class="st7" d="M106.87,30.49c-0.46-0.02-0.92-0.06-1.38-0.17"/>
				</g>
			</g>
			<path class="st5" d="M130.16,23.75c0.22-0.05,0.45-0.11,0.68-0.17c3.84-1.11,7.63-4.22,7.97-7.78c0.44-4.61-3.23-9.22-7.81-9.84
				c-4.58-0.62-9.34,2.85-10.15,7.41c-0.67,3.81,0.28,7.86,3.26,9.66"/>
		</g>
	</g>
</g>
<g>
</g>
<g>
</g>
<g>
</g>
<g>
</g>
<g>
</g>
<g>
</g>
</svg>
