<?xml version="1.0" encoding="utf-8"?>
<!-- Generator: Adobe Illustrator 29.8.2, SVG Export Plug-In . SVG Version: 9.03 Build 0)  -->
<svg version="1.1" id="レイヤー_1" xmlns="http://www.w3.org/2000/svg" xmlns:xlink="http://www.w3.org/1999/xlink" x="0px"
	 y="0px" viewBox="0 0 230.31 99.19" style="enable-background:new 0 0 230.31 99.19;" xml:space="preserve">
<style type="text/css">
	.st0{fill:#F0E8BD;stroke:#C06D1A;stroke-width:3.6196;stroke-linecap:round;stroke-linejoin:round;stroke-miterlimit:10;}
	.st1{fill:#C06D1A;}
</style>
<g>
	<path class="st0" d="M191.88,95.4H38.43c-19.25,0-35-15.75-35-35V38.78c0-19.25,15.75-35,35-35h153.45c19.25,0,35,15.75,35,35V60.4
		C226.88,79.65,211.13,95.4,191.88,95.4z"/>
	<g>
		<g>
			<path class="st1" d="M88.37,62.25c-0.87,0-1.65-0.78-1.65-1.59c0-0.42,0.21-0.84,0.75-1.14c1.62-0.9,3.15-1.92,4.17-3.12
				c0.03-1.35,0.06-2.52,0.06-3.66c0-2.04,0-2.1-1.41-2.1c-0.42,0-0.84,0-1.26,0c-0.63,0-1.68-0.03-1.68-1.29
				c0-0.66,0.45-1.35,1.26-1.35c1.08,0,2.07,0,3.06,0.03c1.92,0.06,2.82,0.9,2.82,2.82c0,1.74-0.06,3.81-0.06,5.73
				c2.04,2.58,5.19,3.03,9.03,3.03c3,0,6.24-0.33,8.52-0.51c0.06,0,0.09,0,0.15,0c0.93,0,1.44,0.72,1.44,1.44
				c0,0.69-0.45,1.38-1.5,1.47c-1.89,0.18-4.62,0.36-7.35,0.36c-7.35,0-9.3-1.26-11.67-3.69C92.87,58.89,89.84,62.25,88.37,62.25z
				 M92.27,42.54c-0.87-1.08-2.13-1.98-3.06-2.43c-0.45-0.24-0.66-0.6-0.66-0.96c0-0.69,0.69-1.41,1.53-1.41
				c0.81,0,4.77,2.01,4.77,3.69c0,0.87-0.75,1.65-1.56,1.65C92.93,43.08,92.57,42.93,92.27,42.54z M111.28,49.86l-5.46-0.09
				c1.23,2.22,3.36,4.08,5.97,5.4c0.54,0.27,0.75,0.72,0.75,1.2c0,0.75-0.57,1.53-1.44,1.53c-1.14,0-4.95-2.64-7.05-6.72
				c-1.74,4.35-5.76,6.87-6.75,6.87c-0.81,0-1.41-0.66-1.41-1.35c0-0.39,0.18-0.78,0.66-1.02c2.97-1.62,4.53-3.54,5.31-5.91
				l-4.74,0.09h-0.03c-0.84,0-1.26-0.6-1.26-1.2c0-0.63,0.42-1.23,1.29-1.23h5.25c0.12-0.84,0.18-1.77,0.18-2.73h-4.41
				c-0.87,0-1.32-0.6-1.32-1.2c0-0.6,0.45-1.2,1.32-1.2h6c0.75-1.17,1.92-3.45,2.37-4.77c0.21-0.63,0.72-0.9,1.26-0.9
				c0.81,0,1.65,0.57,1.65,1.32s-2.19,3.87-2.52,4.35h3.18c0.81,0,1.23,0.6,1.23,1.2c0,0.6-0.42,1.2-1.23,1.2h-4.8
				c-0.03,0.93-0.12,1.86-0.24,2.73h6.24c0.78,0,1.17,0.6,1.17,1.23c0,0.6-0.39,1.2-1.14,1.2
				C111.31,49.86,111.28,49.86,111.28,49.86z M101.3,41.88c-0.39,0-0.81-0.18-1.05-0.66c-0.54-0.99-1.38-1.86-1.86-2.31
				c-0.24-0.24-0.36-0.48-0.36-0.75c0-0.63,0.66-1.2,1.41-1.2c1.29,0,3.27,2.67,3.27,3.54C102.71,41.28,101.98,41.88,101.3,41.88z"
				/>
			<path class="st1" d="M128.05,61.32l0.3-14.07c-2.01,2.61-2.82,3.15-3.54,3.15c-0.78,0-1.41-0.6-1.41-1.32
				c0-0.33,0.15-0.72,0.51-1.05c2.85-2.73,5.46-6.69,6.84-10.86c0.24-0.66,0.75-0.96,1.29-0.96c0.81,0,1.68,0.63,1.68,1.47
				c0,0.57-1.2,3.06-2.43,5.16l-0.36,18.48c0,0.9-0.75,1.35-1.44,1.35c-0.72,0-1.44-0.45-1.44-1.32L128.05,61.32L128.05,61.32z
				 M133.79,43.98c-0.9,0-1.35-0.63-1.35-1.26s0.45-1.26,1.35-1.26h15.51c0.9,0,1.32,0.63,1.32,1.26s-0.42,1.26-1.32,1.26H133.79z
				 M145.87,62.04c-1.53,0.06-3.09,0.06-4.56,0.06c-1.5,0-2.94,0-4.32-0.06c-1.44-0.06-2.34-1.05-2.37-2.37
				c-0.03-0.66-0.03-1.23-0.03-1.8c0-0.75,0-1.47,0.03-2.22c0.03-1.14,0.87-2.22,2.43-2.28c1.23-0.06,2.49-0.06,3.75-0.06
				c1.74,0,3.48,0.03,5.13,0.06c1.29,0.03,2.55,0.69,2.61,2.13c0.03,0.69,0.03,1.38,0.03,2.1c0,0.69,0,1.38-0.03,2.04
				C148.51,60.99,147.46,61.98,145.87,62.04z M136.27,39.87c-0.87,0-1.32-0.6-1.32-1.23c0-0.6,0.45-1.23,1.32-1.23h10.32
				c0.87,0,1.29,0.6,1.29,1.23c0,0.6-0.42,1.23-1.29,1.23H136.27z M136.36,51.75c-0.9,0-1.35-0.63-1.35-1.23
				c0-0.63,0.45-1.23,1.35-1.23h10.26c0.87,0,1.29,0.6,1.29,1.23c0,0.6-0.42,1.23-1.29,1.23H136.36z M136.36,47.88
				c-0.87,0-1.32-0.63-1.32-1.23c0-0.63,0.45-1.23,1.32-1.23h10.26c0.87,0,1.29,0.6,1.29,1.23c0,0.6-0.42,1.23-1.29,1.23H136.36z
				 M145.66,57.69c0-0.39,0-0.81-0.03-1.23c-0.03-0.9-0.27-0.9-4.26-0.9c-1.08,0-2.13,0.03-3.03,0.06
				c-0.93,0.03-0.96,0.45-0.96,1.98c0,1.71,0.06,2.01,0.96,2.07c1.02,0.03,2.04,0.06,3.12,0.06c1.05,0,2.16-0.03,3.27-0.06
				C145.57,59.61,145.66,59.31,145.66,57.69z"/>
		</g>
	</g>
</g>
</svg>
