<?xml version="1.0" encoding="utf-8"?>
<!-- Generator: Adobe Illustrator 29.8.1, SVG Export Plug-In . SVG Version: 9.03 Build 0)  -->
<svg version="1.1" id="レイヤー_1" xmlns="http://www.w3.org/2000/svg" xmlns:xlink="http://www.w3.org/1999/xlink" x="0px"
	 y="0px" viewBox="0 0 590.7 792.25" style="enable-background:new 0 0 590.7 792.25;" xml:space="preserve">
<style type="text/css">
	
		.st0{opacity:0.65;fill:#E0D28B;stroke:#C06D1A;stroke-width:4.7405;stroke-linecap:round;stroke-linejoin:round;stroke-miterlimit:10;}
	.st1{opacity:0.65;}
	.st2{fill:#E0D28B;stroke:#C06D1A;stroke-width:4.7405;stroke-linecap:round;stroke-linejoin:round;stroke-miterlimit:10;}
	
		.st3{opacity:0.6;fill:#C06D1A;stroke:#C06D1A;stroke-width:4.7405;stroke-linecap:round;stroke-linejoin:round;stroke-miterlimit:10;enable-background:new    ;}
	.st4{fill:none;stroke:#C06D1A;stroke-width:4.7405;stroke-linecap:round;stroke-linejoin:round;stroke-miterlimit:10;}
	.st5{fill:none;stroke:#C06D1A;stroke-width:4.2008;stroke-linecap:round;stroke-linejoin:round;stroke-miterlimit:10;}
	.st6{fill:#C06D1A;stroke:#C06D1A;stroke-width:4.7405;stroke-linecap:round;stroke-linejoin:round;stroke-miterlimit:10;}
</style>
<g>
	<g>
		<path class="st0" d="M214.74,591.93c4.14-23.79,6.86-42.69,9.16-57.44c0,0,31.11,19.08,70.27,19.08c23.75,0,50.34-4.3,77.14-19.08
			c5.01,32.16,12.04,84.08,31.39,163.33c5.1,20.88,16.48,40.13,30.03,55.29c0,0-270,0-270.26,0c13.56-15.16,24.93-34.41,30.03-55.29
			C202.98,654.91,209.85,620.02,214.74,591.93z"/>
		<g class="st1">
			<path class="st2" d="M464.91,276.34c0,0-12.54-4.83-14.72-26.3c0,0-15.15-1.85-19.73-21.61c0,0-15.04-3.41-23.07-17.95
				c24.29-12.41,43.59-37.16,54.41-60.39c4.67-10.04,7.76-19.79,8.98-28.15c0.12,0,12.26,0.08,17.62,17.03
				c0,0,22.22,11.1,21.92,39.04c0,0,10.01,11.83,4.7,27.56c0,0,7.82,16.84-1.25,31.94c0,0,3.65,12.67-5.01,23.48
				c0,0-1.69,24.71-13.65,30.8c-0.59-8.49-3.65-16.69-11.5-19.21C471.65,268.76,464.91,276.34,464.91,276.34"/>
			<path class="st2" d="M132.25,147.55c10.56,23.95,30.38,50.06,55.56,62.93c-8.03,14.53-23.07,17.95-23.07,17.95
				c-4.58,19.76-19.73,21.61-19.73,21.61c-2.18,21.47-14.72,26.3-14.72,26.3s-6.75-7.58-18.68-3.76
				c-7.86,2.52-10.91,10.72-11.5,19.21c-11.96-6.08-13.65-30.8-13.65-30.8c-8.66-10.81-5.01-23.48-5.01-23.48
				c-9.07-15.1-1.25-31.94-1.25-31.94c-5.31-15.73,4.7-27.56,4.7-27.56c-0.3-27.94,21.92-39.04,21.92-39.04
				c5.38-16.98,17.55-17.03,17.62-17.03C125.54,129.6,128.22,138.42,132.25,147.55z"/>
			<path class="st2" d="M461.8,150.1c7.84-16.84,11.22-32.88,8.8-42.85c-6.81-28.1-40.55-69.72-54.38-67.64
				c-82.98,12.53-94.46,67.64-94.46,67.64c-7.93,18.16,0,22.75,0,38.2c0,3.05-0.4,5.66-1.11,7.91c29.64,44.6,11.06,73.41,65.4,64.32
				C420.28,211.95,447.97,179.79,461.8,150.1z"/>
			<path class="st2" d="M125.6,103.65c8.61-27.91,40.14-66.04,53.39-64.04c82.98,12.53,94.46,67.64,94.46,67.64
				c7.93,18.16,0,22.75,0,38.2c0,3.05,0.4,5.66,1.11,7.91c-29.64,44.6-11.06,73.41-65.4,64.32c-53.65-8.98-91.23-82.88-84.55-110.43
				C124.89,106.07,125.22,104.87,125.6,103.65z"/>
			<path class="st2" d="M297.6,93.08c20.24,0.84,24.15,14.16,24.15,14.16c-7.93,18.16,0,22.75,0,38.2
				c0,19.5-16.39,21.31-24.15,21.48c-7.76-0.17-24.15-1.99-24.15-21.48c0-15.46,7.93-20.04,0-38.2
				C273.45,107.25,277.36,93.92,297.6,93.08z"/>
		</g>
		<path class="st3" d="M327.13,6.97c16.69,3.03,3.25,6.32,39.33,12.84c35.76,6.46,33.67,22.91,33.66,22.95
			c-68.41,16.68-78.38,64.49-78.38,64.49s-3.92-13.32-24.15-14.16c-20.24,0.84-24.15,14.16-24.15,14.16s-9.96-47.81-78.38-64.49
			c-0.01-0.04-2.1-16.48,33.66-22.95c42.33-7.65,16.49-10.86,51.15-14.4c2.2-0.23,4.28-0.41,6.24-0.57
			c6.9-0.76,15.59-0.83,29.2,0.57C320.44,5.93,324.24,6.45,327.13,6.97z"/>
	</g>
	<g>
		<g id="服">
			<path class="st4" d="M223.9,534.49c0,0,31.11,19.08,70.27,19.08c23.75,0,50.34-4.3,77.14-19.08"/>
			<line class="st4" x1="162.47" y1="753.1" x2="432.73" y2="753.1"/>
			<path class="st4" d="M428.06,479.69c-3.11,12.01-7.71,25.47,0.52,67.13"/>
			<path class="st4" d="M167.14,479.69c3.11,12.01,7.71,25.47-0.52,67.13"/>
			<g>
				<polyline class="st4" points="292.73,637.59 311.46,637.59 311.46,554.15 				"/>
				<circle class="st4" cx="297.6" cy="565.68" r="3.19"/>
				<circle class="st4" cx="297.6" cy="582.77" r="3.19"/>
				<circle class="st4" cx="297.6" cy="599.85" r="3.19"/>
				<circle class="st4" cx="297.6" cy="616.94" r="3.19"/>
			</g>
		</g>
		<g id="泡">
			<path class="st4" d="M360.56,476.48c0,0-37.82-14.61-25.29-51.56c8.58-25.3,28.81-23.38,28.81-23.38s-8.38-14.87,3.11-27.6
				c12.61-13.98,22.99-7.54,22.99-7.54s-7.04-16.41,7.88-24.93c12.68-7.24,22.7,3.5,22.7,3.5s0.63-27.61,30.17-27.61
				c16.22,0,24.45,6.7,28.55,14.21"/>
			<path class="st4" d="M234.64,476.48c0,0,37.82-14.61,25.29-51.56c-8.58-25.3-28.81-23.38-28.81-23.38s8.38-14.87-3.11-27.6
				c-12.61-13.98-22.99-7.54-22.99-7.54s7.04-16.41-7.88-24.93c-12.68-7.24-22.7,3.5-22.7,3.5s-0.63-27.61-30.17-27.61
				c-16.22,0-24.45,6.7-28.55,14.21"/>
		</g>
		<g id="右腕">
			<path class="st4" d="M496.5,331.92c0,0,0.37-2.09,4.08-1.6c6.21,0.82,4.03,19.06,1.87,30.65c-4.54,24.42-15.97,51.2-19.46,68.05
				c-3.79,18.34-53.45,43.59-61.54,58.4c-5.73,10.49,5.74,63.98,17.68,89.14c28.55,60.19,103.25,125.53,68.67,197.96
				c-16.6,34.76-89.66-13.46-105.11-76.72c-26.64-109.07-29.93-166.38-36.74-191.65c-6.56-24.33-15.03-65.12,27.74-87.37
				c17.78-9.25,38.63-28.45,45.13-36.84c8.23-10.63,21.61-39.75,34.44-38.59c12.59,1.15-8.07,36.8-25.99,61.98"/>
			<path class="st4" d="M473.26,343.37c2.95-5.25,6.79-18.82,18.93-19.97c8.31-0.79,2.78,20.03-0.8,35.49
				c-5.38,23.29-17.22,45.41-17.22,45.41"/>
			<path class="st4" d="M437.08,472.15c0,0,13.47-4.14,29.88-3.29c12.18,0.63,26.8,7.13,34.9,36.26
				c11.6,41.7,36.83,219.63,5.94,269.41"/>
			<path class="st4" d="M337.88,520.86c0,0,8.48-8.11,28.51-13.04"/>
		</g>
		<g id="左腕">
			<path class="st4" d="M98.7,331.92c0,0-0.37-2.09-4.08-1.6c-6.21,0.82-4.03,19.06-1.87,30.65c4.54,24.42,15.97,51.2,19.46,68.05
				c3.79,18.34,53.45,43.59,61.54,58.4c5.73,10.49-5.74,63.98-17.68,89.14c-28.56,60.2-103.26,125.54-68.68,197.97
				c16.6,34.76,89.66-13.46,105.11-76.72c26.64-109.07,29.93-166.38,36.74-191.65c6.56-24.33,15.03-65.12-27.74-87.37
				c-17.78-9.25-38.63-28.45-45.13-36.84c-8.23-10.63-21.61-39.75-34.44-38.59c-12.59,1.15,8.07,36.8,25.99,61.98"/>
			<path class="st4" d="M121.94,343.37c-2.95-5.25-6.79-18.82-18.93-19.97c-8.31-0.79-2.78,20.03,0.8,35.49
				c5.38,23.29,17.22,45.41,17.22,45.41"/>
			<path class="st4" d="M158.12,472.15c0,0-13.47-4.14-29.88-3.29c-12.18,0.63-26.8,7.13-34.9,36.26
				c-11.6,41.7-36.83,219.63-5.94,269.41"/>
			<path class="st4" d="M257.32,520.86c0,0-8.48-8.11-28.51-13.04"/>
		</g>
		<g id="輪郭">
			<g>
				<path class="st4" d="M464.91,276.34c0,0-2.12,16.83-8.95,41.02"/>
				<path class="st4" d="M464.91,276.34c0,0,6.75-7.58,18.68-3.76c11.73,3.76,12.76,20.2,10.86,31.31
					c-0.69,4.05-2.66,11.81-6.93,20.68"/>
				<path class="st4" d="M472.18,303.51c0,0-0.61,9.35-7.07,15.9"/>
			</g>
			<g>
				<path class="st4" d="M130.29,276.34c0,0,2.12,16.83,8.95,41.02"/>
				<path class="st4" d="M130.29,276.34c0,0-6.75-7.58-18.68-3.76c-11.73,3.76-12.76,20.2-10.86,31.31
					c0.69,4.05,2.66,11.81,6.93,20.68"/>
				<path class="st4" d="M123.02,303.51c0,0,0.61,9.35,7.07,15.9"/>
			</g>
			<path class="st4" d="M254.03,462.24c13.59,6.21,29.13,8.07,43.56,8.23c14.43-0.16,29.98-2.01,43.57-8.23"/>
		</g>
		<g id="顔">
			<path class="st4" d="M317.42,416.53c0,0-7.82,5.1-19.82,5.1c-11.99,0-19.82-5.1-19.82-5.1"/>
			<path class="st4" d="M290.08,371.61c0,0,7.52,5.22,15.03,0"/>
			<g>
				<path class="st4" d="M349.75,323.74c0,0,14.48,10.53,30.33,7.5c17.97-3.44,26.24-17.35,26.24-17.35"/>
				<polygon class="st5" points="405.65,322.01 400.51,320.85 404.08,316.98 				"/>
				<polygon class="st5" points="395.89,329.85 391.28,327.3 395.79,324.58 				"/>
				<polygon class="st5" points="382.15,335.39 378.59,331.49 383.74,330.36 				"/>
				<polygon class="st5" points="368,335.78 366.05,330.88 371.27,331.65 				"/>
				<polygon class="st5" points="354.32,331.48 353.88,326.23 358.65,328.47 				"/>
			</g>
			<g>
				<path class="st4" d="M245.45,323.74c0,0-14.48,10.53-30.33,7.5c-17.97-3.44-26.24-17.35-26.24-17.35"/>
				<polygon class="st5" points="189.55,322.01 194.69,320.85 191.12,316.98 				"/>
				<polygon class="st5" points="199.31,329.85 203.92,327.3 199.41,324.58 				"/>
				<polygon class="st5" points="213.05,335.39 216.61,331.49 211.46,330.36 				"/>
				<polygon class="st5" points="227.2,335.78 229.15,330.88 223.93,331.65 				"/>
				<polygon class="st5" points="240.88,331.48 241.32,326.23 236.55,328.47 				"/>
			</g>
			<path class="st4" d="M362.51,232.92c0,0,29.96-2.66,45.35,18.41"/>
			<path class="st4" d="M232.69,232.92c0,0-29.96-2.66-45.35,18.41"/>
		</g>
		<g id="ヘアキャップ">
			<path class="st4" d="M321.75,107.25c0,0,11.48-55.11,94.46-67.64c13.83-2.09,47.57,39.54,54.38,67.64
				c6.68,27.56-30.9,101.46-84.55,110.43c-53.65,8.98-36.22-19-64.3-62.63"/>
			<path class="st4" d="M356.61,124.99c0,0,39.87-29.85,25.26-30.48c-14.61-0.63-46.97,9.81-62.84,32.98"/>
			<path class="st4" d="M358.7,155.26c0,0-27.97-15.66-37.37-16.28"/>
			<path class="st4" d="M464.91,276.34c0,0-12.54-4.83-14.72-26.3c0,0-15.15-1.85-19.73-21.61c0,0-15.04-3.41-23.07-17.95"/>
			<path class="st4" d="M470.77,121.95c0,0,12.23,0,17.62,17.03c0,0,22.22,11.1,21.92,39.04c0,0,10.01,11.83,4.7,27.56
				c0,0,7.82,16.84-1.25,31.94c0,0,3.65,12.67-5.01,23.48c0,0-1.68,24.56-13.54,30.74"/>
			<path class="st4" d="M297.6,93.08c20.24,0.84,24.15,14.16,24.15,14.16c-7.93,18.16,0,22.75,0,38.2
				c0,19.5-16.39,21.31-24.15,21.48c-7.76-0.17-24.15-1.99-24.15-21.48c0-15.46,7.93-20.04,0-38.2
				C273.45,107.25,277.36,93.92,297.6,93.08z"/>
			<path class="st4" d="M273.45,107.25c0,0-11.48-55.11-94.46-67.64c-13.83-2.09-47.57,39.54-54.38,67.64
				c-6.68,27.56,30.9,101.46,84.55,110.43c53.65,8.98,36.22-19,64.3-62.63"/>
			<path class="st4" d="M238.59,124.99c0,0-39.87-29.85-25.26-30.48c14.61-0.63,46.97,9.81,62.84,32.98"/>
			<path class="st4" d="M236.5,155.26c0,0,27.97-15.66,37.37-16.28"/>
			<path class="st4" d="M130.29,276.34c0,0,12.54-4.83,14.72-26.3c0,0,15.15-1.85,19.73-21.61c0,0,15.04-3.41,23.07-17.95"/>
			<path class="st4" d="M124.43,121.95c0,0-12.23,0-17.62,17.03c0,0-22.22,11.1-21.92,39.04c0,0-10.01,11.83-4.7,27.56
				c0,0-7.82,16.84,1.25,31.94c0,0-3.65,12.67,5.01,23.48c0,0,1.68,24.56,13.54,30.74"/>
		</g>
		<path id="髪" class="st4" d="M400.13,42.76c0,0,2.14-16.48-33.66-22.95c-42.33-7.65-16.49-10.86-51.15-14.4
			c-13.61-1.39-22.3-1.33-29.2-0.57c-1.96,0.15-4.03,0.34-6.24,0.57c-34.65,3.55-8.81,6.75-51.15,14.4
			c-35.8,6.47-33.66,22.95-33.66,22.95"/>
		<g>
			<g>
				<path class="st6" d="M550.76,345.62c0,0,4.18,28.31-15.03,53.02C535.73,398.64,573.73,383.19,550.76,345.62z"/>
				<path class="st6" d="M585.01,361.39c0,0,3.56,32.08-14.99,47.09C570.02,408.48,591.73,394.97,585.01,361.39z"/>
			</g>
			<g>
				<path class="st6" d="M39.87,345.62c0,0-4.18,28.31,15.03,53.02C54.9,398.64,16.91,383.19,39.87,345.62z"/>
				<path class="st6" d="M5.63,361.39c0,0-3.56,32.08,14.99,47.09C20.62,408.48-1.09,394.97,5.63,361.39z"/>
			</g>
		</g>
	</g>
</g>
</svg>
