<?xml version="1.0" encoding="utf-8"?>
<!-- Generator: Adobe Illustrator 29.8.1, SVG Export Plug-In . SVG Version: 9.03 Build 0)  -->
<svg version="1.1" id="レイヤー_1" xmlns="http://www.w3.org/2000/svg" xmlns:xlink="http://www.w3.org/1999/xlink" x="0px"
	 y="0px" viewBox="0 0 83.34 73.32" style="enable-background:new 0 0 83.34 73.32;" xml:space="preserve">
<style type="text/css">
	.st0{fill:#F0E8BD;}
	
		.st1{opacity:0.7;fill:none;stroke:#83892C;stroke-width:1.2328;stroke-linecap:round;stroke-linejoin:round;stroke-miterlimit:10;stroke-dasharray:30.8208,6.1642,6.1642,6.1642;}
	.st2{fill:#C06D1A;}
</style>
<g>
	<path class="st0" d="M71.96,35.07C71.11,16.14,55.6,1.02,36.43,1.02c-19.72,0-35.7,15.95-35.7,35.64S16.71,72.3,36.43,72.3
		c8.99,0,17.11-3.43,23.39-8.91c2.17,1.15,4.61,1.86,7.24,1.86c8.59,0,15.55-6.95,15.55-15.52C82.61,42.87,78.13,37.13,71.96,35.07z
		"/>
	<path class="st1" d="M63.18,35.42C62.52,20.66,50.42,8.87,35.48,8.87C20.1,8.87,7.64,21.31,7.64,36.66S20.1,64.45,35.48,64.45
		c7.01,0,13.34-2.68,18.24-6.95c1.69,0.9,3.59,1.45,5.65,1.45c6.7,0,12.12-5.42,12.12-12.1C71.48,41.51,67.99,37.02,63.18,35.42z"/>
	<g>
		<g>
			<path class="st2" d="M27.48,48.37c1.68,0.04,2.46,1.12,2.46,2.2c0,1.12-0.86,2.28-2.33,2.28c-0.04,0-0.13,0-0.17,0
				c-1.03-0.04-2.24-0.09-3.41-0.09c-1.77,0-3.32,0.04-3.75,0.09c-1.81,0.09-2.59-1.08-2.59-2.16c0-1.08,0.86-2.2,2.5-2.2
				c0.04,0,0.04,0,0.09,0c0.04,0,0.04,0,0.09,0c0.69,0,0.86-0.52,0.91-1.04c0.09-1.85,0.13-6.29,0.13-10.78
				c0-4.48-0.04-8.97-0.09-10.91c0-0.69-0.17-1.04-0.86-1.04c-2.24,0-2.72-1.34-2.72-2.24c0-1.08,0.78-2.16,2.33-2.16
				c0.09,0,0.17,0,0.26,0c0.52,0.04,1.21,0.04,2.03,0.04c2.24,0,5.3-0.09,7.67-0.09c0.86,0,1.64,0,2.24,0.04
				c6.77,0.43,9.91,4.91,9.91,9.44c0,4.66-3.32,9.4-9.35,10c-0.99,0.09-1.94,0.17-2.93,0.17c-1.08,0-2.2-0.09-3.36-0.3
				c-0.22-0.04-0.34-0.09-0.43-0.09c-0.22,0-0.26,0.17-0.26,0.65c0,2.11,0.13,4.78,0.17,7.2c0,0.65,0.34,0.86,0.91,0.95H27.48z
				 M29.03,24.53c-2.84,0-2.93,0.17-3.15,1.51c-0.04,0.95-0.09,2.5-0.09,4.09c0,3.62,0,3.84,0,4.4c0,0.73,0.43,1.25,3.88,1.25
				c0.82,0,1.64-0.04,2.46-0.13c3.28-0.26,5.35-3.32,5.35-6.16c0-2.54-1.68-4.91-5.69-4.91C31.79,24.57,30.36,24.53,29.03,24.53z"/>
		</g>
		<g>
			<path class="st2" d="M31.12,47.11c0-2.7,2.01-4.68,4.66-4.68s4.64,1.98,4.64,4.68c0,2.79-2,4.67-4.64,4.67
				S31.12,49.9,31.12,47.11z M38.55,47.11c0-1.83-1.26-2.99-2.77-2.99c-1.52,0-2.79,1.16-2.79,2.99c0,1.81,1.26,2.96,2.79,2.96
				C37.31,50.06,38.55,48.92,38.55,47.11z"/>
			<path class="st2" d="M43.24,42.56c1.35,0.02,1.9,0.65,1.9,1.98c0,0.04,0,0.06,0,0.07c-0.04,2.55-0.07,3.92-0.07,4.84
				c0,0.15,0.06,0.33,0.31,0.35c0.68-0.02,1.05,0.42,1.05,0.91c0,0.46-0.33,0.92-1.02,0.92c-0.02,0-0.02,0-0.04,0
				c-0.39-0.02-1.03-0.02-1.61-0.02c-0.44,0-0.83,0-1.05,0.02c-0.79,0.04-1.05-0.5-1.05-0.91c0-0.46,0.33-0.92,0.98-0.92
				c0.02,0,0.05,0,0.07,0c0.07,0,0.15,0,0.22,0c0.24,0,0.31-0.06,0.31-0.39c0.02-0.85,0.04-1.98,0.04-3.25c0-0.3,0-0.61,0-0.92
				c0-0.52-0.06-0.72-0.52-0.72c-0.04,0-0.09,0-0.13,0c-0.02,0-0.04,0-0.06,0c-0.57,0-0.85-0.46-0.85-0.94
				c0-0.5,0.29-1.02,0.91-1.02H43.24z M42.56,38.83c0-0.91,0.78-1.26,1.29-1.26c0.67,0,1.29,0.55,1.29,1.26
				c0,0.67-0.5,1.31-1.29,1.31C43.13,40.14,42.56,39.68,42.56,38.83z"/>
			<path class="st2" d="M56.71,51.62c-0.37-0.02-0.96-0.02-1.52-0.02c-0.39,0-0.76,0-0.98,0.02c-1,0.05-1-0.79-1-0.85
				c0-0.44,0.31-0.89,0.92-0.89c0.02,0,0.06,0,0.07,0s0.04,0,0.06,0c0.18,0,0.28-0.07,0.28-0.28c0-0.57,0.02-1.22,0.02-1.81
				c0-0.87-0.02-1.63-0.04-1.94c-0.07-1.26-0.87-1.77-1.72-1.77c-1.07,0-2.25,0.81-2.31,1.98c-0.02,0.33-0.02,0.83-0.02,1.44
				s0,1.35,0.02,2.18c0,0.2,0.13,0.2,0.31,0.2c0.81-0.04,1.02,0.52,1.02,0.85c0,0.44-0.33,0.89-0.98,0.89c-0.02,0-0.02,0-0.04,0
				c-0.37-0.02-0.96-0.02-1.52-0.02c-0.39,0-0.76,0-0.98,0.02c-1,0.05-1-0.79-1-0.85c0-0.44,0.31-0.89,0.92-0.89
				c0.02,0,0.06,0,0.07,0c0.04,0,0.06,0,0.09,0c0.17,0,0.22-0.06,0.22-0.26c0.04-1.88,0.06-2.2,0.06-2.9c0-0.39,0-0.87-0.02-1.77
				c0-0.22-0.15-0.46-0.44-0.46c-0.02,0-0.02,0-0.04,0s-0.04,0-0.07,0c-0.55,0-0.83-0.44-0.83-0.92s0.3-0.96,0.91-0.96
				c0.22,0,0.26-0.02,0.44-0.02c0.04,0,0.07,0,0.11,0c0.76,0,1.37,0.18,1.66,0.67c0.02,0.04,0.04,0.06,0.07,0.06
				s0.09-0.06,0.18-0.13c0.59-0.46,1.53-0.78,2.5-0.78c1.57,0,3.18,0.83,3.25,3.18c0.02,0.74,0.06,2.66,0.06,4.05
				c0,0.2,0.13,0.26,0.24,0.26c0.68,0,1.03,0.44,1.03,0.89c0,0.42-0.33,0.85-1,0.85C56.75,51.62,56.73,51.62,56.71,51.62z"/>
			<path class="st2" d="M62.18,44.34c-0.28,0-0.28,0.09-0.28,0.2c0,0.68-0.06,2.25-0.06,3.47c0,1.44,0.06,2.03,1.09,2.03
				c0.13,0,0.28-0.02,0.42-0.04c0.06,0,0.09-0.02,0.15-0.02c0.5,0,0.79,0.41,0.79,0.81c0,0.67-0.61,0.98-1.57,0.98
				C60,51.78,60,49.36,60,48.6c0-1.07,0.04-2.92,0.04-3.73c0-0.11,0-0.2,0-0.28c0-0.24-0.11-0.26-0.29-0.26h-0.55
				c-0.54,0-0.83-0.44-0.83-0.89c0-0.42,0.28-0.85,0.83-0.85h0.54c0.3,0,0.31-0.06,0.31-0.31c0,0,0.02-0.37,0.02-0.79
				c0-0.22,0-0.44-0.02-0.65c0-0.02,0-0.04,0-0.06c0-0.55,0.44-0.83,0.92-0.83c0.98,0,0.98,0.89,0.98,1.13c0,0.5-0.04,1.2-0.04,1.2
				c0,0.3,0.07,0.31,0.26,0.31h1.24c0.55,0,0.81,0.42,0.81,0.87c0,0.42-0.26,0.87-0.81,0.87H62.18z"/>
		</g>
	</g>
</g>
<g>
</g>
<g>
</g>
<g>
</g>
<g>
</g>
<g>
</g>
<g>
</g>
</svg>
