<?xml version="1.0" encoding="utf-8"?>
<!-- Generator: Adobe Illustrator 29.8.1, SVG Export Plug-In . SVG Version: 9.03 Build 0)  -->
<svg version="1.1" id="レイヤー_1" xmlns="http://www.w3.org/2000/svg" xmlns:xlink="http://www.w3.org/1999/xlink" x="0px"
	 y="0px" viewBox="0 0 685.27 126.36" style="enable-background:new 0 0 685.27 126.36;" xml:space="preserve">
<style type="text/css">
	.st0{fill:#EDE5BB;stroke:#C06D1A;stroke-width:5;stroke-linecap:round;stroke-linejoin:round;stroke-miterlimit:10;}
	.st1{fill:none;stroke:#C06D1A;stroke-width:3.2327;stroke-linecap:round;stroke-linejoin:round;stroke-miterlimit:10;}
	.st2{fill:#C06D1A;}
	.st3{clip-path:url(#SVGID_00000037671553462380016260000018421757006489376902_);}
	.st4{fill:none;stroke:#EDE5BB;stroke-width:0.8892;stroke-linecap:round;stroke-linejoin:round;stroke-miterlimit:10;}
	.st5{fill:none;stroke:#EDE5BB;stroke-width:0.8892;stroke-linecap:round;stroke-linejoin:round;}
	.st6{fill:none;stroke:#EDE5BB;stroke-width:0.8892;stroke-linecap:round;stroke-linejoin:round;stroke-dasharray:0.8227,1.6453;}
	.st7{display:none;}
	
		.st8{display:inline;fill:#EDE5BB;stroke:#C06D1A;stroke-width:5;stroke-linecap:round;stroke-linejoin:round;stroke-miterlimit:10;}
	
		.st9{display:inline;fill:none;stroke:#C06D1A;stroke-width:4.2274;stroke-linecap:round;stroke-linejoin:round;stroke-miterlimit:10;}
</style>
<g>
	<g>
		<path class="st0" d="M633.79,121.03H50.72c-24.75,0-45-20.25-45-45V51.1c0-24.75,20.25-45,45-45h583.07c24.75,0,45,20.25,45,45
			v24.94C678.79,100.78,658.54,121.03,633.79,121.03z"/>
		<g>
			<g>
				<g>
					<path class="st1" d="M122.65,44.29h6.22c1.45,0,2.73,0.97,3.12,2.37l6.6,23.89l-1.7,2.73c-0.41,1.06,0.37,2.21,1.51,2.21H165"
						/>
					<circle class="st2" cx="142.41" cy="81.98" r="3.53"/>
					<circle class="st2" cx="161.48" cy="81.98" r="3.53"/>
				</g>
				<g>
					<defs>
						<path id="SVGID_1_" d="M168.07,49.13h-15.09h-0.32h-15.09c-1.06,0-1.83,1-1.56,2.03l4.77,18.12c0.19,0.71,0.83,1.2,1.56,1.2
							h10.32h0.32h10.32c0.73,0,1.38-0.49,1.56-1.2l4.77-18.12C169.9,50.13,169.13,49.13,168.07,49.13z"/>
					</defs>
					<use xlink:href="#SVGID_1_"  style="overflow:visible;fill:#C06D1A;"/>
					<clipPath id="SVGID_00000010298791832064171650000014433729739662582700_">
						<use xlink:href="#SVGID_1_"  style="overflow:visible;"/>
					</clipPath>
					<g style="clip-path:url(#SVGID_00000010298791832064171650000014433729739662582700_);">
						<path class="st4" d="M152.28,58.91c-0.57-0.75-0.87-1.87-1.38-2.72c-1.07-1.8-3.42-2.55-5.49-2.19
							c-2.07,0.36-3.87,1.62-5.39,3.05c-1.55,1.46-2.96,3.33-2.95,5.46c0.01,0.74,0.18,1.51-0.11,2.19
							c-0.32,0.74-1.09,1.15-1.71,1.65"/>
						<path class="st4" d="M163.87,74.93c1.89-1.6,2.78-4.3,2.21-6.71c-0.57-2.41-2.58-4.42-5-4.99"/>
						<path class="st5" d="M159.49,62.68c-0.1-0.07-0.18-0.15-0.26-0.24"/>
						<path class="st6" d="M158.28,61.09c-0.81-0.96-2.07-1.52-3.33-1.44c-0.12,0.01-0.24,0.02-0.36,0.03"/>
						<path class="st5" d="M153.78,59.74c-0.12,0-0.24-0.02-0.35-0.04"/>
						<path class="st4" d="M159.83,57.99c0.06-0.01,0.12-0.03,0.18-0.05c1-0.29,1.98-1.09,2.07-2.02c0.11-1.2-0.84-2.39-2.03-2.55
							c-1.19-0.16-2.42,0.74-2.63,1.92c-0.17,0.99,0.07,2.04,0.85,2.51"/>
					</g>
				</g>
			</g>
			<g>
				<path class="st2" d="M232.94,60.81c-2.29,7.87-7.06,15.75-15.66,20.21c-2.97,1.53-5.94-2.21-2.25-4.1
					c6.48-3.28,10.75-9.22,13.09-15.48l-3.19,0.45c-2.16,0.27-3.96,0.58-5.67,0.58c-3.78,0-3.37-4.45-0.45-4.32
					c1.71,0.09,3.64-0.18,5.67-0.36c1.71-0.13,3.33-0.36,4.9-0.54c0.23-1.03,0.41-2.02,0.54-3.01c0.31-2.21,0-3.6,0.04-4.72
					c0.14-2.92,4.59-2.57,4.73,0.09c0.04,1.08-0.09,2.43-0.31,4.32c-0.14,0.9-0.27,1.84-0.45,2.79c1.35-0.18,2.7-0.36,4.05-0.49
					c3.42-0.36,6.12,1.84,5.71,5.49c-0.5,4.46-1.53,10.93-3.69,14.26c-3.15,4.86-8.5,6.39-12.42,2.34
					c-2.11-2.16,0.81-6.25,3.19-3.64c1.71,1.84,3.42,1.12,5.13-1.08c1.94-2.48,2.88-8.96,3.15-11.25c0.13-1.08-0.13-2.34-2.16-2.07
					L232.94,60.81z"/>
				<path class="st2" d="M295.58,65.22c-0.81,0-1.58,0-2.34,0c-8.59,0-15.16,0.41-18.72,0.54c-2.34,0.09-3.55,0.13-4.45,0.13
					c-0.54,0-0.94-0.04-1.44-0.04c-1.71-0.04-2.61-1.26-2.61-2.43c0-1.12,0.9-2.21,2.7-2.21c0.09,0,0.18,0,0.27,0
					c1.67,0.09,3.65,0.13,5.44,0.13c3.69,0,13.32-0.54,21.24-0.76c0.04,0,0.09,0,0.09,0c1.8,0,2.75,1.17,2.75,2.29
					c0,1.17-0.95,2.34-2.88,2.34H295.58z"/>
				<path class="st2" d="M333.29,79.39c0.04,2.11-1.17,3.28-2.43,3.42c-1.26,0.13-2.56-0.72-2.47-2.75
					c0.27-7.33,0.36-21.51,0.18-28.03c-0.04-1.44-0.18-2.88-0.4-3.78c-0.81-3.2,4.36-3.83,4.77-0.72c0.18,1.35,0.22,0.9,0.18,4
					c-0.04,1.8-0.04,4.41-0.04,7.42c0.23-0.04,0.5-0.04,0.77,0c2.25,0.23,8.19,1.49,10.62,4.09c2.11,2.29-0.99,5.9-3.33,3.69
					c-1.75-1.67-5.76-3.06-8.05-3.37C333.11,69.18,333.2,75.39,333.29,79.39z"/>
				<path class="st2" d="M372.22,79.21c-0.86-2.74-1.17-5.67-1.17-8.59c0-7.92,2.29-15.66,2.52-18.76c0.13-1.53,1.12-2.16,2.16-2.16
					c1.12,0,2.25,0.77,2.25,1.98c0,0.09,0,0.22-0.04,0.36c-0.63,3.29-2.93,11.61-2.93,16.06c0,1.67,0.32,1.84,0.45,1.84
					c0.09,0,0.23-0.09,0.32-0.31c1.39-2.66,1.71-3.2,2.65-3.2c0.95,0,1.85,0.9,1.85,1.89c0,0.27-0.04,0.54-0.23,0.81
					c-2.16,3.73-3.38,7.11-3.38,8.46c0,0.4,0.04,0.81,0.04,1.21c0,2.21-1.75,2.34-2.25,2.34C373.57,81.15,372.62,80.56,372.22,79.21
					z M397.24,78.94c-7.78,0-13.72-4.63-13.72-6.84c0-1.17,1.08-2.12,2.34-2.12c0.67,0,1.4,0.27,2.03,0.99
					c1.89,2.12,5.08,3.01,8.73,3.01c1.26,0,2.52-0.09,3.83-0.27c0.18-0.04,0.36-0.04,0.54-0.04c1.53,0,2.25,1.04,2.25,2.16
					C403.22,78.18,401.24,78.94,397.24,78.94z M392.15,59.19c-1.98,0-4.09-0.18-6.07-0.68c-1.35-0.31-1.89-1.17-1.89-2.02
					c0-1.08,0.86-2.12,2.07-2.12c0.13,0,0.27,0,0.45,0.04c1.48,0.32,2.97,0.45,4.36,0.45c1.94,0,3.78-0.22,5.54-0.45
					c0.13,0,0.27-0.04,0.41-0.04c1.39,0,2.16,1.04,2.16,2.12C399.17,58.29,397.91,59.19,392.15,59.19z"/>
				<path class="st2" d="M439.76,52.12c1.3,9,7.33,19.98,16.33,24.88c0.95,0.54,1.35,1.3,1.35,2.07c0,1.4-1.31,2.83-2.97,2.83
					c-0.5,0-1.08-0.13-1.62-0.5c-6.97-4.41-12.19-12.24-15.07-20.07c-2.66,8.37-7.74,16.15-16.51,20.83
					c-0.5,0.27-0.99,0.36-1.44,0.36c-1.48,0-2.56-1.21-2.56-2.47c0-0.81,0.45-1.67,1.53-2.21c10.93-5.62,15.7-16.29,16.65-25.87
					c-0.14-1.71-0.27-2.34-1.49-2.34c-0.04,0-0.09,0-0.13,0l-6.39,0.32c-0.04,0-0.09,0-0.14,0c-1.35,0-2.07-1.08-2.07-2.21
					c0-1.08,0.67-2.21,2.11-2.21c1.8-0.04,3.83-0.09,5.85-0.09c0.5,0,0.94,0,1.44,0c2.7,0.04,4.82,1.53,4.91,3.96
					c0.04,0.81,0.09,1.67,0.22,2.52h0.04L439.76,52.12z"/>
				<path class="st2" d="M473.92,73.99c0.04-0.09,0.31-0.36,0.67-0.9c0.5-0.72,0.85-1.4,1.3-2.16c0.99-1.67,2.16-3.29,3.42-4.86
					c0.58-1.04,1.08-2.03,1.48-2.92l0.14-1.26c-1.08,0.41-2.61,0.99-4,1.98c-0.63,0.45-1.17,0.63-1.62,0.63
					c-1.08,0-1.71-0.99-1.71-1.98c0-1.48,0.36-1.98,7.83-5.22c0.36-3.69,0.63-6.93,0.63-8.91c0-1.44,0.99-2.12,2.02-2.12
					c1.08,0,2.25,0.77,2.25,2.07c0,1.35-0.54,5.85-0.81,8.14c0.67,0.32,1.03,0.95,1.03,1.8c3.33-3.1,6.79-5.76,10.17-5.76
					c2.97,0,4.81,2.21,4.81,5.35c0,0.27,0,0.58-0.04,0.9c-0.31,2.92-1.62,7.69-2.11,11.83c-0.09,0.58-0.14,1.08-0.14,1.53
					c0,1.4,0.5,1.98,2.12,1.98c0.81,0,1.75-0.14,5-1.44c0.45-0.18,0.85-0.27,1.21-0.27c1.26,0,1.98,1.03,1.98,2.11
					c0,0.95-0.49,1.94-1.67,2.43c-1.8,0.72-3.82,1.39-6.43,1.39c-3.46,0-6.48-1.12-6.48-5.67c0-0.63,0.04-1.3,0.18-2.02
					c0.63-4.1,1.85-8.82,2.03-11.75c0-0.18,0-0.31,0-0.5c0-1.48-0.54-2.02-1.35-2.02c-2.39,0-7.61,4.95-11.25,9.45
					c-0.18,2.38-0.32,4.82-0.32,7.11s0.14,4.45,0.45,6.34c0.04,0.18,0.04,0.31,0.04,0.49c0,1.44-1.17,2.34-2.38,2.34
					c-2.38,0-2.43-2.66-2.43-5.9c0-1.57,0.04-3.28,0.18-5.13c-0.99,1.62-1.93,3.51-2.74,5.08c-0.86,1.67-2.12,2.34-3.15,2.34
					c-0.99,0-1.8-0.63-1.8-1.67c0-0.81,0.54-1.57,1.35-2.61L473.92,73.99z"/>
				<path class="st2" d="M549.97,69.27c0-4.72-5.71-4.72-6.12-4.72c-5.04,0-8.91,3.69-10.75,5.98c-0.49,0.63-1.17,0.9-1.8,0.9
					c-1.21,0-2.38-0.95-2.38-2.16c0-0.58,0.27-1.21,0.9-1.84c6.48-6.39,13.05-14.4,13.05-14.89c0-0.09-0.04-0.13-0.13-0.13
					s-0.18,0.04-0.31,0.09c-3.38,2.12-7.65,3.29-9,3.29c-1.53,0-2.34-1.12-2.34-2.21c0-0.95,0.58-1.84,1.89-1.98
					c4.46-0.4,10.12-2.43,11.38-3.06c0.54-0.27,1.12-0.36,1.62-0.36c1.67,0,2.97,1.21,2.97,2.65c0,0.72-0.32,1.49-1.04,2.21
					c-3.06,2.92-6.52,6.75-9.36,9.9c1.93-1.26,4.23-1.8,6.43-1.8c4.77,0,9.5,2.92,9.5,7.92c0,6.03-6.21,11.79-14,11.79
					c-5.4,0-8.23-3.1-8.23-5.76c0-2.43,2.25-4.23,5.04-4.23c3.91,0,6.61,2.16,7.02,5.62C546.23,75.97,549.97,72.78,549.97,69.27z
					 M537.68,74.08c-1.53,0-1.57,0.99-1.57,1.17c0,1.75,3.06,1.98,4.18,1.98c0.09,0,0.22,0,0.31,0
					C540.47,75.3,539.48,74.08,537.68,74.08z"/>
			</g>
		</g>
	</g>
	<g class="st7">
		<path class="st8" d="M819.83,121.03h-47.26c-24.75,0-45-20.25-45-45V51.1c0-24.75,20.25-45,45-45h47.26c24.75,0,45,20.25,45,45
			v24.94C864.83,100.78,844.58,121.03,819.83,121.03z"/>
		<path class="st9" d="M796.2,47.91c-6.42-11.03-26.22-8.05-25.22,8.93c0.99,16.98,25.22,28.89,25.22,28.89s24.23-11.91,25.22-28.89
			S802.62,36.88,796.2,47.91z"/>
	</g>
</g>
<g>
</g>
<g>
</g>
<g>
</g>
<g>
</g>
<g>
</g>
<g>
</g>
</svg>
