<?xml version="1.0" encoding="utf-8"?>
<!-- Generator: Adobe Illustrator 29.8.2, SVG Export Plug-In . SVG Version: 9.03 Build 0)  -->
<svg version="1.1" id="レイヤー_1" xmlns="http://www.w3.org/2000/svg" xmlns:xlink="http://www.w3.org/1999/xlink" x="0px"
	 y="0px" viewBox="0 0 1920 1080" style="enable-background:new 0 0 1920 1080;" xml:space="preserve">
<style type="text/css">
	.st0{clip-path:url(#SVGID_00000107583575209936157220000000973465349445930411_);}
	
		.st1{opacity:0.4;fill:none;stroke:#DCC224;stroke-width:3;stroke-linecap:round;stroke-linejoin:round;stroke-miterlimit:10;stroke-dasharray:25,15,5,15;enable-background:new    ;}
	
		.st2{clip-path:url(#SVGID_00000156561674125478658290000007990322858248099715_);fill:url(#SVGID_00000050636066466845133130000006842592652561487501_);}
</style>
<g>
	<defs>
		<path id="SVGID_1_" d="M1920,64.67c-44.3,8.55-81.41,37.27-101.39,76.23c-31.94-27.66-73.61-44.4-119.18-44.4
			c-33.58,0-65.03,9.1-92.04,24.94c-32.86-32.26-77.89-52.16-127.58-52.16c-38.53,0-74.25,11.97-103.68,32.38
			C1326.25,40.19,1250.1,0.88,1164.76,0.88c-65.71,0-125.98,23.3-173,62.08c-21.51-12.65-46.57-19.92-73.34-19.92
			c-59.19,0-110.07,35.5-132.56,86.35c-9.77-1.06-19.68-1.62-29.73-1.62c-56.31,0-108.63,17.11-152.03,46.41
			c-33.31-43.16-85.54-70.96-144.27-70.96c-37.09,0-71.58,11.1-100.36,30.13C309.77,68.15,231.3,26.06,142.99,26.06
			C90.53,26.06,41.55,40.91,0,66.62L0,0h1920L1920,64.67z"/>
	</defs>
	<clipPath id="SVGID_00000112620451163298860170000011661359856140078735_">
		<use xlink:href="#SVGID_1_"  style="overflow:visible;"/>
	</clipPath>
	<g style="clip-path:url(#SVGID_00000112620451163298860170000011661359856140078735_);">
		<circle class="st1" cx="336.49" cy="187.91" r="144.87"/>
		<circle class="st1" cx="1822.81" cy="164.12" r="144.87"/>
		<circle class="st1" cx="1389.79" cy="117.44" r="98.19"/>
		<circle class="st1" cx="1656.55" cy="148.6" r="98.19"/>
		<circle class="st1" cx="624.99" cy="187.91" r="98.19"/>
		<circle class="st1" cx="784.63" cy="164.12" r="130.36"/>
	</g>
</g>
<g>
	<defs>
		<rect id="SVGID_00000127040752202102764360000016179333650780150668_" x="0" y="0" width="1920" height="1080"/>
	</defs>
	<clipPath id="SVGID_00000078729342646666159040000001909657360624648069_">
		<use xlink:href="#SVGID_00000127040752202102764360000016179333650780150668_"  style="overflow:visible;"/>
	</clipPath>
	
		<linearGradient id="SVGID_00000172412797995457753280000014873059994523326650_" gradientUnits="userSpaceOnUse" x1="981.7061" y1="1079.2302" x2="981.7061" y2="0.1102" gradientTransform="matrix(1 0 0 -1 0 1080.1101)">
		<stop  offset="0" style="stop-color:#E6D89B"/>
		<stop  offset="0.4867" style="stop-color:#E6D89B;stop-opacity:0.4"/>
		<stop  offset="1" style="stop-color:#EDE5BB;stop-opacity:0"/>
	</linearGradient>
	
		<path style="clip-path:url(#SVGID_00000078729342646666159040000001909657360624648069_);fill:url(#SVGID_00000172412797995457753280000014873059994523326650_);" d="
		M1947.6,62.04c-56.23,0-104.98,32.04-128.99,78.86c-31.94-27.66-73.61-44.4-119.18-44.4c-33.58,0-65.03,9.1-92.04,24.94
		c-32.86-32.26-77.89-52.16-127.58-52.16c-38.53,0-74.25,11.97-103.68,32.38C1326.25,40.19,1250.1,0.88,1164.76,0.88
		c-65.71,0-125.98,23.3-173,62.08c-21.51-12.65-46.57-19.92-73.34-19.92c-59.19,0-110.07,35.5-132.56,86.35
		c-9.77-1.06-19.68-1.62-29.73-1.62c-56.31,0-108.63,17.11-152.03,46.41c-33.31-43.16-85.54-70.96-144.27-70.96
		c-37.09,0-71.58,11.1-100.36,30.13C309.77,68.15,231.3,26.06,142.99,26.06c-150.26,0-272.06,121.81-272.06,272.06
		c0,97.8,51.61,183.53,129.08,231.48L0,1080h1920l0.01-730.86c8.94,1.73,18.16,2.65,27.6,2.65c80.01,0,144.87-64.86,144.87-144.87
		S2027.61,62.04,1947.6,62.04z"/>
</g>
<g>
</g>
<g>
</g>
<g>
</g>
<g>
</g>
<g>
</g>
<g>
</g>
<g>
</g>
<g>
</g>
<g>
</g>
<g>
</g>
<g>
</g>
<g>
</g>
<g>
</g>
<g>
</g>
<g>
</g>
</svg>
